<svg xmlns="http://www.w3.org/2000/svg" width="146" height="95" viewBox="0 0 146 95">
    <g fill="none" fill-rule="evenodd">
        <g fill="#DEE100">
            <path d="M0 41.63v28.525h5.778V58.443h10.191v-5.23H5.778V46.86h10.191v-5.23zM28.781 48.447l-3.399 11.085h7.137l-3.738-11.085zm13.56 21.708h-6.219l-1.905-5.646H23.852l-1.728 5.646h-6.117l9.345-28.524h6.693l10.296 28.524zM68.502 70.156h-4.857L50.829 51.874v18.282h-5.775V41.63h5.3l12.37 17.442V41.63h5.778zM96.838 70.156H91.06V58.612H79.507v11.544h-5.778V41.63h5.778v11.46H91.06V41.63h5.778zM117.556 49.033c-3.362-1.839-5.367-2.553-7.334-2.553-2.076 0-3.4.921-3.4 2.343 0 4.308 11.79 3.096 11.79 13.05 0 5.481-3.74 8.658-8.9 8.658-4.044 0-6.055-1.296-8.362-2.76v-6.15c3.328 2.724 5.368 3.684 7.915 3.684 2.21 0 3.398-.96 3.398-2.637 0-4.683-11.79-2.97-11.79-13.218 0-4.935 3.465-8.199 8.838-8.199 2.578 0 4.927.672 7.846 2.22v5.562zM145.488 41.63v16.188c0 9.45-5.232 12.714-11.589 12.714-6.726 0-11.586-3.849-11.586-12.675V41.63h5.778v16.395c0 4.098 2.409 6.567 5.742 6.567 3.054 0 5.877-1.965 5.877-7.068V41.63h5.778z"/>
        </g>
        <g fill="#FFF">
            <path d="M14.004 11.021c2.85 2.736 4.875 6.111 5.925 9.636-.75.375-1.464.861-2.211 1.236-1.05-3.708-2.853-7.16-6-9.819l2.064-1.164.222.111zm10.722 21.561c-2.022 0-3.297-1.467-3.297-3V4.91H10.932l-.04 15.972c0 5.511-3.75 10.161-8.207 13.422l-2.064-1.8c3.71-2.547 7.61-6.525 7.8-11.247l.075-2.025.036-16.608h15.294v26.058c0 .783.414 1.65 1.464 1.65l3.15-.039c1.239 0 1.572-1.539 1.686-2.139.26-1.347.6-2.697.71-4.083l2.362.672c-.147 2.1-1.197 7.84-3.783 7.84h-4.69zM70.512 31.866h-32.43l-.036-2.247h5.847L43.935 9.3h2.394v20.32h8.139l-.04-27.934h2.362v11.436h11.025v2.25H56.79V29.62l13.686-.039zM92.191 6.486c-1.347-2.1-3.26-3.936-5.436-5.025l1.686-1.46c.825.263 1.54.86 2.25 1.388 1.314.933 2.514 2.433 3.486 3.636l-1.986 1.461zm-6.786 2.697c.15 1.275.564 2.814.94 4.125.035.114.15.261.11.375.79 2.175 1.653 4.314 2.961 6.225.75 1.047 1.54 2.211 2.511 3 3.528-3.789 5.403-8.7 6.3-13.725H85.405zM75.28 32.28c5.29-1.76 10.611-3.636 14.961-7.61-4.05-4.2-6.147-9.823-7.236-15.523H76.78l.042-2.247h29.952v2.247l-6.11.036c-1.015 5.625-3.112 11.175-6.973 15.411 4.275 3.711 9.486 5.736 14.772 7.386l-1.65 1.947c-5.289-1.686-10.422-3.897-14.808-7.61-.975.563-1.875 1.5-2.814 2.138-3.786 2.511-7.872 4.386-12.147 5.811L75.28 32.28zM144.65 31.342c-.15 1.164-.86 2.4-2.097 2.664-1.203.225-2.55.072-3.789.11l-.822-2.471c1.611.222 2.997.56 4.047-.375.375-.564.486-1.125.375-1.99V.413h2.325l-.039 30.93zm-7.833-4.497h2.322V4.723h-2.322v22.122zm-5.103-.264l-8.997-.04v3.49h8.997v-3.45zm0 7.65l.04-2.211h-9.037v2.547h-2.325v-9.972h13.647v9.636h-2.325zm-1.008-16.011h-10.91v2.25l10.91-.04v-2.21zm-10.91-4.011v2.064l10.91.036v-2.061l-10.91-.04zm-.079 8.286c-.222 3.86-1.5 7.46-3.936 10.458l-1.947-1.236c.522-.636 1.647-2.625 1.836-3.036 1.875-3.111 1.722-6.111 1.764-9.636l.033-6.336c-.897.75-2.736 1.914-3.783 2.36l-1.014-1.985c3.111-1.686 5.847-4.572 7.875-7.497 1.236-1.764 2.136-3.64 3-5.586l2.022.9c-.036.336-.225.675-.375 1.01l.15.115c4.125 1.16 7.461 3.486 10.383 6.597l-1.686 1.425c-4.236-4.39-5.36-4.39-9.672-6.036-.114 0-.3.114-.186.147-.789 1.164-1.35 2.367-2.289 3.678h9v2.21h-10.686c-.26.376-2.1 2.062-2.25 2.062l15.072.075.04 10.31h-13.35z"/>
        </g>
        <g fill="#FFF" fill-opacity=".604">
            <path d="M13.594 81.458v1.21c-1.734-.922-3.438-1.384-5.106-1.384-1.78 0-3.264.606-4.461 1.815-1.197 1.21-1.794 2.721-1.794 4.533 0 1.83.603 3.34 1.803 4.521 1.203 1.182 2.739 1.773 4.608 1.773 1.557 0 3.258-.489 5.094-1.467v1.15c-1.698.896-3.387 1.343-5.08 1.343-2.177 0-3.995-.699-5.447-2.097-1.452-1.398-2.178-3.138-2.178-5.223 0-2.1.744-3.855 2.226-5.262 1.482-1.407 3.252-2.109 5.3-2.109 1.612 0 3.292.396 5.035 1.197M22.892 93.927c1.788 0 3.294-.61 4.518-1.83 1.227-1.221 1.84-2.718 1.84-4.485 0-1.78-.613-3.276-1.84-4.497-1.224-1.221-2.73-1.83-4.518-1.83-1.79 0-3.306.609-4.548 1.83-1.242 1.22-1.86 2.718-1.86 4.497 0 1.767.618 3.264 1.86 4.485 1.242 1.22 2.757 1.83 4.548 1.83m-.042-13.668c2.121 0 3.918.714 5.391 2.136 1.47 1.428 2.211 3.165 2.211 5.217 0 2.043-.74 3.777-2.21 5.202-1.474 1.425-3.27 2.139-5.392 2.139-2.109 0-3.9-.714-5.367-2.14-1.464-1.424-2.196-3.158-2.196-5.201 0-2.052.732-3.79 2.196-5.217 1.467-1.422 3.258-2.136 5.367-2.136M34.277 81.367v5.607h2.38c1.205 0 2.132-.243 2.771-.732.64-.489.96-1.182.96-2.076 0-.882-.327-1.569-.975-2.06-.648-.493-1.58-.739-2.799-.739h-2.337zm-1.107-.927h3.67c1.538 0 2.714.336 3.524 1.002.816.666 1.224 1.57 1.224 2.703 0 1.656-.912 2.814-2.73 3.486.474.225 1.107.954 1.908 2.184l3.24 4.953h-1.308l-2.496-3.927c-.834-1.31-1.485-2.133-1.95-2.457-.465-.327-1.146-.486-2.037-.486h-1.938v6.87H33.17V80.44zM46.295 81.367v5.784h2.667c1.194 0 2.103-.255 2.724-.762.624-.504.933-1.218.933-2.142 0-.882-.303-1.58-.91-2.1-.608-.522-1.481-.78-2.615-.78h-2.8zm-1.107-.927h3.945c1.509 0 2.67.342 3.474 1.017.8.678 1.203 1.6 1.203 2.77 0 1.184-.408 2.117-1.215 2.81-.81.69-1.998 1.032-3.564 1.032h-2.736v6.7h-1.107V80.44zM62.924 93.927c1.788 0 3.294-.61 4.518-1.83 1.227-1.221 1.839-2.718 1.839-4.485 0-1.78-.612-3.276-1.84-4.497-1.223-1.221-2.73-1.83-4.517-1.83-1.791 0-3.306.609-4.548 1.83-1.242 1.22-1.86 2.718-1.86 4.497 0 1.767.618 3.264 1.86 4.485 1.242 1.22 2.757 1.83 4.548 1.83m-.042-13.668c2.12 0 3.918.714 5.39 2.136 1.47 1.428 2.212 3.165 2.212 5.217 0 2.043-.741 3.777-2.211 5.202-1.473 1.425-3.27 2.139-5.391 2.139-2.11 0-3.9-.714-5.367-2.14-1.464-1.424-2.196-3.158-2.196-5.201 0-2.052.732-3.79 2.196-5.217 1.467-1.422 3.258-2.136 5.367-2.136M74.308 81.367v5.607h2.38c1.206 0 2.132-.243 2.772-.732.639-.489.96-1.182.96-2.076 0-.882-.328-1.569-.975-2.06-.648-.493-1.581-.739-2.8-.739h-2.337zm-1.107-.927h3.67c1.538 0 2.715.336 3.525 1.002.816.666 1.224 1.57 1.224 2.703 0 1.656-.913 2.814-2.73 3.486.474.225 1.106.954 1.907 2.184l3.24 4.953H82.73l-2.495-3.927c-.834-1.31-1.485-2.133-1.95-2.457-.466-.327-1.147-.486-2.038-.486h-1.938v6.87h-1.107V80.44z"/>
            <path d="M93.662 88.89l-3.087-6.743-3.078 6.744h6.165zm-2.772-8.55l6.621 14.428h-1.16l-2.266-4.95h-7.008l-2.256 4.95h-1.16l6.62-14.427h.61zM107.425 80.442v.927h-5.373v13.398h-1.116V81.369h-5.373v-.927zM109.161 94.766h1.107V80.441h-1.107zM120.563 93.927c1.784 0 3.29-.61 4.517-1.83 1.225-1.221 1.84-2.718 1.84-4.485 0-1.78-.615-3.276-1.84-4.497-1.227-1.221-2.733-1.83-4.517-1.83-1.794 0-3.31.609-4.549 1.83-1.242 1.22-1.862 2.718-1.862 4.497 0 1.767.62 3.264 1.862 4.485 1.24 1.22 2.755 1.83 4.549 1.83m-.043-13.668c2.121 0 3.916.714 5.389 2.136 1.472 1.428 2.213 3.165 2.213 5.217 0 2.043-.74 3.777-2.214 5.202-1.472 1.425-3.267 2.139-5.388 2.139-2.111 0-3.9-.714-5.367-2.14-1.467-1.424-2.199-3.158-2.199-5.201 0-2.052.733-3.79 2.2-5.217 1.467-1.422 3.255-2.136 5.367-2.136M143.725 80.442v14.325h-.91l-10.892-12.52v12.52h-1.107V80.442h.939l10.863 12.522V80.442z"/>
        </g>
    </g>
</svg>
