<svg xmlns="http://www.w3.org/2000/svg" width="529" height="236" viewBox="0 0 529 236">
    <g fill="none" fill-rule="evenodd">
        <path fill="#FFF" d="M476.258 16.325c-.894 1.295-1.464 2.888-2.363 4.21-.328.473-.89.901-1.187 1.406-.312.527-.282 1.205-.591 1.697-.415.67-1.07 1.189-1.477 1.845-.301.484-.27 1.218-.594 1.7-.247.247-.495.494-.737.742-.575.917-.863 2.034-1.256 3.103-.264.697-.557 1.359-.964 1.917l-.884.814c-.436.654-.173 2 0 2.659.173.053.29.183.442.223h3.178c1.23.3 4.126 1.346 5.323.59 1.59-.526 1.406-3.108 1.406-5.249 0-1.534.22-3.403.521-4.722v-2.513c.2-.78.219-1.944.219-3.029 0-1.292-.219-2.143-.219-3.252-.002-.886.352-1.744-.3-2.066-.117-.077-.301-.075-.517-.075M484.243.001h3.846c.072.098.147.197.219.298.284.146.676-.03 1.038.069.098.029.343.197.441.223.5.136 1.164-.143 1.555.072.548.303 1.637 1.784 1.847 2.438.535 1.644-1.051 1.955-1.626 2.734-.38.521-.5 1.25-.81 1.848-.667 1.274-1.346 2.388-1.777 3.989v1.109c-.019.3-.165.526-.224.739v1.032l-.735 2.146v1.327c-.143.515-.306 1.552-.444 2.066v.888c-.578 2.093-.62 4.55-1.182 6.648-.28 1.029.237 2 0 2.957-.65 2.598-.66 5.581-.668 8.788.46.327 1 .729 1.552.96.985.415 1.943.535 2.733 1.11 1.227.885 1.53 2.477 2 4.134.106.386.39 1.066.22 1.702-.223.846-.844 1.83-1.474 2.29-1.302.938-3.165.739-4.735 1.403-.591.25-.847.761-1.26 1.184-.018 1.489-.095 3.358.224 4.504v1.476c0 1 .03 2.042.221 2.734v1.037c.165.627.516 1.24.743 1.845.742 2.003 1.158 3.915 2.289 5.468l1.038.957c.953.957 1.932 1.933 3.106 2.66.607.38 1.28.56 1.919.887 2.143 1.11 6.609 1.851 9.611.888.503-.162.95-.109 1.33-.37.996-.683 1.012-3.786.594-5.246-.332-1.157-.889-2.287-1.333-3.324-.125-.441-.245-.888-.367-1.327-.4-.941-1.092-1.864-1.48-2.81-.187-.458-.008-1.141-.221-1.55a61.533 61.533 0 0 0-.594-.588c-.585-.79-1.259-2.027-1.328-3.25.112-.045.123-.053.296-.08.441.455.958.732 1.477 1.112.274.295.543.588.814.885 1.03.713 2.055 1.49 3.106 2.141.437.274.972.3 1.406.59.14.096.178.32.298.444.362.413.958.862 1.403 1.184 1.336.968 2.802 1.688 4.141 2.659.17.197.343.394.514.59.295.216.678.303.889.593.165.218.215.51.444.665.346.122.69.245 1.038.37.344.343.687.688 1.03 1.034.298.072.594.146.89.22.359.232.774 1.088 1.035 1.48.284.43.756.826 1.038 1.254.434.665.577 1.426.958 2.141.122.125.247.247.37.37v2.215c0 2.747-1.954 4.579-3.623 5.688-1.836 1.223-3.305 2.037-5.842 2.659h-1.328c-.764.205-1.956.22-3.032.22h-1.629c-1.54.41-3.372.445-5.323.445h-2.217c-.652-.17-1.576-.232-2.292-.444-1.232-.36-2.475-1.024-3.771-1.402-.985-.284-1.773-.364-2.664-.74-2.234-.938-3.032-2.757-4.36-4.58l-2.885-2.878c-.509-.745-.69-1.715-1.182-2.513-.674-1.09-1.608-2.529-2.076-3.768-.221-.6-.125-1.186-.365-1.77-.527-1.28-1.152-2.735-1.554-4.213v-.888c-.314-1.266-.426-3.183-.74-4.507v-3.614c-.027-.112-.192-.396-.221-.524-.277-1.114.325-2.627-.075-3.617-.654-1.616-2.584-2.047-4.213-2.73-1.014-.429-2.1-1.317-3.037-1.702-.586-.125-1.176-.245-1.77-.367-.543-.178-1.256-.418-1.7-.742-.246-.32-.493-.638-.743-.955-.362-.247-1.9-.3-2.513-.151-1.272.308-2.26 1.092-2.733 2.215-.213.508-.163 1-.37 1.55-.107.284-.397.609-.517.888-.14.335-.106.68-.3.96-.27.404-.748.609-.959 1.109-.51 1.223-.53 2.648-1.035 3.842-.543 1.28-1.235 2.64-1.778 3.915-.34.808-.429 1.768-.884 2.513-.407.67-.987 1.313-1.402 1.994-.36.582-.45 1.255-.74 1.92-.133.3-.416.627-.52.957-1.429 4.566-1.855 10.256-3.252 14.849-.138.452-.202.872-.295 1.258v1.699c-.03.109-.19.39-.221.518v2.067c-.272.994-.402 2.422-.668 3.398l-.072 1.18c-.4 1.205-1.344 2.245-3.034 2.216-.264-.793-1.414-.7-2.066-1.107-1.166-.72-2.467-1.951-3.111-3.177-.346-.662-.181-1.428-.442-2.215-.274-.838-.562-1.811-.886-2.66-.866-2.268-2.353-4.579-3.623-6.501a5.783 5.783 0 0 1-.59-1.183c-.027-.195-.054-.391-.073-.588-.042-.072-.269-.098-.298-.149v-3.401c.061-.136.312-.247.37-.439l.075-.814c.447-1.263.98-2.722 1.325-4.063.205-.766.053-1.68.298-2.438.455-1.39 1.16-2.776 1.555-4.21v-1.108c0-.814.04-1.354.22-1.995 1.417-4.895 2.878-9.669 4.217-14.628V39.67c.29-1.242.43-2.933.737-4.138.184-.723.03-1.3.226-1.994.604-2.157 1.03-4.489 1.626-6.576.16-.564.112-.997.296-1.55.564-1.723 1.198-3.694 1.626-5.465v-2.662c.096-.356.346-.8.445-1.18.212-.825.244-1.71.439-2.439v-1.258c.29-1.196.463-2.723.74-3.837.197-.79-.304-1.412-.445-1.925-.189-.713.306-2.183.445-2.73.292-1.155-.205-2.418 0-3.253.854-.556 1.325-.11 2.145.149.295.09.514.002.737.149.49.31.94.843 1.41 1.183 1.513 1.088 3.4 2.157 4.065 4.06.141.413.2 1.48.075 1.995-.216.854-.607 1.72-.89 2.51-.047.396-.095.793-.146 1.184-.34 1.042-.806 2.236-1.11 3.395-.354 1.362-.311 2.566-.662 3.92-.205.763-.554 1.633-.743 2.361v1.33c-.487 1.755-1.352 3.29-1.85 5.097v1.107c-.12.47-.391.877-.516 1.404v2.292c-.477 1.718-.815 3.957-1.33 5.688-.028.295-.051.59-.078.885-.383 1.33-.945 2.91-1.328 4.212-.024.394-.05.787-.077 1.184-.027.109-.187.39-.221.518v.809c-.336 1.228-.724 2.675-1.105 3.845-.412 1.26-.639 2.553-.963 3.84-.13.515.077 1.103-.075 1.547-.125.391-.442.758-.588 1.109-.498 1.16-.91 2.41-1.26 3.622-.183.643-.63 3.063-.148 3.324.607.31 1.221-.54 1.48-.888.197-.197.39-.394.59-.588.615-.984.884-2.058 1.627-2.883l.814-.664c.365-.506.506-1.141.815-1.7.122-.234.38-.446.516-.664.357-.575.532-1.125.886-1.7.857-1.377 1.842-2.781 2.588-4.286.436-.878.545-1.827 1.038-2.657.678-1.148 1.514-2.27 2.217-3.398.24-.383.521-.947.665-1.33.048-.295.099-.59.147-.888.226-.54.846-1.162 1.256-1.547v-.596c-.575-.527-1.951-1.436-2-2.361.03-.024.057-.05.078-.072 2.143-.277 5.05-1.481 6.063-2.883.304-.42.376-.96.668-1.404.448-.691 1.02-1.441 1.48-2.143.21-.327.24-.702.442-1.034 1.903-3.117 3.452-6.582 4.953-10.119.29-.686.764-1.409 1.108-2.068.713-1.364 1.19-2.835 1.999-4.138.407-.657.928-1.393 1.328-2.069.077-.244.151-.492.223-.739.415-.838.966-1.694 1.262-2.66.133-.454-.013-1.052.218-1.4.458-.697 1.568-1.29 2.366-1.625.46-.197 1.02-.173 1.406-.444.218-.157.276-.519.444-.74.487-.675 1.725-1.675 2.44-2.146.76-.494 2.476-.853 2.955-1.547"/>
        <path fill="#FFF" d="M499.823 109.663c1.704-.024 2.54.39 3.87.745.378.1.948.321 1.496.204 1.078-.234 2.34-.385 3.39-.611.55-.12 1.212.1 1.627.202 1.206.292 2.465.324 3.599.614.873.218 1.637.106 2.51.338 1.259.33 2.49.816 3.46 1.42.734.46 2.435 1.231 2.51 2.239-.237.284-.597.68-.746 1.018-.763 1.715-.085 3.399-1.628 4.54-1.47 1.09-3.077 1.965-5.633 1.965l-1.423-.064c-.645-.197-.99-.777-1.563-1.021-.655-.272-1.655-.064-2.307-.338-.77-.473-1.536-.947-2.305-1.423-1.856-.824-3.745-1.321-5.907-1.896-.971-.26-2.113-.266-3.055-.476h-2.1a11.59 11.59 0 0 0-2.239-.27c-1.653-.022-3.891.002-3.872-1.628.14-.16.157-.357.274-.54.474-.715 1.198-1.287 1.7-1.97.424-.58.943-1.397 1.627-1.692.548-.24 1.275.019 1.964-.138 1.14-.253 2.204-.566 3.258-.88.468-.141 1.115-.088 1.493-.338zm-70.709 26.778c2.127.021 3.623 1.361 4.887 2.308 2.65 1.978 4.386 4.606 5.973 7.658.59 1.144 1.301 2.343 1.626 3.731.205.88-.405 1.47-.202 2.372.215.97.45 2.989.135 4.135l-.614 1.627c-.04.522-.088 1.04-.136 1.559-.218.742-.549 1.51-.743 2.374.021.543.045 1.083.064 1.628.008 1.18-.162 2.672.072 3.728.173.81.048 1.473.266 2.236.237.8.73 1.47 1.022 2.173.322.781.261 1.598.676 2.233.431.657 2.047 1.617 2.923 1.83l1.762-.064h1.9c.62-.138 1.326-.14 1.834-.407.647-.343.98-1.045 1.762-1.29.987-.305 1.914-.295 2.853-.608 1.193-.402 2.502-.958 3.732-1.357l2.377-.476c.553-.242.825-.954 1.421-1.151.636.024 1.267.043 1.903.066.647-.162.908-.656 1.427-.882.54-.112 1.083-.221 1.626-.333 1.24-.502 2.297-1.523 2.984-2.58.229-.35.375-1.034.202-1.557a56.572 56.572 0 0 1-1.083-3.933c-.288-1.21-.224-2.646-.474-3.8v-1.423c0-.962-.045-1.859-.205-2.577v-3.116c-.285-1.29-.913-2.093-1.288-3.258-.25-.765-.208-1.765-.205-2.778.002-1.745 1.315-1.97 2.036-2.984.601-.848.886-2.085 1.152-3.255v-3.25c-.13-.584-.428-1.627-.274-2.374.248-1.151-.205-2.805.072-4 .335-1.46.34-4.102 0-5.56-.027-.952-.048-1.898-.072-2.845-.04-.215-.154-.606-.202-.816v-1.564c-.09-.415-.176-.989-.266-1.42v-2.236a8.351 8.351 0 0 1-.208-1.965v-3.327c.123-.534.5-2.6.34-3.252-.071-.295-.268-.652-.34-.952v-2.71c.006-1.268.602-3.813.139-4.948-.32-.764-.964-1.213-1.837-1.423-.772-.189-1.504.327-1.895-.205-.202-.255-.176-.901-.072-1.29.266-.978.713-1.917 1.153-2.706.732-1.322 1.567-2.247 2.581-3.258.338-.34.68-.675 1.02-1.016.753-.54 1.56-.853 2.371-1.359.163-.156.314-.313.477-.47h2.989c.277.521.947.742 1.421 1.085.836.595 1.66 1.54 1.97 2.643.018.497.042.994.069 1.492.418 1.866.269 4.507.269 6.778 0 4.653.112 9.381-.746 13.086-.202.864.02 1.9-.135 2.643-.139.649.229 1.17.338 1.63-.024.633-.043 1.263-.07 1.896.216.989.15 2.183.344 3.053.207.952-.115 2.05-.274 2.776-.306 1.398.3 2.943 0 4.273-.17.752-.306 1.678-.471 2.441-.136.585-.072 2.295.066 2.776.123.431.429.846.54 1.29.147.59-.167 1.165-.271 1.56-.024.429-.043.86-.067 1.288 0 3.122.099 6.38-.479 8.881-.33 1.455-.06 3.612.21 4.814v2.917c0 2.552-.034 4.996-.478 6.983-.28 1.23.308 3.475 1.022 3.73.465.373 1.471-.029 1.897-.202 1.488-.622 3.708-1.034 5.02-1.832.52-.316 1.075-.654 1.56-1.018.636-.655 1.27-1.309 1.9-1.963.389-.279.823-.343 1.291-.545.99-.433 2.044-1.082 2.923-1.697 2.89-2.031 5.387-4.39 9.358-5.355.908-.22 2.688.745 3.532.95h2.712c.596.135 1.238.18 1.768.406.545.229 1.056.646 1.626.88 1.924.8 3.45 1.059 2.715 3.731-1.49.827-3.101 1.49-4.546 2.372-4.102 2.505-7.993 5.233-11.946 7.866-.503.338-1.046.54-1.56.883-.67.444-1.141 1.183-1.626 1.824-.229.205-.452.412-.679.611-.668.67-1.25 1.272-2.038 1.833-.525.372-1.01 1.04-1.832 1.087a1.226 1.226 0 0 1-.069-.41c.458-.457.761-1.105 1.158-1.627.564-.542 1.129-1.082 1.69-1.622.655-.87 1.427-1.64 2.039-2.513.623-.88.913-2.047 1.562-2.914.232-.311.634-.513.95-.745.903-.678 2.002-2.675 1.832-4.206-.184-.12-.242-.256-.477-.338-.268-.216-1.168-.192-1.56-.067-.793.25-1.397.817-2.038 1.22-.37.232-.75.333-1.153.543-1.94 1.006-4.184 1.782-6.374 2.508-1.555.51-3.019.737-4.48 1.353-1.126.474-2.23 1.128-3.191 1.766-.447.298-.916.516-1.288.88-1.454 1.423-1.06 4.359-3.189 5.154-.468.17-1.259.066-1.837.066-1.474 0-3.162.075-4.34-.202-.597-.14-1.26.104-1.696.202-.407.024-.815.045-1.224.07-.794.215-1.927.489-2.713.816-2.81 1.151-4.716 3.247-6.99 4.943-1.04.777-2.051 1.768-3.32 2.308-.432.181-.93.303-1.36.404-.568-.02-1.135-.042-1.699-.066-.908.226-2.867 1.361-4.006 1.085-5.384-1.298-9.768-4.553-11.804-9.222-.855-1.962-1.195-4.3-1.765-6.507-.482-1.87-.38-4.023-.814-5.898v-2.239c-.192-.787-.591-1.327-.746-2.167-.194-1.059.847-2.473.477-3.936-.221-.853-.727-1.502-.956-2.438v-4c-.154-.699-.109-1.563-.338-2.305-.284-.939-.9-1.585-1.288-2.372-.133-.455-.271-.904-.404-1.356a9.287 9.287 0 0 0-.887-1.356c-.109-.147-.63-.389-.676-.474v-1.087zM399.872 185.633c-.857 1.226-1.962 2.45-3.434 2.694-.615 0-1.105.492-1.6.37-.362.122-.976.364-1.344 0-1.11-.37-.247-1.47-.495-2.207.495-.49 0-1.223.612-1.715.373-1.716 1.845-2.82 2.947-4.167.49-.245.857 0 1.474 0 .983.611 1.1 1.84 1.717 2.696 0 .856.37 1.596.123 2.33m25.64-6.866c0-.49.489-.245.489-.615-.37-1.1-1.105-1.96-1.962-2.693-.247 0-.49-.367-.86-.123-.734-.12-.37-.856-.857-1.226-1.104-.244-1.839-.859-3.068-.859-.983-.611-2.207-.736-3.189-1.1-1.842.364-3.926.733-5.765.853-1.102.74-2.457.375-3.559 1.229-1.104.37-2.824.247-3.803 1.226-1.595 1.225-3.679 1.225-5.276 2.326-1.471-.242-2.206.862-3.678.492-.373-.244-1.107-.492-.737-1.103.86-1.226 1.352-2.207 2.576-3.186.123-.984 1.47-.984 1.225-2.085h.244c.123-.611.983-.122 1.353-.734.125-.734 1.104-.859 1.719-1.226.612-.98 2.332-.858 2.206-2.329-.244-.979-.982-1.348-1.594-1.962-.612-.367-1.227.127-1.961 0-1.6 1.717-3.682 2.329-5.52 3.31-.988-.122-2.457.615-2.95-.492-.12-1.345.618-2.818 1.475-3.92 0-1.103.98-1.467 1.35-2.329.856-.489.492-1.35 1.468-1.837 1.23.122 2.332-.614 3.317-1.348l.245.122c.86-.487 1.104-1.593 1.35-2.452-.98-2.327-3.682-.614-5.274-2.204-.37-.37-.37-.984-.37-1.47.248-.86.98-1.721 1.84-1.84 0-.982 1.102-1.104 1.716-1.594.738-.122 1.108-.981 1.962-1.226 1.472-1.715 4.051-1.962 5.28-4.047.488-.364.733-1.1 1.467-1.348 0-.367 0-.609-.122-.976-.612-1.84-2.574-1.103-4.049-1.228-.976.858-1.836 1.473-2.45 2.451-.618.125-1.105.615-1.718 1.101-.74 0-1.104.737-1.964.737-.612.981-1.842.736-2.699 1.106-.985.737-2.087.856-3.31 1.104-.49-.125-1.105-.125-1.353-.615-.122-.981.495-1.718.122-2.696.245-.737.74-1.593.493-2.207l.495-.49c.117-1.595 1.466-2.574 1.589-4.289.615-.614.86-1.228 1.102-1.965.74-.731 1.104-2.08 2.092-2.69.365-.738.857-1.352 1.224-2.088h-.245c-.37.861-1.102 1.35-1.594 2.087-.615 1.223-2.09 1.223-2.454 2.571-1.472.857-1.227 2.575-2.329 3.678 0 1.346-1.35 2.082-1.35 3.186-1.232 1.47-1.477 3.677-1.107 5.518.615.489 0 1.225.245 1.957.37.736.615 1.226 1.35 1.717.615.245 1.104-.244 1.72.245 1.59 0 2.94-1.47 4.54-.736.12.491-.245.736-.245 1.225-.86 1.104-1.72 2.207-1.107 3.678.615 1.1 1.961 1.473 2.454 2.699-.245.364-.123.734-.493.979-1.346.37-1.346 1.962-2.573 2.571 0 .492-.128.984-.493 1.229-1.35.247-1.472 2.082-2.574 2.696-.125 1.345-.862 2.574-1.716 3.553 0 1.225.24 2.207.854 3.188.862 1.226 2.087-.122 3.189.12.612.122.49.858.612 1.225-.977 1.599-2.204 3.189-3.186 4.904-.12 1.595-1.717 2.452-2.577 3.8-.125 1.103-1.469 1.715-1.594 2.819-.122.983-1.472 1.348-1.472 2.329-.857.367-.857 1.715-1.842 2.082-.612 1.596-2.206 2.821-2.331 4.414-.612.248-.242.979-.123 1.348-.364 1.101.615 1.593 1.108 2.327.367.245.734.612 1.224.612.615-.367.982-.976 1.474-1.468 0-1.104-.122-1.84.365-2.571l-.245-.128c-.12-.245.128-.487.37-.487 0-.736.612-1.106.86-1.593 0-1.103.737-1.595.86-2.576.854-.49.487-1.47 1.102-2.205.49-.489.737-1.593 1.716-1.593 1.352.857.368 2.939.49 4.167.367.612.495 1.349 1.11 1.713.365.247.854.125 1.102-.12.977.245 2.081.614 2.818-.244 1.965-.245 3.804-.737 5.396-1.84 1.107-.123 1.844-1.349 2.334-2.205.615-.49.37-1.104.734-1.718-.12-.856.126-1.84-.364-2.694.245-1.473-1.842-2.084-1.842-3.433.245-.858 1.23-1.473 2.087-1.592 1.594-1.104 3.436-1.346 5.153-1.96.734-.74 1.839-.614 2.696-.862 1.844.248 3.311-.856 5.153-.242.737.49 2.087.365 3.066.615 1.475 1.103 3.189 1.22 4.296 2.935v.125c.245.245.365.86.857.734-.367.492.125 1.229.125 1.84.487.734.365 1.96.365 2.822-1.592 1.712-2.33 4.409-4.168 6.126-1.353.857-1.72 2.694-3.312 3.064-1.104 1.103-2.576 2.204-3.928 2.696-.37.245-.857.367-.735.737-.122-.123-.247 0-.37-.123-.854.734-2.329.612-2.699 1.713.123.128.37-.12.493-.12.49-1.103 2.087-.125 2.576-1.35 1.472-.12 2.574-1.224 3.804-1.716.86-1.1 2.451-.614 3.188-1.837.735-.248.857-1.226 1.595-1.104 1.472-1.226 3.191-1.96 4.296-3.677.122-1.593 1.591-2.45 1.469-4.167 0 .122-.242.122-.242.122-.128 0-.128-.122-.128-.245.128-.12.247 0 .492 0 .74-1.47.368-3.185.123-4.534-.368-.247-.735-.122-.735-.491M427.476 160.507c-.857-1.224-1.72-2.45-3.437-2.327-.982-.981-2.454-.86-3.68-.614.244.614 1.104.736 1.226 1.345.615.495 1.105 1.106 1.225 1.963-.732 1.47-2.452 2.451-3.679 3.433 1.105-.123 1.965-.86 3.19-.367 1.346-.492 3.555 0 4.785-1.471.37-.492.492-1.348.37-1.962"/>
        <path fill="#FFF" d="M369.072 107.539c-.623.39-1.408.074-2.305.287-1.32.311-2.933.548-4.32.957-6.758 2.01-14.442 3.332-17.945 8.539-.732 1.085-1.924 2.125-2.308 3.542-.258.968.703 3.797 1.057 4.321.634.925 1.368.543 2.59.859 2.757.718 7.788.346 10.178-.386 2.861-.872 5.462-1.67 8.06-2.778 1.021-.434 2.089-1.115 3.074-1.628.825-.433 1.703-.66 2.49-1.151.85-.527 1.853-1.327 2.788-1.729 1.227-.526 2.597-.497 3.646-1.148 1.908-1.181 3.548-2.806 5.377-4.026.875-.59 2.302-1.048 2.877-1.92.327-.413.154-1.258.096-1.822-.192-.191-.384-.383-.575-.577-.192-.096-1.528-.327-1.728-.38h-2.685c-.16-.043-.53-.25-.671-.29h-1.924c-2.22-.55-5.055-.657-7.772-.67m-15.07 30.205v-.29a2.297 2.297 0 0 1-.48-.383h-1.535c-.506.718-1.214.71-2.497.673-.287-.79-.796-.516-1.632-.766-1.133-.345-2.592-.763-3.742-1.247-1.791-.758-3.678-1.888-5.278-2.877-.801-.497-1.887-.774-2.4-1.537-.413-.606-1.057-2.016-1.345-2.683-.096-.32-.189-.64-.287-.96-.104-.152-.485-.154-.575-.287v-3.258c.777-.228.737-.87 1.152-1.44.99-.96 1.98-1.918 2.973-2.878.203-.274.253-.62.482-.862 1.214-1.29 2.478-2.489 3.937-3.544.54-.58 1.086-1.154 1.629-1.729.213-.154.45-.135.67-.287.652-.45 1.251-1.191 1.922-1.63.42-.277.913-.314 1.342-.577.465-.28.915-.734 1.44-.96.518-.218.998-.202 1.44-.476.673-.42.614-1.074 1.056-1.726.248-.367 1.115-.997 1.536-1.151 1.315-.482 2.547-.444 3.745-.963.678-.295 1.163-.912 2.015-1.149 1.056-.29 1.972-.024 3.071-.287 1.475-.353 3.455-.569 4.892-.96h1.826c1.78-.481 4.41-.37 6.242-.861h2.3c1.908 0 4.194-.085 5.663.29h1.728c.13.031.447.25.577.281h1.44c.926.253 3.074 1.213 4.317.867 2.236-.63 4.038-2.898 5.281-4.603.349-.319.7-.643 1.054-.957.916-1.258 1.895-2.282 2.973-3.359.45-.417.9-.83 1.344-1.247 1.291-1.861 2.281-3.869 3.362-5.943.55-1.064 1.171-2.202 1.73-3.263.234-.449.303-.91.572-1.34.855-1.375 1.898-2.324 2.398-4.124.195-.684.589-3.048.29-3.933-.292-.87-1.12-.95-1.919-1.343-2.368-1.165-4.245-1.848-7.298-.67-1.32.51-2.755 1.324-4.219 1.726-1.527.423-3.207-.349-4.514.191-.982.407-1.788 1.207-2.781 1.63-2.35 1-4.85 1.306-7.2 2.303-1.549.66-2.794 1.827-4.514 2.3H375.5c-.126.035-.448.256-.575.285h-2.399c-.135.037-.476.26-.574.29h-2.018c-3.295.768-9.21.465-11.517-.764-.942-.502-1.924-.728-1.919-2.204 1.054-.686 2.052-1.662 3.072-2.401 2.728-1.97 5.363-3.888 8.062-5.848l2.302-2.398c.287-.269.626-.343.96-.575.366-.258.499-.79.767-1.148.578-.548 1.153-1.088 1.728-1.633.734-1.058 1.54-2.096 2.212-3.167.785-1.263 1.078-2.79 1.916-4.023.256-.224.511-.45.767-.673 1.253-1.678 2.637-3.306 3.744-5.082l.671-1.534c.208-.34.604-.668.77-1.056.75-1.758 1.4-3.529 1.918-5.464v-1.248c.099-.417.283-.986.384-1.438.354-1.58-.674-2.939-.384-4.122.195-.574.384-1.151.578-1.728.237-.367.799-.5.96-.958.03-.385.06-.765.097-1.154.17-.45 2.015-2.54 2.491-2.587.293.8 1.131.667 1.922.96 1.61.593 3.162 1.167 4.604 1.917.967.497 2.875 1.753 3.458 2.59.849 1.22 1.977 3.016 3.17 3.837 1.834 1.269 4.655 2.178 5.086 4.792.04.282-.726 3.02-.865 3.454-.032.415-.066.83-.096 1.245-.497 1.792-1.163 4.023-2.496 4.986-.573.415-1.206.468-1.922.766-1.294.55-2.694 1.156-3.835 1.92-2.194 1.462-3.868 3.494-5.38 5.658-.91 1.306-3.63 1.138-3.164 3.547 2.108.998 4.474.288 7.008.288 2.755 0 5.028-.415 7.293-.96h2.496c1.38-.367 3.559-.287 5.374-.287 1.51 0 3.22-.006 4.317.287.663.178 1.467-.157 2.018.098 2.606 1.194 5.858 4.89 6.814 7.768.173.518.276 1.1.383 1.531v2.303c.556 2.143.085 4.845-.383 6.807-.259 1.09-.144 1.99-.48 2.976-.29.843-.891 1.2-1.34 1.819-.59.8-1.124 1.774-1.635 2.587-1.376 2.218-2.145 4.864-3.36 7.193-.734 1.41-1.428 2.904-2.304 4.22-.551.83-1.586 1.367-1.634 2.689.247.127.34.18.772.186.279-.298.58-.457 1.15-.476 2.336 2.268 8.695 1.486 12.285 2.587.91.277 1.741.904 2.593 1.152h.77c1.615.417 4.02.803 5.28 1.632 1.182.769 1.594 2.194 2.398 3.354l1.533 1.438c1.094 1.12 2.156 2.25 3.263 3.356 1.661 1.66 3.061 3.082 4.514 4.989.13.17.562.226.668.38v2.973c-.827.255-.705 1.111-1.152 1.728-.668.931-1.895 1.194-3.165 1.535-1.259.335-4.77-.067-5.661-.29h-2.308c-1.775-.439-4.181-.556-5.951-.958h-2.108c-1.704-.449-4.373-.287-6.526-.287h-2.207c-2.632-.476-5.608-.359-8.062.287h-1.538c-1.193 0-2.423.006-3.357.192v-.096h.093c.714-1.016 2.904-1.699 4.033-2.398 2.05-1.269 4.274-2.561 6.332-3.835.828-.513 3.545-1.513 3.84-2.3.815-1.136-.713-3.872-1.152-4.507-2.052-2.957-4.16-4.606-9.212-4.603-1.158 0-1.983.042-2.787.383-3.01 1.279-5.115 3.286-7.58 5.084-.351.38-.705.763-1.054 1.149-.508.35-1.04.505-1.538.864-.445.322-.818.774-1.345 1.056-.723.38-1.825.59-2.398 1.151-.207.197-.213.519-.386.76-.827.835-1.663 1.665-2.488 2.497-3.482 2.521-7.74 4.205-12.385 5.56-2.614.767-4.988 1.056-7.583 1.825-.95.28-2.028.787-2.88 1.151-.58.157-1.15.317-1.73.476-1.21.516-2.409 1.463-3.644 1.92-.96.354-2.262.107-3.263.383-1.573.434-3.04.93-4.993.957-.37.562-.623.708-1.632.673M130.577 166.466v.795c-.24.123-.205.173-.585.226.016-.42.117-.72.229-1.02h.356zm.567-.45c-.09.299-.035.246-.346.328.088-.311.027-.25.346-.327zm-6.401 7.29c.146-.705.386-.83.92-1.138v-.112c.147-.048.294-.088.453-.115.083-.111.147-.228.232-.34.53-.534 1.168-.955 1.363-1.832h.226c.194-.346 1.027-1.186 1.488-1.245-.043 1.107-.913 1.141-1.134 2.043h-.237c-.343.31-.687.614-1.025.914-.112.258.13.46.115.575h-.115c-.042.143-.077.303-.112.452-.08.032-.151.08-.234.109v.34h-.106c-.152.194-.314.391-.46.583h-.227l-.226.226v.231c-.272.226-.535.452-.801.683-.2.272-.384.53-.573.796h-1.362v-.12h-.12v-.333c-.112-.071-.224-.151-.354-.234v-.449c-.11-.074-.224-.146-.338-.229v-1.824H122v-.231a.862.862 0 0 0-.226-.115v-2.855h.115v-.221H122v-.34h.115v-3.548a3.43 3.43 0 0 0 .338-.229v-.109h.242a3.29 3.29 0 0 1 .232-.348h.338c.032.117.066.231.111.348.144.165.195 1.67.112 2.048 0 0-.144 0-.112.237h.112v.563h-.112v.224c-.08.048-.146.085-.223.117v.231h-.117c.034.298.08.606.117.915.005.787-.072 1.8.112 2.401v.68h.111v.232h.112v.67h.115c.207.423.207.54.796.583.138-.2.08-.16.343-.234zm-.112-20.867c.032.53.077 1.05.112 1.588-.147.109-.304.228-.453.337v.468h-.117v.346a.864.864 0 0 0-.229.112v.45h-.111c-.048.236.247.935.111 1.363h-.111v.36h-.12v.223h-.11c-.031.486-.082.989-.114 1.473h-.112v.226h-.111v.691h-.112c-.037.232-.083.458-.117.686.479.173.66.13.676.795-.304.136-.402.136-.447.564.223.168.215.2.223.585h-.223c-.094.474-.011.63 0 1.247h-.338c-.05-.08-.086-.16-.12-.226-.112-.029-.224-.082-.354-.122v-3.529h.13v-.236h.112v-.567h.112v-1.244h.12c.032-.16.056-.309.109-.474h.117v-1.239c.077-.042.144-.085.223-.125v-.226h.112v-1.133c.083-.042.152-.082.224-.114v-.223h.12v-.811h.111c.035-.144.083-.303.117-.458h.112v-.566l.117-.11c.11-.047.224-.084.341-.11zm0-1.151h.338c-.035.194-.07.39-.106.58h-.349c.045-.19.082-.386.117-.58zm.232-.678v-1.258c.287-.154.439-.362.8-.46v.114c.227.202.227.466.227.92-.375.16-.524.311-.692.684h-.335zm2.848-8.9v1.821h-.115v.24c-.18.143-.378.295-.567.451v1.37h-.112v.215c-.08.05-.151.09-.234.123v.574c-.077.035-.144.07-.223.117-.035.18-.078.367-.112.564h-.117v.348h-.115c-.077.215-.16.442-.226.678h-.34v-1.133c.114-.09.226-.164.34-.231.037-.226.067-.452.117-.691.077-.038.144-.072.224-.117.032-.181.085-.373.117-.57.077-.037.146-.066.229-.108v-1.022h.106v-.23c.083-.043.155-.078.234-.113v-.356c.112-.064.227-.143.336-.218v-1.486c.207-.112.186-.155.458-.226zm2.171-5.813c.088.308.035.247.339.34a9.65 9.65 0 0 1-.112.566c-.064.035-.141.078-.227.117-.034.3-.077.61-.111.902-.354.077-.477.12-.573.473-.167.194-.029.497 0 .904h-.34v.117h-.11v.676h.11c.032.234.08.46.114.686-.082.045-.146.08-.223.127v.681h-.117v.224c-.605-.03-.437-.179-1.036-.224.01-.526.045-.513.232-.808h.109v-.686h.117c.043-.141.077-.306.12-.45h.117c.032-.305.066-.614.114-.91a.749.749 0 0 1 .227-.11c.037-.227.066-.455.117-.7h.109v-.226h.114v-.567h.112v-.452c.08-.034.157-.08.226-.117.224-.279.139-.452.572-.563zm1.715-4.452c.037.192.082.388.117.57h-.346v.106h-.11v.805c-.034.048-.164.019-.236.34.157-.04.306-.074.463-.108v.109h.112v.34c-.112.04-.23.083-.338.117-.195-.034-.386-.077-.567-.117v.117h-.115v.457h.567v.45c-.18.064-.189.09-.452.117-.139-.194-.086-.144-.354-.229-.125.242-.184.202-.23.58h.113v.457c-.203.104-.176.144-.45.229v-1.377h.111v-.227h.11v-.343h.117v-.34c.08-.032.151-.082.229-.109v-.231h.122v-.58c.072-.043.146-.066.232-.114.032-.181.066-.373.106-.567h.11c.215-.276.236-.404.689-.452zm.231-.798v.46c-.114.022-.231.08-.343.104v-.45c.112-.034.229-.079.343-.114zm12.097-5.477h.354c.035.199.07.375.112.569h.12c.391.462 1.088.399 1.134 1.263-.296.191-.24.314-.23.784h-.337v-.103h-.117v-.34c-.08-.049-.157-.086-.227-.128v-.213c-.127-.077-.223-.16-.343-.242v-.232h-.112v-.79h-.125c-.138-.217-.173-.217-.229-.568zm36.547.109v.231c-.287.045-.418.096-.809.112-.09.154-.08.138-.218.236.032.107.069.221.104.34.316.035 1.224.152 1.602 0 .032-.076.082-.154.117-.233.338-.03.681-.083 1.02-.107.031-.2.082-.38.117-.58.417-.031.843-.074 1.261-.108.067-.11.152-.23.229-.338h.793c.083-.122.15-.231.226-.343h.456v-.114h.117v-.578c-.49-.257-.703-.241-1.48-.226-.34.548-.274.123-.692.34l-.556.69h-.81c-.069.109-.149.23-.229.34h-.795v.12c-.195.127-.195.156-.453.218zm-67.486-2.614c.019.385.102.52.344.675.167.176.63.298.918.34.202-.396.226-.574.226-1.25-.138-.13-.045 0-.112-.223-.809 0-.79.32-1.376.458zm121.142-.91h.91c.128.176.23.373.341.567h.226v.109c.083.037.157.085.237.114v.686c.067.043.152.077.232.11v.23h.112v1.939c-.259.096-.629.112-1.02.112-.16-.234-.447-.561-.695-.681h-.343c-.035-.08-.08-.157-.109-.231h-.232v-.11h-.686l-.12-.111c-.237-.537-.343-.729-.343-1.606.162-.11.308-.218.463-.338v-.114h.455c.197-.224.378-.46.572-.676zm-126.06 0c.633.008 1.21-.013 2.065 0 .07-.189.09-.194.112-.465-.415-.25-.455-.537-1.134-.574v.117h-.351c-.038.077-.072.156-.117.226-.23.085-.445.16-.684.23.045.155.082.304.109.466zm82.324-1.154c-.51 0-.593.107-.905.232h-.333c-.05.077-.085.156-.122.226-.34.085-.692.16-1.035.23-.173.325-.317.402-.341.918.484.25.716.24 1.498.224.187-.224.368-.46.56-.676.42-.24.377.282.572-.356h.106v-.798zm-49.44-.22h.46c.075.188.11.356.11.678h-.34v-.112c-.123-.125-.04 0-.113-.231h-.117v-.336zm25.59-3.649v.338c.35.178.204.213.795.231v-.117h.455v-.114h.11v-.338c-.557-.056-.82-.096-1.36 0zm-35.398-1.949v.346h-.122v.114h-.33v-.346h.106v-.114h.346zm114.629-.675c.32.08.26.037.343.345h-.343v-.345zm-43.845.452c.08.33.205.287.24.337v1.606h.1v.23c.077.036.163.063.232.108v.343h.12v.343h.12c.029.146.063.303.098.452h.125c.032.19.067.38.114.57h.11c.197.236.367.345.457.693.469.112.442.34.682.681h.114c.083.112.157.229.226.338.17.135.078-.08.227.12h1.496v-.12h.226c.032-.08.072-.144.106-.226h.799c.197-.226.388-.452.58-.681h.681v-.112h.227c.034-.077.087-.165.12-.226.191-.048.385-.08.569-.122.271-.298.532-.606.793-.915a9.5 9.5 0 0 0 .575-.111c.037-.08.072-.147.117-.224.309-.268.602-.537.908-.803.034-.072.082-.151.112-.226h.346c.146.216.106.18.452.226-.053.428-.226.548-.452.803-.072.03-.15.077-.224.11-.035.196-.088.374-.122.566-.394.093-.756.33-1.02.574-.045.074-.08.152-.117.237h-.224l-.24.223c-.034.117-.068.229-.11.343-.18.032-.379.083-.576.112-.37.42-.756.83-1.134 1.25-.306.05-.615.085-.918.114-.035.072-.072.165-.112.226h-.231v.117h-.341c-.192.24-.37.455-.564.691h-.346v.115h-.226c-.046.08-.078.146-.115.223h-1.602c-.378-.628-.469-.066-1.025-.338-.306-.337-.612-.691-.918-1.034a6.35 6.35 0 0 1-.57-.114 4.641 4.641 0 0 0-.234-.343h-.104v-.336h-.117v-.228c-.192-.146-.375-.311-.562-.455v-.68h-.122v-.232c-.072-.04-.157-.082-.226-.122v-.564h-.112v-.231a3.66 3.66 0 0 1-.229-.115c-.037-.109-.08-.226-.114-.337h-.464c-.22.494-.188.305-.574.563-.304.232-.102.404-.682.458-.03-.338-.077-.684-.109-1.021h.11v-.232h.116v-.68c.08-.046.147-.072.23-.115.111-.157.225-.3.335-.465h.117v-.226a1.21 1.21 0 0 0 .226-.117v-.221h.112v-.231c.085-.038.165-.077.242-.112.266-.42-.045-.64.567-.795.434-.415 1.288.237 1.709.338zm-70.784.114v-.68c.115-.046.224-.083.34-.11v-.117h.344c.088.12-.013.01.11.117v.224c-.315.183-.381.452-.794.566zm3.426-2.165h-.344c.022-.279.035-.292.112-.46.117.038.232.085.346.115-.035.117-.08.228-.114.345zm49.543.809v-.245c.237-.03.466-.069.692-.117.032-.069.075-.146.11-.223h.455v-.115h.117v-.683c-.21-.072-.447-.109-.799-.109-.26.338-.535.683-.793 1.021-.117.04-.229.08-.346.11v.36h.117v.112c.152-.047.306-.082.447-.111zm-12.666 2.148h.574v-.106c.13-.082.445-.3.685-.231.223.069.41.545.912.337.043-.063.078-.143.107-.223.343-.183.583-.056.91 0-.034.28-.1.423-.114.803.114.043.231.067.343.112v-.112c.232-.149.197-.122.24-.465h-.115v-.338c.12-.096.01.01.115-.114h1.25a1.7 1.7 0 0 0 .115-.232c.442-.146.426.357.799.12h.103v-.457a29.073 29.073 0 0 0-.79-.676h-.682v-.117h-.228a2.965 2.965 0 0 0-.115-.226c-.186-.045-.386-.08-.567-.112v-.111c-.072-.053-.16-.083-.237-.123v-.239h-.117v-.223c-.114-.032-.223-.072-.346-.115-.109-.146-.22-.305-.333-.454h-.452v-.115c-.165-.114-.351-.186-.455-.337-.12.032-.229.08-.343.114-.046.109-.08.223-.11.338h-.13c-.024.186-.07.383-.104.569h-.114v.223h-.117v.24h-.11v.571h-.111v.226c-.16.115-.31.229-.463.34-.224.34-.07.796 0 1.133zm62.229-4.778c.034.183.077.372.111.564.232.037.232.117.232.117h1.36c.043.082.077.151.11.228.199.027.388.08.585.115.029.08.066.151.112.223h.228v.114h.796c.08.115.147.232.226.343h.69v.117h.234c.037.072.067.152.112.224h1.136v.114h.232c.03.08.077.157.11.226h1.716c.034.083.069.162.117.245h.224v.111h1.368c.08.112.157.224.234.338.34.16 1.237-.024 1.594.117v.338c-.545.069-.34.213-.793.338v-.226c-.16-.035-.309-.078-.46-.112-.078.112-.166.231-.216.338-.09.037-.173.082-.245.114a2.205 2.205 0 0 1-.114.223h-.799c-.125-.173-.492-.52-.91-.337a2.542 2.542 0 0 0-.115.223h-.229v.114h-3.771a4.198 4.198 0 0 0-.229-.337h-.796c-.072-.107-.146-.226-.234-.338h-1.126c-.082-.114-.162-.229-.242-.338h-1.483c-.04-.082-.074-.165-.109-.231h-.231v-.112a13.15 13.15 0 0 0-.687-.112c-.12-.194-.229-.385-.351-.582h-.905c-.192.269-.062.08-.344.226v.122h-.332a1.14 1.14 0 0 0-.12.234 9.194 9.194 0 0 0-.578.112v.112h-.226c-.035.066-.07.149-.114.231h-.341c-.035.064-.07.144-.115.224h-.228v.114h-.68v.112h-.225a2.04 2.04 0 0 0-.118.226c-.16.037-.303.082-.468.114-.032.077-.066.152-.098.223h-.469v.12h-.229a1.62 1.62 0 0 1-.112.226h-.335v.117h-.234c-.035.072-.07.149-.115.22a8.506 8.506 0 0 1-.564.118c-.048.08-.082.154-.12.226-.18.045-.386.077-.575.122a6.876 6.876 0 0 0-.106.231c-.192.03-.383.064-.578.112-.037.07-.066.149-.111.226h-.684v.117h-.227c-.048.064-.082.149-.114.226h-.343v.112h-.224c-.048.08-.08.149-.128.231-.178.035-.372.075-.556.115-.043.071-.077.146-.125.228h-1.014v.11h-.237v.114a3.393 3.393 0 0 1-.34.111c-.33-.492-.365-.12-.805-.335a1.539 1.539 0 0 0-.117-.228c-.18-.04-.372-.08-.564-.115-.085-.117-.154-.231-.234-.343a2.179 2.179 0 0 0-.793-.343c-.035-.226-.078-.457-.115-.691a2.548 2.548 0 0 1-.223-.107v-.35h-.118v-1.014c-.308-.162-.487-.231-1.035-.231-.059.112-.224.191-.224.231-.12.33-.228.676-.343 1.013-.226.2-.458.386-.679.58-.127.218.067.433-.117.57h-.34c-.386.18-.163.31-.81.342.054-.117.083-.226.107-.343h-.107c-.031-.157-.085-.308-.114-.457.333-.19.325-.391.812-.46v.12h.338c.114-.152.231-.31.338-.458h.114c.04-.149.075-.308.117-.463.078-.026.144-.071.221-.114v-.899h.12v-.117h.567c.043-.077.08-.165.117-.226.141-.096.485-.106.575-.223v-.47c.07-.038.152-.07.237-.115v-.224h.106v-.228c.31-.561.503-.58 1.363-.57.237.195.458.376.684.57.045.452.083.914.117 1.372.08.037.16.066.235.114v.226h.1c.049.46.083.904.131 1.367.221.043.453.072.679.106v.115c.263-.035.53-.072.793-.115 0 0 .104.176.349.115v-.115h.564a.974.974 0 0 0 .112-.223h.242v-.114h.567a2.06 2.06 0 0 1 .114-.232c.144-.026.31-.071.455-.114.08-.11.15-.223.224-.33h.81c.068-.12.146-.231.217-.345h.453c.08-.115.16-.224.242-.34h.913c.03-.078.072-.166.099-.227.151-.045.316-.08.46-.112.083-.111.152-.234.232-.356h1.147c.069-.117.149-.226.231-.34h1.131c.051-.072.08-.152.118-.224.226-.082.457-.16.694-.228.035-.088.07-.147.11-.232h.8c.035-.074.08-.143.11-.223.197-.035.378-.082.567-.114.05-.088.085-.157.122-.23.189-.031.38-.07.567-.113.043-.08.075-.16.114-.23.344-.313.453-.433 1.148-.451zm-115.553 8.443c-.146.805-.441 1.02-.45 2.042.421.226.663.237 1.369.226.183-.255.06-.075.335-.226v-.114c.226-.101.455.085.578-.112v-.231h.114v-.336c.966.006 1.352-.228 1.82-.683.083-.114.16-.226.227-.343.194-.043.388-.074.58-.112.032-.077.064-.165.112-.226.176-.048.378-.08.57-.122.037-.07.069-.149.111-.231.224-.038.455-.067.684-.115.117-.146.227-.295.341-.45.149-.039.311-.068.455-.119.083-.111.16-.226.229-.335.194-.04.391-.082.578-.117.071-.111.151-.226.231-.343h.224v-.114h.229v-.112h.34v-.117h.344c.074-.191.16-.383.223-.564.16-.045.309-.08.46-.12.038-.068.075-.156.11-.233h.237v-.107h.343c.08-.12.152-.236.232-.35h.223c.386-.213.37-.304 1.02-.338.14.125 0 .042.229.114v.223h-.112c-.227.28-.455.535-.684.811h-.793c-.16.181-.31.373-.458.564h-.12v.343c-.176.232-.514-.024-.801.117-.035.075-.067.141-.11.226-.343.303-.683.601-1.027.91-.032.077-.077.16-.109.226h-.458c-.133.133 0 .04-.24.122v.231h-.795c-.075.123-.192.165-.224.226v.229h-.117c-.18.37.17.125-.229.452v.112c-.231.037-.455.082-.678.117-.08.109-.15.228-.23.338h-.228c-.048.08-.08.148-.112.226h-.242v.117c-.306.207-.2-.099-.338.34-.261.069-.274.098-.455.226v.117h-.341c-.07.117-.154.24-.229.354-.25.239-.628.356-1.022.452v.223c-.32.088-.258.035-.34.338-.275.072-.285.106-.47.231v.117h-.452a4.766 4.766 0 0 1-.228.34h-.456c-.082.11-.146.226-.229.34h-.335c-.048.073-.082.155-.117.227h-.226v.125h-.692l-.117.112c-.043.148-.054-.038-.112.114v1.021h-.115v.112c-.194.037-.375.085-.567.117-.034.082-.08.143-.114.226-.298.279-.535.627-1.025.68-.194-.226-.386-.446-.585-.68h-.221c-.037-.083-.072-.144-.115-.226h-.223v-.117h-.23c-.082-.112-.148-.221-.225-.343h-.117v-.904h-.115v-.237c-.08-.032-.141-.072-.229-.114v-.227h-.109v-.226a4.124 4.124 0 0 1-.346-.23v-.11h-2.055c-.38.58-.58.09-1.144.34a15.64 15.64 0 0 1-.232.34h-2.387v-.114c-.264-.103-.445-.087-.815-.117.056.304.088.612.123.92-.067.04-.152.07-.224.11V128.932h-.12c-.034.197-.069.389-.117.564h.117v.476h.12c.141.473-.013 1.112.101 1.473.234-.072.11.003.234-.117.352-.093.445-.271.69-.45v-.116c.186-.035.378-.08.572-.115.096-.385.546-.763.799-1.042.077-.03.146-.064.226-.109.1-.146-.048-.359.112-.45h.455c-.032.235-.07.45-.117.687a4.269 4.269 0 0 0-.338.239c-.035.178-.064.362-.112.553-.08.045-.15.088-.226.122v.46c-.115.08-.221.144-.341.221-.309.343-.602.686-.91 1.019-.163.117-.314.231-.472.356-.029.149-.063.295-.109.455-.327.069-.444.18-.684.34v.11h-.91c-.17-.27-.495-.325-.796-.45v-1.037a2.037 2.037 0 0 1-.237-.107v-.231h-.117v-1.473c-.01-.357 0-1.367 0-2.064V126.2c.083-.038.163-.077.242-.12v-.22h.112v-1.596h.115v-.24c.066-.04.151-.069.229-.111.031-.232.08-.452.111-.68.07-.035.157-.083.23-.118v-1.598h.111v-.226c.083-.045.15-.072.229-.117v-.793c.226-.199.452-.374.681-.571v-.793c.083-.048.157-.08.221-.122v-.231h.123v-2.048c.111-.077.223-.157.34-.226v-.808c.11-.072.235-.15.352-.221v-.907h.109c.04-.154.072-.308.12-.46.18-.154.372-.303.57-.452.031-.08.074-.16.114-.223.226-.083.452-.162.676-.245.085-.117.165-.226.229-.34h.57c.361.59.468.31.468 1.375-.549.364-.107.489-.354 1.02-.07.043-.15.083-.23.115v.223c-.068.043-.148.08-.215.115v.236a7.063 7.063 0 0 1-.24.107v.465h-.111v.226c-.08.035-.15.075-.226.117v1.136c-.083.042-.15.082-.221.111-.13.218-.112.476-.12.806.18.072.271.088.567.109.112-.149.317-.362.681-.231v.122h.232c.034.072.074.152.122.231h.793v.115c.115.063.23.149.344.223v.229c.08.032.149.064.226.114.077.112.157.226.226.338h.232c.306.345.61.68.907 1.024h.804c.128-.128 0-.043.23-.112.058-.277.135-.351.23-.567.325 0 .613.016.794-.12.042-.079.077-.143.112-.225h.468c.032-.08.067-.146.114-.226h.112v-.338c.107-.16.285-.024.453-.117.037-.074.072-.16.117-.223h.114v-.346h.112v-.237c.075-.034.152-.069.229-.111v-.684h.114v-.226c.078-.04.147-.085.224-.111v-.575s.07.013.114-.226c.118-.042.23-.077.344-.112.085-.345.205-.284.229-.345v-.915c.234-.191.463-.372.692-.57v-.906h.114v-.226c.064-.045.147-.08.23-.112v-.92h.114v-.345c.069-.03.146-.077.22-.115v-.452c.23-.308.458-.62.685-.91h.228c.08-.11.157-.228.235-.35h1.597c.093.255.114.62.114 1.032-.114.082-.229.151-.34.228v.229c-.118.08-.23.149-.344.223v.343c-.08.035-.16.08-.226.117v.224h-.115v.696h-.125v.224c-.072.037-.149.066-.226.114v.226c-.07.035-.152.07-.232.115-.032.191-.077.374-.103.566h-.12v.223c-.07.038-.15.085-.232.12v.8h-.111v.23c-.078.042-.152.066-.227.11v.458h-.117c-.165.367-.213.59-.226 1.138.378.205.66.458.681 1.032-.237.138-.247.255-.567.346zm18.957-9.59v.455c-.112.078-.23.16-.338.227v.353h-.123v.22h-.112c-.154.174-.066.152-.338.23v.114h-.351c.109-.668.34-.984.58-1.487.221-.037.453-.077.682-.111zm26.603-1.369c-.027.256-.019.3-.12.458h-.112v.348c-.077.03-.152.066-.229.106v.232h-.114v.337h-.11v.684c-.2.162-.377.3-.577.46-.032.343-.075.686-.11 1.029-.082.037-.162.08-.233.109-.04.2-.072.378-.099.574-.088.038-.16.072-.24.11v.228h-.111v.47h-.112c-.136.118 0 .04-.229.112-.01-.582.032-.89.229-1.265h.112v-.338c.069-.035.149-.082.226-.114v-.23h.125v-.794h.099v-.229h.234c.077-.149.33-.327.335-.35v-.567h.117v-.226h.112v-.338c.157-.362.391-.697.807-.806zm-24.546-.22v.34c-.362.202-.466.556-.918.686v-.12c-.112-.093-.112-.146-.232-.228.072-.226-.005-.107.12-.226.074-.314.03-.264.335-.343v-.11h.695zm-91.805-3.89c-.41.092-.799.443-1.028.46-.034-.073-.074-.152-.111-.232a8.921 8.921 0 0 1-.567-.11c-.245.386-.458.325-.799.562-.122.165-.237.311-.348.47h-.796c-.035.06-.072.15-.115.232h-.223v.109h-1.028c-.191.229-.388.457-.583.683h-1.13c-.08.104-.144.221-.232.34h-.79v.112h-.235c-.048.078-.083.141-.122.23H38.2a4.743 4.743 0 0 1-.226.342h-.453c-.048.077-.082.152-.12.226h-.22v.107h-.81v.135c-.149.027-.293.061-.452.104v.12h-.796v.109h-.232c-.034.071-.077.149-.111.231h-.908v.112h-.232c-.045.069-.074.146-.122.226h-.455v.12h-.226c-.04.076-.088.135-.118.228h-.68v.106h-.227c-.045.085-.08.15-.112.232-.436.194-1.211-.107-1.605.111-.149.19-.311.383-.455.57H28.5v.111h-.34v.115h-.234v.114h-1.028v.122h-.226c-.034.064-.08.146-.117.229-.192.032-.37.066-.572.109-.04.074-.075.151-.11.229h-.241v.114h-.567v.112c-.147.037-.293.077-.456.117v.114h-.9c-.04.072-.087.14-.119.229h-.343v.114h-.578c-.034.08-.07.149-.112.223h-.231v.115h-.57c-.03.08-.08.149-.12.228h-.22v.117h-1.023v.11c-.16.042-.306.082-.452.114v.114h-.812v.11h-.226c-.11.159-.229.308-.346.472h-.218v.112h-1.717l-.232.343h-.572v.11h-.22c-.035.068-.08.15-.113.228h-.913c-.071.112-.16.231-.223.338h-.812a8.303 8.303 0 0 1-.226.337h-1.022v.12h-.221c-.059.074-.088.154-.13.226H9.43v.117h-.223c-.04.072-.078.149-.118.22-.236.046-.463.086-.689.118-.037.08-.07.154-.117.226H7.261v.122h-.229a3.955 3.955 0 0 1-.12.231h-1.37a3.15 3.15 0 0 1-.23.338H1.896c-.032-.077-.082-.157-.114-.226h-.232v-.112h-.335a3.986 3.986 0 0 1-.23-.353c-.51-.24-.563.383-.806-.343H.064c-.229-.383.226-1.282.34-1.36h.243v-.113h.567v-.115c.111-.045.22-.082.335-.109v.11h.12v.114h.46c.155.191.301.374.447.566h.23v.109h2.507v-.11c.165-.031.311-.076.457-.113v-.107h2.18c.075-.12.152-.231.221-.345h1.49v.114c.25.056.336-.114.336-.114h1.381l.099-.224h.24v-.117h1.365c.114-.197.229-.385.343-.572h.227v-.122h1.833v-.117h.23c.029-.069.071-.146.103-.223h.69v-.115h.228a1.61 1.61 0 0 0 .11-.226h1.043c.026-.08.07-.149.106-.228h.227v-.115h.68c.049-.074.08-.143.115-.223h.23v-.114h.806c.066-.115.146-.23.229-.343.479-.213.694.255.91.343h.444c.078-.115.216-.192.237-.23.096-.18-.045-.35.11-.456h.457c.08-.112.16-.23.23-.338h.35v-.112h.227c.037-.077.069-.165.117-.24h1.477v-.113h.224c.114-.15.242-.296.354-.453h.213v-.117h.811v-.111h.23c.034-.083.08-.144.111-.226h1.142c.077-.117.162-.232.234-.338h.681v-.12h.23c.034-.08.066-.162.114-.228h.681v-.112h.23c.031-.077.076-.165.106-.226h.926v-.12h.338c.032-.074.07-.151.117-.22h1.818v-.12h.24c.037-.186.071-.386.111-.572.344 0 .684 0 .91-.111.035-.075.07-.152.118-.232.316-.135.654.035.907-.114.05-.07.08-.152.117-.226.453-.04.919-.083 1.376-.12v-.117h.221c.038-.077.072-.14.12-.22h.226c.038-.078.08-.157.112-.227h.226v-.111c.16.026.31.066.458.111v-.111h.46v-.112c.15-.053.296-.082.464-.117v-.109h.678c.15-.194.315-.39.458-.59.418-.03.836-.059 1.24-.112.062-.066.086-.141.123-.22h.24v-.112h.79v-.12c.152-.032.306-.067.46-.11v-.119h1.249v-.111h.218c.056-.08.09-.152.125-.226h.234c.035-.08.083-.147.12-.226h.224v-.112h1.022v-.12h.229v-.117c.12-.042.226-.08.34-.106.102.17.17.236.341.343-.053.231.01.096-.112.231-.037.146-.066.298-.114.444zm130.958-.112c-.056.26-.096.273-.216.46h-.12v.332c-.22.271-.444.53-.686.811-.187.035-.381.064-.57.117l-.229.566h-.346v.104c-.186.154-.386.311-.567.463v.683h-.109v.242c-.149.104-.309.224-.458.333v.231c-.024.04-.197.019-.125.226h.125c.03.112.072.231.115.34h.111c.205.293-.12.216.341.34v.118c.274.157.918-.096 1.025-.117.285-.067.423.072.57.117-.062.226.007.095-.112.226-.107.43-.341.739-.684.917-.187.09-.365-.053-.456.117v.907c.115.064.19.207.224.229h.346v.114c.192.149.383.308.57.455.042.111.077.228.111.337h.221c.139.16.232.309.362.455h.908v.122c.144.04.309.07.45.123v.111h1.482c.046-.111.08-.234.125-.356.299-.069.818-.372 1.022-.564.08-.117.16-.228.23-.345.191-.03.37-.077.569-.115.045-.074.082-.143.11-.223.388-.375.48-.468.468-1.25-.157-.117-.307-.24-.469-.353v-.115c-.18-.034-.373-.066-.567-.112-.146-.186-.303-.38-.455-.569h-.338v-.111a11.628 11.628 0 0 0-.455-.117 2.225 2.225 0 0 1-.115-.34c-.125-.08-.226-.163-.356-.23v-.337h-.11v-.231c-.058-.04-.151-.078-.23-.11v-1.715c.23-.122.273-.16.34-.454.266-.08.277-.107.47-.229v-.109c.27-.13 1.023 0 1.137.109 1.148.316.509 1.638 1.6 1.933v.107h.346v.239c.311.085.248.027.333.34.351.12.686.232 1.035.346v-.114c.272-.17.19-.343.333-.452.14-.104.479-.093.583-.224v-.359c.064-.032.149-.069.226-.109v-.111h.343c.147-.187.306-.383.45-.572.232-.083.458-.15.69-.237 0-.377.063-.5.109-.787h.109v-.109h.354c.154-.194.3-.39.458-.59h.236v-.112h1.238c.08.125.346.34.346.354v.457h.11c.05.149.082.295.116.457h-.117c-.034.19-.069.375-.109.567-.311.157-.604.306-.905.45v.233h-.12v.333c-.191.053-.372.082-.559.135-.05.061-.085.141-.122.224h-.692s0 .069-.234.109c-.144.292-.301.598-.45.917-.077.03-.146.066-.226.106-.296.314-.434.41-.458 1.024.152.115.311.229.458.351v.117c.149.03.308.061.457.112l.219.226v.226c.13.149.423.122.585.229.07.114.147.228.227.343h.57c.25-.41.603-.205.798-.46.042-.192.082-.38.106-.564h.117v-.112h.117v-.117h.221v-.122h.455c.378-.216.054-.505.245-.795.184-.144.373-.309.57-.458v-1.824c-.7-.457-.07-.875-.344-1.478-.114-.08-.226-.165-.343-.229v-.58c-.013 0-.074.024-.128-.231-.205-.09-.29-.154-.564-.22v-.232c-.133-.11-.112-.2-.229-.34h-.117v-.226c-.144-.107-.293-.226-.455-.338-.03-.085-.075-.146-.104-.237h-.346v-.106h-.231a1.437 1.437 0 0 1-.102-.224 4.078 4.078 0 0 0-.463-.117v-.111c-.127-.056-.231-.08-.351-.117-.072-.117-.15-.226-.234-.349-.179-.04-.368-.066-.565-.12-.031-.068-.077-.146-.111-.228h-1.025v-.106h-.226a2.096 2.096 0 0 1-.117-.232h-2.747a3.606 3.606 0 0 1-.104.232h-.24v.106h-.452v.117c-.15.043-.298.08-.458.112v.12h-.57v.122h-.223c-.035.069-.085.149-.117.226h-.226c-.024.06-.083.146-.112.228-.194.027-.38.067-.58.117-.035.07-.059.141-.123.224h-.22v.106h-.341c-.072.117-.15.237-.224.349-.266.226-.644.372-1.035.452zm-32.305-3.99h.338c-.08.31-.034.259-.338.352v-.351zm-89.976 0c.03.58.157.394.226.916-.258.194-.519.38-.796.563h-.681c-.037.077-.083.157-.115.232h-.229v.106h-.68v.117h-.248c-.027.08-.062.165-.104.231h-1.363c-.128.232-.181.197-.232.577-.223.027-.223.117-.223.117h-.82v.11c-.136.031-.287.071-.447.114v.106h-.908c-.034.09-.077.152-.111.237h-.685v.338h-.455c-.066-.168-.093-.184-.114-.458.18-.117.373-.223.57-.338v-.226h.12c.06-.111.143-.228.22-.345h.344c.034-.077.077-.15.111-.232h.227v-.12h.572c.042-.068.077-.146.109-.228h.242v-.106c.634-.237 1.248.396 1.48-.349h.106v-.337h1.36v-.11h.248c.032-.082.067-.162.101-.23h.469c.066-.118.146-.23.223-.333h.799c.042-.088.08-.17.114-.234.192-.048.386-.09.57-.117zm4.232-.677v.33c-.764 0-.993.127-1.376.465-.038.064-.072.146-.117.234h-.913v.104h-.344c-.029.069-.077.148-.106.228h-.918a34.902 34.902 0 0 0-.118-.787c.08-.058.237-.245.237-.245h1.022v-.103h.227c.048-.077.09-.16.117-.226h.338v-.125c.22-.104.732-.41 1.152-.224v.107c.296.212.272.223.799.242zm3.646-1.715c.035.226.08.452.117.68-.378.038-.769.08-1.136.115-.163.183-.309.385-.46.571h-.568v.107h-.236c-.038.082-.067.16-.12.242h-.79l-.113.103v-.452h.112c.03-.231.072-.462.112-.686.34 0 .687.011.918-.111.038-.085.078-.15.117-.232.147-.026.299-.08.456-.111v-.115h.231v-.111h1.36zm3.428-1.375v.332h-.34c-.11.224-.165.192-.234.479h-.339v-.12h-.12v-.359c.373-.197.392-.319 1.033-.332zm1.374-.455v.343c-.338.083-.684.16-1.025.226v-.455c.34-.042.687-.08 1.025-.114zm1.474-.343v.343c-.143.035-.3.072-.452.114v-.114c-.128-.128-.05 0-.115-.229.181-.071.267-.103.567-.114zm.12-.223h.804c-.107.412-.3.359-.804.337v-.337zm25.238-7.648v.343c-.139.07-.344.338-.344.338H94.03v.117h-.223c-.038.072-.086.157-.123.236h-.793v.112h-.226c-.125.149-.226.298-.34.455h-.922v.114c-.34.03-.684.072-1.027.117a2.119 2.119 0 0 0-.11.22h-.452v.123h-.692c-.04.077-.077.15-.12.226-.223.035-.45.072-.684.107-.074.12-.143.23-.226.337h-.231c-.038.09-.072.16-.102.237-.348.042-.686.074-1.03.112v.114h-.237v.112h-.226v.114a15.951 15.951 0 0 1-.684-.114v.114h-.34c-.08.117-.155.24-.227.351-.25.114-.468-.141-.57-.112v.112h-.226c-.045.07-.082.144-.127.218h-.219v.128h-.577a5.829 5.829 0 0 0-.115.226c-.226.029-.45.069-.676.111v.117h-.231c-.04.078-.08.147-.115.23h-1.15c-.111.14-.231.302-.337.451-.152.032-.296.072-.456.112v.112h-.907c-.083.114-.16.228-.232.337h-.79v.117c-.165.05-.312.072-.469.115v.109h-.57c-.08.111-.148.244-.228.356h-1.134c-.083.117-.165.226-.24.34h-1.139c-.032.072-.08.144-.109.224-.197.037-.38.085-.572.12.08-.354.207-.487.572-.567.061-.309.12-.335.338-.473v-.11h.45a.854.854 0 0 0 .114-.23c.384-.035.772-.07 1.15-.11h1.137v-.114c.242-.157.354-.266.7-.338.04-.276.114-.364.223-.574h1.137c.082-.107.149-.224.226-.335h.799c.047-.115.077-.226.106-.354h.12c.218-.234.151-.28.577-.33.107.202.163.173.232.458.527-.04.519-.165.905-.346v-.112h.57c.04-.122.08-.239.114-.353.114-.064.24-.152.343-.226v-.112h.354v-.117h.226v-.12h.227v-.106h1.022c.125-.059.16-.476.57-.338.047.072.077.144.114.226h.229v.112c.282.085.851-.122.92-.231v-.333h.11v-.122c.391 0 .777.04 1.027-.11.04-.076.075-.156.115-.228.226-.048.45-.08.689-.114.035-.077.07-.157.101-.234H90.6v-.107h.237c.038-.082.077-.154.115-.226h1.032v-.122h.227c.154-.186.295-.38.455-.569.186-.043.378-.074.57-.117.034-.066.08-.146.114-.226h2.172zm.343 0c.03-.112.067-.229.112-.34.293-.011.681-.07.796-.224.109-.165-.03-.34.109-.46h.231v-.112h.921c.032-.077.067-.156.112-.226h.226v-.12c.115.038.235.07.344.12.487-.05.985-.082 1.477-.12.104.131-.008.02.114.12-.056.226.024.094-.114.226v.112h-.788v.12c-.152.032-.314.077-.458.112v.106h-.8v.122c-.158.032-.307.08-.456.104v.12h-.578v.111h-.231c-.032.085-.077.144-.11.229h-.907zm57.776 1.034c-.162.032-.309.072-.466.112-.29.798-.383 1.7-1.482 1.7-.099-.267-.117-.697-.117-1.13.277-.184.08-.08.229-.35h.114v-.332c.077-.042.16-.08.23-.122v-.231h.114v-.338c.308-.263.612-.535.912-.803.035-.226.083-.444.118-.676.066-.045.151-.077.234-.114.136-.247-.014-.484.114-.808h.112c.032-.186.075-.38.112-.57-.17-.06-.197-.08-.455-.106-.389.452-.764.904-1.147 1.372-.115.07-.224.15-.344.226v.232a9.322 9.322 0 0 1-.343.218v.226a3.038 3.038 0 0 1-.226.12c-.03.148-.086.308-.112.449-.083.05-.15.085-.234.117v.229h-.107v.226c-.082.045-.16.082-.226.117v.236h-.117c-.2.309.098.208-.354.333-.123.135 0 .053-.216.127v.221h-.12v.567c-.183.12-.378.226-.572.345v.218h-.114v.689h-.115c-.03.16-.082.306-.109.455-.074.04-.152.077-.229.114v.24c-.08.031-.149.076-.226.114v.335c-.083.04-.15.082-.234.122v.223h-.104v.34c-.123.03-.229.083-.349.113v.114c-.303.298-.205.114-.223.675.138.147.17.213.223.47-.133.08-.623.66-.686.799-.035.186-.07.372-.128.566h-.093v.231h-.123v.452h-.117c-.149.328-.213.426-.226.92.17.064.197.08.466.11.066-.203.151-.383.22-.567.264-.045.533-.074.807-.12v-.122h.106c.035-.175.083-.375.123-.56.077-.04.146-.073.218-.113.037-.303.077-.611.12-.914.192-.152.38-.306.564-.452.035-.338.08-.7.115-1.035h.114v-.226c.08-.032.16-.072.229-.114v-.226c.186-.15.386-.306.578-.455.082-.125.093-.497.22-.566h.804c.09.12-.01.013.115.111-.032.144-.083.306-.115.455-.08.032-.16.077-.226.114v.681c-.194.277-.386.532-.577.806h-.221c-.272.292-.533.6-.807.907h-.114v.454h-.115v.23c-.082.034-.144.07-.226.113v.673a.706.706 0 0 1-.226.117c-.304.362-.45.58-1.022.7-.054.29-.08.603-.115.906-.125.08-.24.144-.348.224-.104.173.053.37-.128.462h-.56c.078-.388.198-.436.227-.914-.173-.072-.184-.085-.447-.115-.138.285-.327.561-.463.798v.231h-.11c-.084.107-.146.224-.228.349-.195-.05-.391-.083-.572-.125v.125c-.195.207-.123.848-.11 1.244.19.07.354.107.682.117v-.117h.338c-.043.55-.453 1.024-.91 1.144-.075-.163-.17-.144-.237-.232v-.228c-.096-.128-.227-.085-.453-.112-.08.213-.114.441-.114.795.213.149.191.128.24.463h-.472v.117h.471c-.125.345-.24.675-.354 1.024-.064.034-.143.08-.226.12v.332h-.117v.23a1.96 1.96 0 0 1-.226.11v.12c-.227.156-.455.3-.682.444-.037.242-.08.468-.117.699-.072.035-.157.064-.223.117v.223h-.11v.447c-.085.045-.165.088-.228.117v.46l-.357.232v.337h-.117v.575c-.067.037-.144.071-.218.111v.232h-.123c-.085.236.059.454.123.574h-.123c-.122.12 0 .04-.229.106-.08.458-.338.612-.45 1.024h-.229c-.034.2-.074.391-.109.58a1.483 1.483 0 0 0-.226.109v.229h-.117v.571c-.08.027-.154.08-.226.115-.05.151-.083.303-.117.452-.08.029-.144.08-.221.117v.228h-.12v1.032c-.01.888-.154 1.21.12 1.925h.338v.115c.271.06.519-.186.907 0 .032.085.078.165.112.236h.69v.107h.218c.053.077.09.165.117.234h.357v.12h1.812v.111h.232v.114h.351v.112h2.159v.117h.231v.11c1.03.039 2.055.084 3.082.116h1.26v-.117h.343v-.109c.189-.042.205.099.226.11.407.092.75-.062 1.02-.11.148-.316.308-.479.462-.808h.118v-.681h.117v-.226c.069-.035.138-.082.231-.12v-1.013h.112v-.231a.913.913 0 0 1 .229-.112v-.694h.101v-.229c.088-.037.16-.071.232-.109v-1.14c.082-.04.165-.08.231-.117v-.226h.112v-.567h.112v-.236c.197-.15.391-.296.572-.453a9.87 9.87 0 0 0 .114-.571c.075-.03.163-.072.24-.115v-.68h.112v-.232c.144-.111.29-.22.455-.34.08-.346.152-.683.229-1.03.178-.15.378-.308.564-.462.035-.189.083-.377.115-.558.191-.165.383-.309.57-.46.034-.186.076-.38.122-.58.295-.26.606-.519.915-.792.032-.418.07-.843.11-1.248.069-.042.148-.082.226-.111.04-.194.066-.383.117-.585.375-.335.76-.684 1.136-1.021.077-.11.165-.23.226-.34h.341c.048-.08.075-.16.11-.23h.13a7.1 7.1 0 0 1 .114-.454c.064-.04.146-.075.229-.104.317-.348.468-.691 1.02-.816.085-.3.04-.248.34-.338v-.112h.455v-.12h.232c.042-.08.082-.143.12-.223h1.482c.202.298.639.362.684.455v4.683h-.12v.231l-.223.107c-.035.191-.08.39-.112.566l-.229.12v.686h-.114v.226c-.078.04-.147.074-.23.122v.338c-.066.367-.194.524-.454.675v.12h-.464c-.103.053.008.146-.34.226-.12-.237-.19-.205-.232-.567h.572c.07-.226-.01-.103.112-.226-.066-.27-.104-.27-.229-.457h-.103v-2.962h.103v-.234h.117c-.066-.351-.151-.686-.22-1.035-.157-.082-.136-.074-.232-.223h-.229c-.18.274-.085.08-.346.223v.117h-.34c-.19.232-.387.455-.557.686h-.24c-.27.309-.532.604-.806.918v.455c-.178.146-.378.3-.567.452a4.007 4.007 0 0 1-.114.46c-.115.146-.285.005-.45.111l-.117.221h-.115v.354c-.08.04-.143.077-.229.117v.231c-.111.122-.359.173-.564.226-.093.463-.231.758-.231 1.356h-.463c-.048.107-.221.234-.221.234v.468h-.123v.224h-.114c-.032.34-.072.678-.11 1.026-.117.066-.228.149-.345.22v.344h-.115v.228c-.08.04-.144.078-.231.107-.027.197-.072.39-.107.582h-.338v.117c-.405.45-.027 1.38-.224 2.042h-.12a7.98 7.98 0 0 0-.116.7.925.925 0 0 0-.224.111v.224c-.077.037-.165.066-.24.114v.34h-.114c-.035.115-.064.227-.114.346-.067.03-.15.072-.227.107-.24.5.25.683.112 1.138H155c-.1.26-.1.438-.117.805.23.133.434.365.695.455H157.97c.497-.146.846-.385 1.488-.455.066-.258.087-.284.226-.457h.117c.027-.157.077-.3.104-.465.085-.035.16-.072.231-.115.128-.188.147-.686.23-.906.215-.088.297-.165.566-.226v.563c-.07.038-.144.085-.22.12-.08.386-.158.76-.235 1.14h-.112c-.032.232.05.144.112.232.386.391 1.66.247 2.398.226.346-.042.687-.077 1.027-.112v-.114h.224v-.112h2.867v-.12h.343c.035-.068.07-.156.114-.233h.684v-.107c.237-.071.392-.04.565-.12.114-.294.231-.606.354-.914h.104c.037-.223.074-.45.125-.675.064-.046.143-.08.226-.115v-.226h.101v-.338c.08-.047.16-.082.234-.111.043-.202.077-.391.115-.585.085-.032.151-.072.229-.115v-.226h.122c.12-.305-.053-.555.11-.795.193-.146.374-.308.566-.457v-3.547a1.19 1.19 0 0 0 .232-.107c.146-.252-.038-.603.109-.91h.12c.12-.18.154-.19.223-.457h.24c.111-.462.042-.143.338-.337.072-.112.149-.229.218-.338h1.259c.205.231.479.322.91.338.282-.309.535-.61.812-.928.064-.03.144-.059.224-.112.032-.176.066-.372.12-.561.37-.34.758-.683 1.133-1.032v-.106h.447c.317-.34.626-.686.919-1.037h.694v-.112h.227c.042-.07.08-.146.114-.223h.676v-.12h.232c.157-.178.306-.372.465-.566h.453c.082-.11.152-.23.226-.34h.458c.08-.118.149-.23.226-.333h.344v-.12h.223c.045-.074.08-.162.13-.231h.557v-.104c.154-.058.309-.088.463-.117v-.128h1.818c.045.08.08.157.114.245h.24v.104h1.022c.082.117.152.231.226.35h.458c.082.105.149.216.231.333h.804v.112c.147.037.298.082.463.12v.109h.783v.114h.122v.34h.117c.152.194.296.386.45.567h.458c.072.12.152.242.218.35h.471v.118c.227.186.453.377.68.569.031.308.09.6.116.907.19.164.378.308.565.46.05.266.08.531.117.803h.117v.231h.109v.338h.12v.675h.106v.231h.117c.043.42.077.846.112 1.264.083.031.16.069.226.109.056.22-.058.149-.111.231-.16.899-.74 1.18-1.257 1.704-.138.144-.186.34-.338.463v.567c-.32.06-.476.17-.679.343v.114h-.226c-.298.17-.527.359-.92.452-.035.114-.083.229-.118.346h-.117a2.254 2.254 0 0 1-.106.337 2.005 2.005 0 0 1-.227.115v.696l-.122.112c-.423.008-.586.075-.905.226v.117h-1.262v.11c-.149.034-.306.068-.455.114v.114h-1.474v.112h-.245c-.144.191-.296.37-.453.563h-.564v.12c-.152.035-.317.074-.466.112v.114h-.447c-.309.338-.617.68-.907 1.034h-.472c-.303.338-.598.681-.91 1.024h-.226v.115h-.226c-.024.071-.083.146-.112.228-.298.216-.221-.13-.34.335h-.131v.34a2.323 2.323 0 0 0-.793.344c-.072.122-.15.231-.224.353-.2.03-.375.061-.567.115a3.663 3.663 0 0 0-.117.34l-.234.226h-.224c-.306.338-.623.683-.915 1.019-.187.047-.381.082-.57.117-.037.077-.072.156-.117.226h-.226v.114h-.341a8.99 8.99 0 0 1-.343.46h-.115c-.045.186-.074.38-.109.574h-.114a3.6 3.6 0 0 0-.23.338c-.23.125-.42-.019-.582.12-.296.34-.6.675-.903 1.015-.149.117-.314.232-.465.344v.239h-.104c-.144.226 0 .244-.229.447.144.382.306.768.45 1.148.309.024.604.077.91.107.045.08.08.157.11.234.31.045.627.074.925.111v.11h.232v.108c.49.054.987.088 1.477.117.123-.226.184-.188.226-.566-.218-.09-.298-.167-.57-.22-.023-.128-.225-.623-.11-.798h.11c.118-.482.826-1.09 1.374-1.15v-.114c.28.048.857.639 1.49.34.033-.07.07-.153.105-.225h.228v-.115h.695c.035-.063.067-.146.101-.226h.24v-.111h.679c.146-.186.308-.373.457-.577h.227v-.11h.681c.048-.08.083-.14.114-.228.317-.282.453-.269.453-.912-.52-.309-.34-1.572-.327-2.39.433-.243.513-.458 1.253-.458.338.109.682.231 1.02.346.167.372.481.758.58 1.13a3.914 3.914 0 0 0 1.591 0c.181-.314.362-.468.456-.907.354 0 .694.016.92-.112.038-.077.072-.165.115-.226h.681v-.122h.224c.037-.07.082-.149.122-.231.19-.038.368-.067.567-.115.038-.069.078-.146.112-.228.274-.032.535-.067.81-.11a1.23 1.23 0 0 1 .111-.23h.793v-.112h.232c.032-.08.074-.147.106-.224h.807c.255.436.55.391.561 1.141-.338.237-.058.109-.226.457h-.112v.229c-.412.37-.83.758-1.25 1.13-.027.197-.086.388-.118.572h-.114c-.392.49-.735.14-.908.92-.41.066-.522.122-.583.572.41.146 1.142.12 1.722.109.17-.194.455-.327.682-.452h.226c.077-.115.162-.229.226-.351h.23c.044-.067.082-.152.114-.216h.24c.034-.08.063-.162.116-.24h.221v-.116c.181-.032.38-.061.57-.11.226-.3.452-.597.684-.909h.226v-.12c.189-.143.383-.305.567-.451v-.226h.247c.059-.112.141-.229.224-.34h.22c.036-.112.075-.227.118-.349.093-.112.338-.202.453-.346h.457v.806c-.34.229-.684.455-1.027.68v.456h-.11v.226c-.076.047-.159.082-.241.117v.226a1.86 1.86 0 0 1-.341.23c-.258.304-.522.615-.793.918-.072.035-.15.07-.232.115-.034.08-.08.146-.112.223-.306.17-.394-.207-.559.229-.05.149-.085.313-.122.457-.26.03-.306.016-.45.11v.119h-.245v.111h-.338c-.037.08-.069.163-.117.226h-.226v.115c-.144.042-.293.072-.453.112-.034.082-.077.154-.117.239h-.223c-.08.112-.141.226-.232.338h-.793c-.082.109-.16.23-.229.34h-1.038v.12c-.389.308-.037.207-.216.449-.13.173-.516.096-.8.112-.248-.28-.517-.306-1.036-.343h-.343c-.07-.11-.144-.218-.227-.338-.26-.122-1.708.037-1.82.12-.11.143-.24.308-.354.449-.176.072-.202-.109-.226-.109-.259-.059-.31.048-.456.109.07.173.09.183.118.455h-1.025v.114h-.23c-.044.082-.076.165-.11.231-.243.04-.456.08-.696.11-.066.196-.149.382-.212.582-.368 0-.698-.03-.924.114-.035.07-.077.141-.115.226h-1.248v.104h-.24c-.034.077-.058.16-.122.237h-.22c-.07.103-.147.226-.227.337h-1.134v.117c-.149.037-.311.083-.455.11v.116h-.232c-.08.112-.154.232-.24.343h-2.498c-.043-.087-.086-.149-.115-.231h-.237v-.112h-1.027c-.064-.117-.146-.226-.221-.343h-.455c-.085-.111-.154-.234-.229-.337h-.224v-.115c-.154-.045-.316-.08-.465-.122v-.104h-.58v-.127c-.315-.242-.2-.413-.788-.455-.2.242-.381.455-.575.686l-.23.122v.218l-.223.234h-.226c-.117.154-.226.309-.351.455h-.227v.12c-.117.074-.231.143-.343.218v.234l-.346.234v.691h-.107v.215c-.085.04-.146.075-.234.123-.032.178-.074.372-.109.569-.612.117-.612.324-1.49.332-.181-.316-.397-.428-.453-.901.413-.383.035-.628.224-1.152h.117v-.226c.162-.12.306-.226.463-.337.101-.152.232-.314.34-.458.08-.053.15-.077.23-.117v-.234l.343-.103c.037-.078.074-.16.117-.237.367-.343.767-.535.905-1.136.255-.053.386-.109.57-.231v-.114c.423-.226.532.127.686-.455h.115v-.57h-.115v-.23c-.074-.04-.154-.07-.234-.11-.149-.263.07-.316-.218-.576v-.112h-.578c-.149.258-.178.303-.572.35.032-.292.032-.398.117-.582h.11v-.797h.119v-2.848c.418-.024.444-.067.695-.226v-.112h1.027c.064.136.325.322.335.338.15.308-.045.66.118.912.196.162.375.298.564.452v.47h.12v.224h.103c.267.479.059.649.812.68.344-.305.687-.614 1.025-.903.117-.179-.037-.343.117-.471.157-.032.303-.061.452-.11.304-.342.613-.688.908-1.028h.24c.034-.08.066-.144.111-.226h.341v-.112c.08-.034.147-.082.234-.114.11-.176-.053-.362.11-.455h.34v-.112h.23c.044-.077.079-.165.11-.226.2-.048.387-.08.57-.122.043-.07.075-.149.118-.231h.335v-.115h.13c.03-.111.062-.228.11-.337h.111v-.232c.147-.111.301-.226.453-.335v-.117h.351v-.111c.07-.04.144-.08.226-.115v-.231c.12-.144.416-.122.565-.229.08-.109.162-.226.228-.338h.333c.165-.196.322-.39.463-.58h.125v-.342c-.135-.128-.045 0-.125-.221-.183-.066-.266-.106-.572-.117v.117h-.224c-.034.072-.066.149-.114.22h-.452c-.038.086-.086.166-.12.237h-.226v.107h-1.355v.122h-.242c-.043.067-.075.152-.118.231h-1.48v.112h-.223c-.048.07-.077.149-.114.226h-1.153v-.457c-.12-.099-.01.013-.112-.112-.55-.03-.55-.088-1.02 0-.05.112-.084.231-.119.343.34.085.298.07.34.452-.122.093-.007-.01-.116.117-.258.035-.527.072-.79.112-.043.08-.083.149-.115.231h-1.938v.115h-.234c-.032.071-.075.146-.117.228h-3.886v.11c-.147.034-.293.076-.447.114-.046.082-.086.162-.12.23h-.226c-.04.07-.088.155-.115.222h-5.706c-.032.082-.08.16-.118.228-.247.197-.479.218-.918.237v-.237c-.561-.295-1.402-.228-2.268-.228-.53.603-1.471.1-1.95.574-.315.271-.445.702-.565 1.14v1.721a.754.754 0 0 0-.231.115v.675h-.117v1.026c-.083.04-.157.08-.227.11v.23c-.077.043-.154.073-.226.113v.239h-.128v1.595h-.109v.452h-.104v.218h-.127v.343h-.11v3.776h-.114v.232h-.11v.332h-.119v.686c-.114.077-.226.16-.343.224v.226h-.11v.47h-.116v.34h-.112v.45c-.083.04-.15.083-.234.117l-.45.57h-.69c-.157-.253-.298-.301-.686-.339-.048-.468-.21-.648-.453-.912a2.63 2.63 0 0 0-.226-.117c-.043-.194-.083-.39-.12-.58-.072-.034-.14-.063-.218-.111a7.57 7.57 0 0 1-.229-.68c-.309-.259-.617-.535-.934-.793v-.237c-.053-.037-.139-.066-.216-.104-.146-.234.027-.52-.117-.816a14.24 14.24 0 0 1-.57-.447c-.042-.18-.074-.375-.109-.563h-.117c-.151-.216-.167-.216-.223-.575.258-.034.532-.082.793-.111v.566c.226.194.466.375.687.572v.337c.223.192.463.391.686.588v.553c.226.157.453.317.687.463v.223c.112.085.226.162.338.234v.452c.173.28.684.237 1.147.224.035-.107.07-.224.115-.338.375-.455-.136-2.135.1-2.736.078-.035.16-.07.24-.115-.045-.313-.08-.603-.12-.912h.12v-.337h.115v-1.155c.069-.029.149-.06.229-.109v-.22h.114v-1.824h.107c.04-.16.085-.309.12-.463h.114v-1.138h.112c.032-.141.08-.306.117-.452h.109v-1.942c.08-.037.157-.08.229-.12.135-.241-.006-.48.114-.789h.12v-.229h.11c.114-.178.09-.284.114-.58-.152-.09-.128-.08-.224-.225a9.03 9.03 0 0 1-.463.111v.115h-1.137c-.045-.067-.08-.15-.12-.226h-1.365v-.117h-6.052c-.048-.067-.083-.152-.112-.221h-.232v-.12h-.684c-.074-.111-.16-.226-.234-.335h-1.137c-.103.2-.162.181-.229.455-.228-.04-.452-.07-.678-.12v-.111c-.221-.008-.221.375-.58.23-.067-.119-.15-.23-.23-.345h-.223v-.109h-.575v-.117h-.226v-.111c-.192-.046-.205.111-.226.111h-.567c-.07.165-.09.194-.117.452.218.19.229.38.229.806h-.23c-.04.109-.074.231-.108.346.069.034.146.063.226.111v.567c-.365-.03-.434-.112-.687-.226v.452c.165.194.125.763.117 1.138-.471.237-.697.43-.806 1.034-.152.035-.525.13-.573.224v.683h-.111v.226c-.078.03-.144.083-.224.12-.027.064-.106.95-.114 1.029h-.344v1.37c-.08.023-.16.076-.226.106v.345h-.114v.561c-.08.054-.16.088-.23.13v.214h-.114c-.08.23-.16.468-.237.694-.231.077-.455.151-.681.228v.458c.586.383.008.606-.12.901v.691c-.077.04-.144.075-.223.123-.181.167-.09.194-.453.215v-1.14h.11c.037-.147.082-.296.116-.453h.115v-1.25a1.67 1.67 0 0 1 .229-.114c.029-.122.074-.226.106-.353h.12c.074-.413.146-.825.226-1.25.08-.03.16-.083.224-.107.048-.236.082-.457.128-.688.069-.04.149-.078.215-.11v-.228h.125v-.57h.115v-.238c.069-.04.149-.07.229-.112v-.34c.066-.035.149-.07.226-.112v-.229h.114v-.686c.067-.03.15-.077.23-.114v-.224h.114v-.808c.08-.032.146-.061.223-.11v-.23h.115v-.907c.111-.08.229-.146.338-.229v-.452c.109-.085.231-.16.346-.229v-.226c.08-.048.157-.08.226-.122v-.231h.109v-.452h.117v-.232c.077-.029.16-.069.237-.111v-.224c.117-.082.226-.157.338-.228-.04-.232-.072-.458-.112-.684-.191-.04-.226-.117-.226-.117h-.69c-.034-.077-.08-.157-.114-.226h-.231v-.112h-1.02c-.08-.12-.16-.23-.226-.353h-.695v-.107c-.207-.218-.13-.957-.103-1.364-.323-.197-.397-.478-.804-.569v-.343c.242-.149.242-.26.567-.346v-.122h.34v.58c.205.066.368.1.695.114.088-.165.08-.138.226-.226v-.468h1.366c.04.192.08.388.109.58h.117v.114h.463c.035.072.072.144.117.226.253.229.36.402.793.46.155-.29.514-.425.796-.569-.072-.194-.101-.367-.109-.689.274-.08.21-.04.34-.239h.11v-.675h.114c.085-.194.062-.3.12-.455.213-.114.178-.165.453-.229.031-.6.167-.992.346-1.489h.117c.189-.577-.08-1.372-.117-1.816h.46c.101-.202.154-.184.224-.46-.397-.205-.543-.226-.567-.806.149-.13.17-.202.229-.45h.231c.176-.321.455-.385.564-.794h.227c.069-.256.103-.285.223-.46h.117c.078-.226.163-.468.235-.689.074-.032.151-.067.218-.112v-.231h.117c.048-.146.074-.298.114-.45h.12v-.797h.123c.032-.154.063-.314.111-.452h.117v-.234c.144-.11.301-.232.45-.351a7.11 7.11 0 0 1 .115-.455h.112v-.566c.114-.083.228-.147.34-.23.15-.305-.05-.656.115-.898.308-.28.612-.537.923-.816V98.02h.112v-.226c.061-.032.146-.083.216-.115v-.228h.127v-.23l.227-.217v-.24c.117-.069.22-.143.34-.239v-.673c.115-.08.227-.151.344-.228v-.452c.109-.08.223-.152.34-.229v-.455c.232-.194.453-.388.68-.585v-1.135c.082-.027.159-.072.239-.107v-.223h.093v-.346c.128-.082.237-.149.351-.226.04-.194.085-.388.125-.569.184-.162.378-.31.564-.465.035-.184.083-.372.123-.57.189-.145.37-.302.564-.456.043-.23.077-.45.112-.681h.117v-.234h.11v-.333h.114v-.691c.08-.043.157-.074.231-.117v-.226c.112-.085.226-.144.354-.229v-.231h.101v-.226c.078-.032.155-.072.235-.106V86.5a3.29 3.29 0 0 1 .34-.226c.035-.162.072-.303.115-.46.069-.037.149-.072.229-.12v-.228h.114c.035-.186.067-.38.107-.57.202-.143.378-.302.572-.449v-.797c.117-.08.229-.163.343-.226v-.346c.077-.043.16-.075.23-.107v-.241a23.8 23.8 0 0 0 1.026-.915c.035-.141.083-.295.118-.447.066-.03.151-.082.234-.109v-.234c.14-.114.3-.223.455-.343v-.463c.498-.452.985-.907 1.474-1.359v-.234c.075-.026.163-.085.24-.106v-.231c.112-.045.224-.077.34-.112v-.122c.344-.197.568-.237 1.135-.221.045.066.08.149.117.22.282.195.146-.177.452.235h.123v1.023c-.144.125-.123.203-.237.344h-.11v.22a6.819 6.819 0 0 1-.345.242v.684h-.115v.223c-.08.035-.144.085-.231.12-.027.14-.072.3-.107.449-.082.03-.16.08-.226.114v.572c-.112.07-.23.157-.336.223v.812a17.19 17.19 0 0 0-.577.901c-.123.085-.237.146-.351.231-.032.2-.067.389-.115.567H155v.337a.94.94 0 0 1-.231.115v.228c-.195.16-.373.306-.565.468-.034.226-.08.458-.122.676h-.101v.346c-.085.037-.154.074-.229.111-.048.423-.085.843-.112 1.263zM124.514 78.52c-.351 0-.692-.016-.91.106-.032.083-.083.15-.115.234-.317.141-.655-.05-.905.11-.24.297-.468.616-.694.906h-.57v.12h-.34c-.046.074-.08.157-.115.223-.226.045-.453.077-.682.125-.274.295-.532.604-.806.915-.309.08-.604.14-.91.223v.112c-.115.03-.232.08-.344.114-.082.107-.146.224-.229.343h-.452a6.857 6.857 0 0 0-.226.34h-.458c-.077.112-.157.224-.234.339h-.455c-.083.117-.152.241-.232.348h-.452c-.08.117-.16.237-.227.346h-.455a3.44 3.44 0 0 0-.229.337c-.226.12-.412-.032-.585.12a5.346 5.346 0 0 1-.221.447h-.23v.12h-.795c-.114.228-.229.449-.338.683h-.695c-.072.111-.151.22-.218.335h-.242c-.03.08-.064.162-.104.228h-.231v.12h-.57v.117c-.442.36-.032.218-.226.57h-.115c-.407.539-.229.1-.684.337-.077.122-.157.226-.223.346h-.469c-.072.111-.146.228-.231.34-.141.05-.293.08-.45.109l-.447.572h-.237c-.077.117-.15.231-.224.353a10.3 10.3 0 0 0-.57.112c-.047.07-.08.149-.12.22-.35.301-.689.61-1.024.916-.037.191-.077.37-.12.563a.754.754 0 0 1-.229.12c-.306.33-.35.582-.34 1.266.202.13.255.305.452.454v.107h1.153c.473.819 1.352.058 1.927 0h1.722c.08-.107.152-.224.229-.335h1.83c.067-.115.15-.226.222-.354h.458c.077-.114.151-.218.229-.33h.91v-.122h.22a.76.76 0 0 0 .118-.231h.468v-.112h.23c.034-.07.068-.152.111-.226.184-.035.375-.077.57-.117.037-.064.08-.146.114-.226h1.137v-.112h.24c.031-.082.063-.154.11-.226h1.25v-.12h.23c.035-.071.08-.151.113-.228h.343c.49-.048.681-.144.806-.559.261-.085.522-.167.796-.234.035-.082.07-.154.115-.226h.79v-.122h.232c.037-.072.08-.149.114-.231.197-.038.383-.067.57-.115.042-.063.08-.149.109-.223h1.49v-.117c.2-.032.386-.066.57-.117.045-.059.082-.141.117-.22h.338c.048-.08.083-.155.125-.23a187.93 187.93 0 0 0 1.59-.12c.193-.257.38-.534.569-.789.575-.112 1.152-.231 1.72-.343.111-.154.225-.303.337-.465h.224l.237-.224h.22v-.111h.23v-.117h.356a.934.934 0 0 1 .115-.224h.215v-.114h.352v-.12c.157-.034.298-.077.455-.109v-.12c.146-.026.306-.071.455-.111.034-.08.077-.144.112-.226h.684c.045-.077.077-.141.109-.229.277-.08.537-.151.812-.223v-.223c.26-.067.268-.107.452-.237v-.107c.192-.045.378-.082.57-.124a.98.98 0 0 0 .111-.232h.458c.08-.112.155-.223.224-.335.327-.151.67.045.918-.12.157-.188.3-.37.46-.566h.456c.034-.074.082-.149.114-.226.194-.138.469-.106.793-.109.402.428.684.109.695 1.021-.351.3-.695.61-1.03.915-.04.072-.072.146-.12.229h-.681v.114h-.226c-.16.18-.304.375-.46.569h-.693c-.035.08-.066.149-.11.22h-.225v.12h-.799c-.077.11-.144.229-.223.343h-.232c-.045.075-.077.141-.112.224H134v.117h-.583c-.178.22-.375.457-.567.683h-.796c-.306.348-.614.686-.91 1.024h-.452c-.086.122-.16.226-.232.346h-.69v.111h-.236c-.027.085-.067.144-.11.229-.226.08-.452.16-.675.226-.117.16-.232.306-.344.455h-.694v.117h-.216c-.045.072-.08.157-.128.236h-.338v.112h-.229c-.034.07-.074.149-.117.22-.189.043-.367.078-.567.128-.032.059-.077.141-.109.221h-.231v.117h-.338c-.046.077-.08.144-.128.22h-.216v.123h-.351c-.147.186-.304.37-.453.564-.229.08-.457.162-.686.226-.115.16-.227.303-.338.455-.338.082-.682.157-1.036.231-.082.378-.24.439-.34.806-.23.029-.46.069-.684.111v.117c-.126.125-.043 0-.115.23h-.226a4.814 4.814 0 0 0-.112 1.012c.599.322 1.578.24 2.513.232.306-.447.67-.32 1.365-.34h.463c.035-.073.07-.15.104-.23.24-.135.5.022.81-.111.031-.08.076-.15.108-.234h.232v-.107h1.248c.045-.082.08-.148.115-.223h.226v-.122h1.945c.086-.107.163-.224.227-.335h1.828c.083-.115.144-.226.232-.354h1.033v-.114c.455-.165.777-.216 1.368-.216.08.112.146.216.223.33h.453v.128c.25.173.298.154.346.56-.208.126-.469.362-.573.575v.338c-.226.154-.45.303-.68.455-.046.273-.078.529-.113.805h-.114c-.463.567-.517.08-1.038.343-.144.19-.304.375-.45.564-.125.114-.285.01-.455.114-.032.083-.088.157-.115.23h-.117c-.029.196-.077.38-.109.568h-.114a1.83 1.83 0 0 1-.117.218h-.23c-.108.17-.223.314-.345.479h-.224v.109h-.22v.109h-.586c-.416.457-.828.915-1.243 1.37-.2.04-.392.08-.575.111-.077.117-.152.231-.237.338-.144.048-.296.082-.442.117-.045.074-.08.162-.128.228h-.223c-.038.123-.08.226-.115.354h-.112c-.08.117-.151.22-.234.338h-.223a2.166 2.166 0 0 0-.112.234 8.468 8.468 0 0 0-.572.104c-.043.069-.078.148-.112.228h-.226v.112h-.344c-.231.266-.463.534-.694.795h-.227v.12h-.229v.106h-.567c-.045.082-.08.16-.111.229h-.23v.12h-.34c-.157.308-.309.603-.466.917a8.451 8.451 0 0 0-.57.106c-.143.202-.295.383-.454.575-.195.04-.373.074-.567.117-.046.074-.08.151-.115.22h-.229v.12c-.194.042-.386.077-.567.109-.045.08-.077.16-.125.231-.149.045-.295.08-.458.112-.103.162-.223.308-.338.463-.186.04-.38.077-.572.117v.109h-.226c-.032.074-.075.151-.115.231h-.335v.117c-.082.032-.165.07-.229.112-.114.17.035.337-.114.454h-.34v.104h-.24c-.035.088-.07.154-.112.237h-.687v.111h-.224c-.034.078-.08.141-.114.23a8.58 8.58 0 0 1-.572.108c-.08.165-.155.311-.224.46-.215.16-.535.014-.814.107v.135h-.221c-.037.061-.072.141-.115.224h-.795l-.115.109c-.101.207-.173.292-.229.569-.191.029-.38.066-.564.12a2.28 2.28 0 0 0-.117.228c-.42.03-.841.066-1.262.106-.226.314-.452.612-.681.912h-.453v.112h-.34c-.046.08-.08.16-.115.229h-.684v.122h-.468c-.032.117-.078.229-.11.338h-.114c-.08.117-.152.229-.226.343h-.226c-.04.07-.083.149-.115.229-.242.151-.495-.011-.798.114v.114c-.157.027-.306.08-.469.115v.114h-.346a4.28 4.28 0 0 1-.22.338h-.23c-.034.08-.085.149-.109.228-.151.035-.308.08-.458.117-.031.072-.082.152-.114.224-.229.045-.452.077-.681.114-.046.08-.08.157-.115.226-.157.043-.303.083-.452.122-.16.187-.306.375-.469.572-.178.035-.375.072-.567.117-.034.064-.08.144-.114.224h-.221v.114h-.804c-.191.231-.386.452-.58.675h-.908v.12h-.226c-.035.074-.088.154-.112.226h-.575v.117h-.226c-.112.186-.229.386-.349.564h-.332v.122h-.24c-.032.067-.072.152-.112.231h-.692v.112h-.22c-.032.07-.075.149-.11.226a9.744 9.744 0 0 0-.57.117c-.08.298-.124.32-.343.452v.117c-.24.035-.452.075-.681.115a2.318 2.318 0 0 0-.125.228c-.32.144-.657-.048-.91.11-.259.305-.535.606-.796.909-.42.162-.844.305-1.262.468-.255.29-.53.598-.804.904-.186.037-.378.082-.561.117-.11.191-.224.367-.338.564-.274.082-.538.162-.81.23-.146.198-.3.392-.452.57-.08.045-.152.077-.229.117v.237l-.229.223h-.22c-.12.149-.232.308-.35.452-.33.197-.122-.157-.454.229h-.112c-.115.173.021.34-.115.457h-.237c-.031.077-.069.138-.111.229-.15.042-.296.077-.46.111v.11c-.067.053-.147.08-.222.116v.227a1.703 1.703 0 0 1-.231.114v.237h-.115c-.032.069-.077.148-.111.226h-.346c-.19.26-.373.529-.565.8v.22c-.308.237-.615.458-.92.69-.24.414.084 1.247-.115 1.71-.075.04-.147.063-.226.116v.226h-.115c.045.487.083.99.115 1.484.08.037.151.077.226.125.157.346-.053.729.114 1.016.197.14.386.308.583.457v.338h.099v.231l.354.333c.378.085.758.165 1.136.231.117.197.232.383.338.58h.46c.043.069.08.149.112.231h.237v.11h.344c.058.108.149.225.229.34h.79c.194.223.386.454.572.68h.458c.083.112.155.229.221.343h3.777c.032-.069.082-.151.114-.231h.227v-.112h.798c.08-.111.152-.226.237-.338h.34v-.12h.23c.037-.068.069-.14.111-.223h.456c.04-.08.066-.148.122-.23.22-.03.444-.078.665-.11.112.128 0 .013.125.11-.066.23.02.108-.125.23-.138.535-.41.535-.787.793-.08.117-.155.231-.227.348l-.468.12c-.147.183-.296.377-.442.566h-.69v.12c-.148.024-.313.061-.457.112v.111h-.458c-.077.115-.157.229-.226.338h-.455v.114c-.16.038-.304.083-.463.117v.117h-1.028a5.376 5.376 0 0 0-.12-.348c-.127-.13-.037 0-.106-.223-.194-.038-.375-.083-.564-.115-.056-.077-.086-.162-.115-.223h-.24v-.12h-1.136c-.037-.109-.08-.228-.12-.337h-.79a6.334 6.334 0 0 1-.117-.23c-.19-.042-.38-.079-.567-.119a1.7 1.7 0 0 1-.115-.231c-.237-.037-.463-.067-.692-.117v-.112c-.223-.032-.455-.069-.684-.111-.066.183-.1.273-.111.571-.645-.029-.418-.16-.796-.348a4.737 4.737 0 0 1-.573-.112c-.383-.415-.771-.83-1.141-1.252h-.344a1.053 1.053 0 0 1-.567-.689c-.923-.231-.316-.617-.57-1.367h-.116v-.223c-.078-.045-.157-.075-.237-.11v-.69h-.12v-.216a1.022 1.022 0 0 0-.22-.125v-1.6c.082-.027.161-.073.22-.11.056-.2.088-.385.12-.569.08-.045.16-.08.237-.122v-.231h.117v-.796c.122-.327.51-.598.907-.68.067-.311.17-.476.346-.678h.107v-.23c.12-.079.231-.161.343-.23v-.338c.115-.157.296-.013.455-.125.125-.226.23-.458.338-.678.16-.037.304-.09.471-.12.112-.143.227-.306.341-.457.194-.03.375-.072.57-.11.074-.108.146-.228.223-.342h.23c.29-.205.43-.668.569-1.032.194-.032.394-.061.577-.11v-.23h.227c.276-.54.447-.471.905-.798.04-.08.085-.144.12-.226h.228v-.112c.304-.2.203.112.344-.34h.226v-.229c.266-.074.266-.101.463-.223v-.115h.458v-.122c.229-.07.452-.149.676-.231v-.115h.223c.12-.188.237-.38.352-.569h.338v-.111h.231c.046-.08.078-.147.12-.224.181-.04.378-.082.57-.117.154-.191.295-.377.455-.569.186-.032.378-.077.57-.117.034-.072.08-.151.114-.226h.234v-.112h.335c.035-.071.078-.162.112-.226h.695v-.12h.213c.165-.188.309-.38.468-.576.349-.035.684-.072 1.014-.115.043-.063.088-.143.125-.223.147-.032.304-.072.453-.114.082-.112.154-.232.226-.346h.24c.034-.08.069-.141.112-.223.263-.035.524-.078.795-.107.078-.12.152-.231.235-.345h.678v-.115h.221c.048-.082.088-.154.123-.226.189-.048.383-.077.564-.114.16-.192.311-.388.466-.58h.458c.031-.069.069-.146.111-.226h.23v-.114h.34c.194-.224.378-.452.567-.684h.458c.045-.074.077-.143.125-.223h.215v-.114h.466v-.115c.146-.042.296-.077.455-.114.035-.072.067-.154.112-.231h.229c.035-.072.072-.165.112-.226h.34c.048-.078.083-.155.112-.23.2-.042.394-.076.572-.108.046-.083.08-.165.112-.229h.226v-.122h.352c.152-.181.3-.375.458-.567.263-.074.535-.154.798-.228.08-.115.146-.226.224-.343.165-.03.311-.072.468-.115v-.106h.799v-.12h.223c.037-.08.08-.162.117-.228.187-.04.376-.08.567-.112.147-.197.309-.386.453-.566h.69v-.12h.236c.144-.186.29-.386.45-.572h.681v-.111h.23c.079-.123.148-.232.23-.346h.347c.04-.07.074-.152.109-.226h.45v-.12h.468c.15-.194.293-.372.455-.564h.224c.072-.111.151-.223.231-.34.495-.316.817.085 1.022-.7.378-.058.618-.177.927-.332v-.111h.335c.035-.08.07-.152.117-.23h.226v-.119h.338c.2-.22.378-.444.567-.675h.455c.048-.085.08-.146.115-.237h.229v-.106h.354c.136-.09.122-.452.226-.57.114-.156.269-.013.455-.116.07-.11.144-.232.23-.351h.452c.08-.112.16-.229.223-.335h.46l.919-1.027h.458c.18-.228.375-.452.567-.683h.457c.15-.192.306-.383.453-.575.191-.037.386-.066.567-.103.194-.242.388-.463.58-.692h.458c.077-.12.146-.228.229-.343h.452c.157-.303.309-.617.466-.906h.216c.045-.094.082-.16.117-.23.154-.044.303-.079.463-.108v-.12c.306-.045.599-.074.907-.12.16-.106.032-.268.112-.457h.115v-.226c.109-.072.229-.146.346-.229v-.114h.22c.198-.229.392-.452.586-.683h.33c.048-.077.077-.152.115-.224h.237c.031-.082.069-.162.109-.228h.229c.197-.23.378-.455.572-.7v-.22a1.84 1.84 0 0 1-.232-.232h-1.6c-.183.277-.077.08-.345.232v.109h-.338a2.967 2.967 0 0 1-.12.244h-.224v.112h-1.482v.117c-.152.03-.301.066-.46.109v.114h-1.137v.115h-.224c-.05.066-.08.146-.117.228h-1.027v.112h-.232a2.663 2.663 0 0 1-.117.229h-.801a6.16 6.16 0 0 1-.224.337h-4.447c-.19-.268-.078-.08-.352-.223v-.114h-.338v-.117c-.117-.077-.229-.152-.343-.224v-.228h-.115v-.338h-.109c-.127-.189-.162-.197-.226-.473h.115v-.224c.069-.037.146-.066.22-.117v-.56h.115v-.23c.26-.223.538-.452.798-.68h.338v-.115c.08-.048.163-.082.232-.111v-.242c.112-.035.226-.08.351-.104v-.112c.181-.162.373-.31.567-.465v-.343c-.18-.064-.194-.085-.452-.12-.312.415-.698.16-1.153.349v.114c-.143.048-.303.077-.455.112v.114h-.45v.117c-.162.043-.308.077-.455.122v.112h-.223a.976.976 0 0 0-.12.218h-.229v.128h-.921c-.032.063-.077.143-.112.226h-.226v.111c-.34.125-.652-.032-.91.117a1.53 1.53 0 0 0-.115.23h-1.144c-.035.074-.07.14-.11.222-.202.035-.38.08-.577.107-.037.085-.08.154-.114.234h-.224v.112h-.695c-.037.08-.072.156-.111.228h-.216v.11h-1.379c-.074.116-.149.23-.229.34h-.226v.111c-.149.053-.306.083-.452.133v.112h-1.834v.117h-.224c-.037.066-.082.144-.117.223h-2.513c-.031-.08-.082-.157-.114-.223h-.229v-.117h-.804s-.021-.08-.215-.112c-.16-.197-.306-.396-.469-.585h-.114c-.035-.14-.064-.306-.117-.45h-.11v-.233h-.111v-.22h-.115c-.205-.386-.226-.764-.226-1.373.234-.128.562-.324.679-.57v-.342c.114-.088.226-.146.343-.231.253-.245.588-.75.692-1.141.181-.04.375-.072.567-.107.045-.082.067-.154.117-.226.203-.111.511-.024.684-.236v-.232l.221-.223h.237c.072-.117.157-.234.224-.343.223-.085.45-.144.692-.229.229-.255.455-.529.681-.795h.34v-.112h.238c.026-.077.072-.156.106-.226.146-.05.309-.082.453-.12.165-.228.306-.454.455-.69h.346c.034-.072.074-.144.122-.221h.23v-.117c.303-.117.553.048.792-.117.23-.25.453-.535.682-.79.247-.165.593.03.913-.117.04-.077.074-.141.111-.229.195-.042.389-.08.578-.111.035-.08.07-.163.117-.226.3-.272.599-.535.916-.809h.785v-.223h.117c-.035-.112-.07-.232-.117-.34l-.905-.12v.12h-.226c-.083.108-.152.228-.232.34h-.572v.111c-.155.038-.296.078-.46.112v.115h-1.025c-.115.16-.23.305-.341.465h-.226v.12c-.101.018-.328-.213-.57-.12v.12a4.855 4.855 0 0 0-.567.109 1.144 1.144 0 0 0-.122.226h-.232v.111h-.798c-.078.12-.144.229-.224.346h-.452v.109h-.232v.112h-.924v.12h-.226c-.066.108-.149.228-.223.342h-.573v.107c-.138.034-.306.082-.452.117v.117h-1.025c-.045.077-.077.149-.112.22h-.242c-.098.165-.223.309-.338.463h-2.05v-.348h.115v-.115h.684v-.109h.23c.031-.071.079-.156.11-.228h.682c.163-.178.309-.367.469-.567.18-.037.375-.085.567-.12v-.111h.229c.031-.08.08-.144.111-.226h1.706v-.11c.408-.31.046-.18.23-.456.108-.048.234-.083.35-.11.379-.236.39-.337 1.023-.343.149.25.175.296.567.344.127-.237.332-.599.567-.7h.585v-.112c.144-.034.296-.066.455-.111v-.112h1.813c.133-.151.242-.308.349-.465.157-.024.306-.072.46-.107v-.114h1.262c.074-.112.138-.226.218-.335h.809c.181-.234.367-.457.567-.686.386-.194.934.09 1.254-.112.226-.274.455-.537.689-.805.255-.163.607.007.916-.12v-.112h.22c.04-.069.083-.157.115-.226.226-.037.458-.08.681-.12.05-.077.083-.138.117-.218h1.262v-.122h.226a1.47 1.47 0 0 1 .117-.218c.147-.037.304-.085.453-.112a1.25 1.25 0 0 1 .114-.231c.227-.043.45-.085.682-.122.08-.107.157-.221.229-.33h.34c.157-.197.309-.388.466-.582.112-.038.232-.072.34-.115.035-.069.08-.146.118-.231h.559c.223-.077.548-.282.687-.455.308.045.798.255.91.455v.346h.128c.031.111.066.228.111.34h-.111c-.323.503-.751.271-.924 1.037zM350.058 220.769c1.818 1.744 3.109 3.895 3.78 6.142-.48.24-.932.55-1.411.787-.67-2.364-1.818-4.563-3.828-6.26l1.315-.741.144.072zm6.84 13.742c-1.29 0-2.102-.933-2.102-1.912v-15.726h-6.7l-.024 10.182c0 3.513-2.392 6.475-5.238 8.557l-1.315-1.149c2.367-1.624 4.855-4.159 4.975-7.169l.048-1.292.024-10.586h9.76v16.609c0 .502.264 1.053.932 1.053l2.01-.024c.79 0 1.005-.981 1.077-1.364.168-.86.38-1.72.455-2.604l1.507.431c-.096 1.338-.767 4.994-2.417 4.994h-2.992zM386.097 234.056h-20.692l-.024-1.433h3.732l.024-12.953h1.53v12.953h5.19l-.02-17.806h1.506v7.29h7.032v1.435h-7.032v9.081l8.73-.024zM399.913 217.877c-.86-1.337-2.081-2.508-3.468-3.202l1.078-.933c.524.168.98.55 1.435.886.835.595 1.602 1.553 2.225 2.316l-1.27.933zm-4.33 1.72c.095.814.359 1.793.598 2.63.024.072.096.168.072.24.5 1.385 1.054 2.747 1.89 3.967.48.668.98 1.41 1.605 1.912 2.246-2.414 3.442-5.544 4.016-8.748h-8.181zm-6.458 14.724c3.373-1.125 6.769-2.319 9.545-4.853-2.582-2.675-3.923-6.262-4.618-9.894h-3.968l.021-1.434h19.113v1.434l-3.9.024c-.643 3.584-1.985 7.123-4.45 9.822 2.729 2.367 6.056 3.657 9.425 4.707l-1.05 1.245c-3.373-1.077-6.65-2.487-9.45-4.853-.62.359-1.195.957-1.794 1.364-2.416 1.6-5.022 2.795-7.75 3.704l-1.124-1.266zM433.368 233.723c-.096.74-.551 1.529-1.339 1.697-.766.143-1.626.047-2.417.071l-.524-1.577c1.027.141 1.911.36 2.582-.239.24-.359.311-.718.24-1.268v-18.402h1.482l-.024 19.718zm-4.999-2.867h1.483v-14.101h-1.483v14.101zm-3.255-.17l-5.74-.021v2.22h5.74v-2.199zm0 4.877l.024-1.41h-5.765v1.625h-1.48v-6.358h8.706v6.143h-1.485zm-.644-10.206h-6.963v1.436l6.963-.026v-1.41zm-6.963-2.555v1.313l6.963.024v-1.316l-6.963-.021zm-.048 5.28c-.14 2.463-.955 4.755-2.51 6.667l-1.245-.787c.335-.407 1.054-1.675 1.174-1.936 1.195-1.983 1.099-3.895 1.125-6.142l.022-4.04c-.572.48-1.746 1.218-2.417 1.506l-.644-1.266c1.985-1.077 3.731-2.917 5.025-4.781.788-1.122 1.36-2.316 1.911-3.56l1.294.573c-.024.216-.144.431-.24.647l.096.071c2.63.74 4.759 2.223 6.625 4.205l-1.076.909c-2.704-2.797-3.42-2.797-6.172-3.848-.072 0-.192.072-.12.096-.503.742-.86 1.505-1.458 2.343h5.74v1.409h-6.816c-.17.24-1.341 1.314-1.434 1.314l9.614.047.024 6.574h-8.518zM443.835 222.49v2.367l9.617.021v-2.388h-9.617zm-.024 6.403h9.665v-2.603h-9.665v2.603zm2.393-15.008c-.215.91-.575 2.151-.838 3.085h12.608v1.41l-13.204.023c-.41 1.149-.623 1.816-1.078 2.678h11.29v12.402c-.072.644-.527 1.125-1.147 1.338-.958.239-2.105.095-3.109.143a34.46 34.46 0 0 1-.694-1.505c.907.12 1.89.12 2.824.072.38-.024.524-.144.644-.503l.024-2.699-9.689-.026v5.212h-1.554v-12.166c-1.171 1.744-2.92 3.492-4.402 4.997-.48-.216-.884-.647-1.363-.91 2.965-2.606 5.43-5.616 6.625-9.033l-5.262-.024v-1.41h5.813c.407-1.074.694-2.294.98-3.416l1.532.332zM478.296 220.649l-7.035.024v3.082h7.035v-3.106zm-7.056-1.385l7.08-.024v-2.894h-7.059l-.02 2.918zm0 13.838c1.222-.599 2.537-1.053 3.78-1.58v1.481c-1.698.721-3.349 1.508-5.05 2.223-.404-.335-.883-.643-1.266-.978.742-.36 1.054-1.005 1.054-1.768v-17.543h10.069v10.23h-4.16c.12 1.385.164 2.412 1.024 3.943h.099c1.221-1.005 2.536-2.031 3.635-3.18l1.102 1.077c-1.29 1.266-2.8 2.34-4.186 3.37 1.027 1.744 2.725 3.105 4.546 3.775-.027.024-.075.096-.075.144-.311.359-.527.79-.836 1.122-2.56-1.003-4.929-3.68-5.908-6.188-.527-1.385-.743-2.51-.91-4.087h-2.942l.024 7.959zm-9.403-18.237h6.555v1.481c-.62 1.769-1.387 3.657-2.13 5.38 1.555 1.457 2.825 3.37 2.324 5.616-.215.955-1.006 1.984-1.964 2.271-.647.287-1.506.189-2.201.093l-.36-1.625c.767.144 1.795.479 2.465-.048.695-.523.767-1.505.6-2.318-.31-1.458-1.27-2.7-2.49-3.75.815-1.866 1.555-3.73 2.18-5.666h-3.494v19.215h-1.507l.022-20.649zM491.898 215.2h7.604c.91 3.561 2.54 7.266 5.96 9.321l-1.078 1.149c-.812-.359-1.578-1.03-2.153-1.675-1.986-2.149-3.181-4.638-3.996-7.313h-6.363l.026-1.481zm7.463 11.784c2.082 1.983 3.54 4.515 4.376 7.169-.5.263-1.003.526-1.53.739-.24-.859-.62-1.861-1.004-2.675l-4.81.787-4.641.67c-.932.144-1.794.383-2.702.55-.36-.55-.764-1.074-1.078-1.627 1.461-1.218 2.635-2.747 3.59-4.372 1.148-1.983 1.938-4.11 2.32-6.379.526.141.981.428 1.508.572-.191 1.385-.668 2.725-1.198 4.015-.931 2.223-2.344 4.255-4.064 5.975l.62-.048 4.69-.67c1.722-.239 3.394-.574 5.094-.81-.74-1.173-1.58-2.272-2.63-3.229l1.46-.667zm-7.178-8.725c-.74 2.39-2.39 4.518-4.33 6.334-.07 0-.118.072-.142.144l-1.099.882h-.12l-1.15-1.098a18.205 18.205 0 0 0 3.9-3.752 10.87 10.87 0 0 0 1.65-3.321l1.29.81zM520.973 224.904h-6.912l-.021 4.087 6.933-.024v-4.063zm.05 7.265v-1.72l-6.962.023v1.768h-1.578v-8.82h10.14l-.023 8.749h-1.576zm7.461 1.385c0 .718-.455 1.412-1.05 1.745-.815.263-1.747.167-2.655.167h-.886l-.575-1.649c.956.072 1.962.12 2.92.072.287-.024.527-.311.596-.572v-16.97l-15.906-.024v-1.481l17.532.024.024 18.688zm-3.25-12.88h-15.503v-1.506l15.504.024v1.481zM57.355 201.887c-.216-.024-.407-.144-.452-.311-.671-1.864-1.174-3.585-2.753-5.018l.264-.335c1.387.67 2.75 1.433 3.827 2.606.453.476.6 1.266.333 1.888-.216.503-.596 1.098-1.219 1.17zm3.229-10.825c-1.028-.096-1.938.191-2.582 1.026-.599-.237-1.03-.691-1.555-1.146-1.865-1.577-3.35-3.609-3.827-5.927-1.222 2.031-2.776 4.087-4.618 5.712h5.334l.719-1.027c.215-.215.407-.096.79.237.333.263.908.837 1.171 1.149.072.215-.024.31-.263.332h-2.824v2.63h2.92l.934-1.17c.24-.311.548-.072.836.191l1.314 1.242c.048.072.12.36-.024.407l-.117.024h-5.885V203.036c-.215 1.074-1.389 1.457-2.273 1.79l-.311.12c.024-.956-.862-1.721-1.578-2.056-.432-.213-.887-.333-1.366-.453l.05-.382c1.1.12 2.175.406 3.301.287.168-.12.213-.36.24-.55v-7.05h-2.824c-.668 0-1.315.12-1.938.287-.168-.335-.311-.67-.479-.981h5.24v-2.63h-1.413c-.407.05-.835.12-1.219.194l-.479-.79c-.814.79-1.913 1.458-2.893 1.984l-.215-.287c3.18-2.582 5.357-6.143 6.529-9.847.79.191 1.53.479 2.273.79.12.095.167.263.095.383-.215.191-.479.191-.67.407 1.317 3.153 4.522 5.448 7.705 6.331l-.098.479zm-10.908 6.116c-1.17 1.962-2.75 3.85-4.663 5.188l-.431-.192c.335-.359.644-.766.907-1.122 1.246-1.768 2.034-3.467 2.465-5.592.815.332 1.483.667 2.201 1.002.12.072.192.264.096.36-.168.167-.36.215-.575.356zm-2.582-12.187c-.311 0-.742.072-.982.287-.383.287-.74.548-1.243.955-1.722 1.46-4.115 3.084-6.076 4.11l-.216-.26c2.489-2.082 4.879-4.326 6.34-7.1.764.455 1.53 1.005 2.273 1.53.19.215.12.478-.096.478zm-.862 4.898c-.575.718-1.315 1.436-1.938 2.082l.024 8.172.096 3.632c.024.191-.168.215-.407.359-.572.24-.958.335-1.459.43-.167.049-.287-.047-.287-.215l.12-3.847v-6.98c-1.22.837-2.465 1.699-3.804 2.246-.072-.093-.144-.191-.215-.287 1.386-1.194 2.824-2.531 4.043-3.896 1.051-1.193 1.913-2.435 2.701-3.725l1.917 1.338c.12.071.14.263.095.359-.242.191-.646.191-.886.332zM74.162 188.313c.668.12 1.362.36 2.033.527.36-.383.719-.718 1.004-1.149.455.24.934.479 1.341.838.048.117-.12.189-.192.215-.455 0-.79.287-1.15.548.504.215 1.03.598 1.198 1.149.024.359 0 .739-.335.906-.096.072-.24.048-.311 0-.527-.43-.983-.93-1.53-1.337-.72.359-1.412.838-2.178 1.125l-.24-.218c.575-.452 1.148-.907 1.698-1.434-.452-.359-1.003-.643-1.458-.837l.12-.333zm-2.297-3.465h-3.11l1.364.883c.095.12-.024.264-.12.335-.884-.095-1.578.455-2.297.718l4.163.046v-1.982zm-4.664 3.513c.716.144 1.411.383 2.082.62.357-.428.692-.883.98-1.362l.143.048c.48.335.91.622 1.315 1.005-.024.36-.5.192-.74.288-.263.093-.431.356-.67.5.478.31 1.146.837 1.05 1.528-.071.192-.12.431-.359.527l-.284-.024-1.294-1.266-.192.072c-.572.455-1.243.883-1.91 1.17l-.216-.215c.524-.5 1.123-1.075 1.602-1.625a13.415 13.415 0 0 0-1.65-.955l.143-.31zm2.894 3.106c.527.24 1.054.622 1.506.955.096.167-.12.215-.24.242a.837.837 0 0 0-.428.093c-.215.146-.431.287-.623.478.48.312 1.006.766.932 1.41-.072.263-.19.526-.407.718-.094.072-.261 0-.31-.048-.382-.383-.742-.883-1.146-1.242a30.265 30.265 0 0 1-2.106 1.338l-.266-.24c.623-.547 1.102-1.122 1.677-1.744-.431-.383-.862-.622-1.437-.93l.167-.36c.647.12 1.222.383 1.818.572l.863-1.242zm-6.1 11.807c-.262 0-.597.12-1.411.287l-.551-.955h9.712v-2.582h-5.837c-.357 0-.884.093-1.507.213l-.527-.883h7.847v-1.744h-7.104c-.383 0-.862.072-1.459.191l-.43-.861 17.39-.024.956-1.146c.048-.072.263-.096.407 0 .67.55 1.171.91 1.794 1.505.12.12.024.335-.12.335h-9.568v1.744h5.049l.98-1.074c.071-.072.287-.099.383 0 .668.524 1.15.859 1.746 1.385.12.096.024.36-.096.36h-8.062v2.581h4.043l-.024-.122c-.527-.74-1.1-1.577-1.962-1.984l.12-.284c1.054.095 2.273.095 2.92.978.213.503 0 1.027-.336 1.412h2.154l1.027-1.316c.048-.12.335-.096.407 0l1.818 1.625c.096.096.024.359-.096.359H63.994zm12.176-8.483c.788.07 1.722.189 2.537.117.14 0 .332-.117.356-.263V187.5h-5.43v7.073l.12-.07c.575-.573 1.27-1.124 1.818-1.794-.476-.332-.91-.5-1.506-.811l.072-.311c.67.096 1.29.287 1.937.502.288-.406.48-.646.719-1.053l.141.048 1.294 1.053a.163.163 0 0 1-.096.216c-.216.024-.336.024-.551.095-.096 0-.168.072-.24.12.455.26 1.126.715 1.147 1.338 0 .215-.069.406-.188.571a.403.403 0 0 1-.432.048c-.455-.38-.91-.859-1.41-1.17-.815.503-1.65 1.053-2.657 1.481l-.167-.165c0 .261.024.476 0 .716.024.167-.024.335-.072.383-.405.191-.86.356-1.387.523-.215.051-.287-.093-.287-.212l.048-4.59V187.5l-5.239.024v8.198c-.024.12-.095.263-.24.31a7.866 7.866 0 0 1-1.194.456c-.168.045-.36-.075-.383-.195l.047-3.39v-4.781l-.215.024c-1.051.359-2.034.598-2.968.885l-.215-.335c2.203-1.005 4.282-2.151 6.172-3.848H63.97c-.455 0-.955.12-1.41.213l-.503-.883h17.726l1.051-1.265c.12-.072.264-.027.36.024l2.057 1.6c.12.096.024.311-.12.311H73.66v1.982h5.07l.383-.261c-.86-.455-1.842-.646-2.821-.79l-.335-.048.024-.383c2.153-.14 4.33 0 6.172.742.548.216 1.1.74 1.243 1.338.072.287.024.598-.096.838-.096.191-.311.287-.5.212l-1.63-1.002c-.143-.024-.215.12-.335.167l-.02 7.121c0 .575-.408 1.101-.935 1.362-.48.266-1.03.362-1.53.503-.216-1.075-1.363-1.194-2.226-1.41l.048-.428zM96.71 194.145c.527 1.6 1.195 3.153 2.417 4.47 1.1-1.364 1.794-2.917 2.318-4.446l-4.735-.024zm6.029-4.566c0 .287.144.359.335.407.884.12 1.65-.072 2.342-.455l.192.024c.407.43.886.79 1.246 1.316.096.237 0 .383-.219.476-1.075.479-2.51.335-3.728.335-1.581 0-2.178-.595-2.178-1.313v-5.042l-2.488-.027c0 2.678.024 4.758-1.435 6.074-.743.667-1.435 1.218-2.225 1.694-.144-.024-.216-.192-.311-.26l.047-.145c1.39-1.34 2.13-3.132 2.154-5.14.024-1.337-.072-2.627-.096-3.943l.168.048c.55.335 1.101.598 1.626.98h2.345c.24-.334.479-.645.692-.956.146-.165.335-.12.503 0 .742.502 1.006.718 1.653 1.244.284.285-.647.668-.647.979l.024 3.704zm4.304 13.55c-1.459.073-2.414.384-3.157 1.365-1.722-.862-3.252-2.082-4.64-3.54-.981.695-2.009 1.41-3.11 1.96-1.675.814-3.42 1.434-5.287 1.793l-.191-.36c2.776-1.05 5.384-2.483 7.559-4.658-1.006-1.72-1.842-3.585-2.225-5.449l-.764.12-.695-.91h6.939l.692-.882c.096-.096.311-.12.527 0 .144.095.644.454 1.243.93.36.312.623.407.431.718-.263.312-.719.335-.955.647-.456.715-.72 1.576-1.174 2.292-.551.885-1.123 1.864-1.866 2.63 2.01 1.505 4.307 2.39 6.769 2.866l-.096.479zm-18.083-2.77h2.773v-3.872H88.96v3.872zm-.6-17.542c1.055.476 2.537.93 2.944 1.935.192.764-.335 1.41-.814 1.912a.488.488 0 0 1-.48.048c-.188-.024-.26-.239-.334-.383-.31-1.17-.669-2.27-1.603-3.177l.288-.335zm-1.266 13.862c0-.79-.048-1.34-.144-1.915.836.314 1.459.622 2.273 1.005h2.345l.644-.81c.144-.168.383-.168.551-.027l1.459 1.029c.383.572-.62.646-.62 1.122v2.151l.095 2.319c0 .263.022.383-.096.479-.383.26-.982.574-1.605.643-.165.024-.236-.096-.263-.236v-1.365H88.96v2.008c0 .192-.096.311-.312.407-.26.096-.644.287-1.195.43-.12.025-.407.049-.407-.095l.048-2.486v-4.66zm5.238-4.805c.048-.072.36-.096.431 0 .551.502 1.054.91 1.507 1.457.095.096.047.335-.165.335h-5.217c-.551 0-.815.072-1.315.215l-.719-.933h4.594l.884-1.074zm.12-2.87c.071-.093.335-.188.527-.045.524.452.811.716 1.458 1.314a.277.277 0 0 1-.167.407h-5.502c-.575 0-1.123.093-1.722.212l-.596-.906h5.163l.839-.982zm1.15-3.297c.14-.143.335-.143.503 0a17.24 17.24 0 0 1 1.602 1.577c.093.191 0 .359-.168.359h-8.062c-.431 0-.79.048-1.578.24l-.623-.934h7.295l1.03-1.242zM128.227 189.604c.048-.072.312-.072.36.024.644.574 1.147 1.026 1.698 1.648.072.096.024.24-.048.312l-5.382.047v7.911c0 1.434.096 2.652.168 4.3.024.264-.192.383-.79.575l-1.148.383c-.191.071-.335-.144-.311-.312l.096-4.754v-8.103h-2.68c-.453 0-1.028.168-1.555.288l-.62-.982h4.855v-4.443c0-1.22-.048-2.582-.096-3.922.907.287 1.746.55 2.582.957.146.096.167.24.122.383-.216.26-.527.359-.623.715v6.31h2.438l.934-1.337zm-15.597 11.35h3.255v-4.11h-3.255v4.11zm-.428-18.52c1.123.429 2.294.716 3.252 1.602.192.239.312.526.264.858-.12.623-.503 1.317-1.126 1.577-.144.048-.311-.024-.431-.14-.573-1.269-1.076-2.583-2.199-3.564l.24-.332zm5.74 20.338c.025.479-.382.572-1.388.957-.36.117-.692.141-.692-.167l.023-1.915H112.606v1.888c0 .194-.021.311-.335.431-.453.191-.908.479-1.41.598-.192.024-.288-.191-.264-.287.024-.694.072-1.29.072-1.96l.024-3.895-.12-2.963.024-.12c.79.24 1.485.548 2.225.788h2.989l.719-1.003c.071-.12.359-.167.527 0 .67.479.931.692 1.506 1.194.192.311-.575.599-.695 1.098l-.02 3.157.095 2.199zm-2.152-9.799l.907-1.338c.072-.12.312-.12.407 0l1.794 1.506c.12.095.216.263.12.43l-.167.096h-6.721c-.431 0-.743.045-1.7.24l-.597-.934h5.957zm0-3.25l.907-1.337c.072-.12.312-.12.407 0l1.794 1.502c.12.099.216.266.12.407l-.167.12h-6.721c-.431 0-.743.024-1.7.215l-.621-.906h5.98zm1.722-2.988l.955-1.338c.072-.12.264-.12.384 0l1.793 1.505c.12.096.216.263.12.43l-.191.097h-9.856c-.429 0-.74.048-1.699.239l-.622-.933h9.116zM149.054 201.338l1.387-2.008c.167-.096.359-.144.503-.024.835.67 1.65 1.457 2.438 2.271.098.072.266.407.026.503l-.167.071h-18.73l-1.89.213-.743-1.002 9.353-.024v-13.886h-5.046c-.503 0-1.102.095-1.818.215l-.766-1.003h13.803l1.386-1.696c.12-.096.312-.12.527 0 .908.74 1.579 1.17 2.37 1.936.092.093.26.359.045.452l-.165.096h-8.23v13.886h5.717zM173.514 196.104c.096-.144.312-.168.456-.024 1.075.859 1.626 1.242 2.2 1.84.073.12.12.263.025.383l-.36.096h-6.96c0 1.792 0 3.512.045 5.233-.02.335-1.003.766-1.743.981-.192.093-.503.021-.527-.167 0-.264.024-.718.024-1.101l.048-4.444v-10.42h-.743l-1.698 2.605-2.534 3.25-.434-.192c2.01-3.584 3.926-7.384 4.523-11.591.886.311 1.841.502 2.704.885.12.072.12.26.072.36-.216.14-.455.236-.647.427-.5 1.194-.98 2.391-1.602 3.537h6.22l.98-1.672c.12-.19.287-.336.502-.216.935.718 1.77 1.364 2.558 2.247.099.168 0 .311-.167.36h-7.605l-.024 4.158h3.229l1.1-1.481c.119-.144.287-.096.43-.024.743.548 1.483 1.098 2.13 1.72.047.072.095.144.071.261 0 .072-.071.168-.143.218h-6.793v4.372h3.564l1.1-1.601zm-14.423-4.757c-1.078 1.936-2.44 3.587-3.803 5.331-.168-.048-.24-.239-.36-.359 1.147-1.792 2.201-3.584 3.013-5.52 1.126-2.702 1.82-5.38 2.393-8.198.958.287 1.818.598 2.728.91.141.07.216.238.192.38-.12.382-.743.215-.815.693-.718 1.673-1.338 3.226-2.2 4.994.55.168.814.266 1.34.479.142.096.142.311-.026.43-.26.264-.476.647-.476.838v7.648l.095 3.917c.024.574.048.838-.359 1.125-.455.311-.934.55-1.482.67-.216.021-.288-.168-.288-.43l.024-1.817v-10.47l.024-.621zM199.268 203.274h-17.99c-.573 0-1.052.143-1.675.24l-.574-.862h9.164v-3.178h-4.783l-1.605.143-.551-.765h6.939c0-1.41-.024-2.173-.072-3.25l-.48.024-4.306.5c-.596.074-.647.098-1.195.218-.24.285-.575.335-.695.096-.167-.383-.5-1.34-.694-1.963a.287.287 0 0 1 .167-.189c1.462.144 2.56-.43 3.543-1.46.788-.834 1.578-1.672 2.222-2.579l-2.39-.024c-.503 0-.91.096-1.554.168l-.48-.79h10.86l.887-1.481c.071-.12.263-.12.479 0 .668.622 1.41 1.146 1.91 1.792.1.144-.02.311-.167.311h-6.96c.263.24.623.36.599.694-.096.38-.575.117-.86.285-.814.383-1.51 1.053-2.324 1.532-.98.595-1.937 1.313-3.037 1.648l1.007-.072 5.884-.191 3.133-.215c-.934-.883-2.153-1.506-3.252-2.152.024-.143.072-.287.165-.43 2.177.382 4.282 1.005 6.172 2.103.503.383.958.885.982 1.577 0 .598-.144 1.268-.719 1.555-.455.12-.596-.313-.91-.502l-1.504-1.412-5.097.742c.6.215 1.124.335 1.603.598.287.622-.647.476-.767.979v1.888h3.782l1.076-1.242c.095-.096.479-.144.622 0l1.818 1.457c.096.168.096.407-.12.407h-7.2v3.178h5.43l1.172-1.482c.12-.191.335-.143.527 0 .955.718 1.554 1.218 2.033 1.745.144.167.024.359-.215.359m1.075-15.511c-.261.167-.86 0-1.315.048-1.1.143-1.914.907-2.821 1.433l-.36-.284a20.32 20.32 0 0 0 1.124-2.056h-14.76c.049 1.29-.023 2.627-1.173 3.393-.524.335-1.267.572-1.89.287a1.198 1.198 0 0 1-.644-.718c-.096-.239 0-.478.12-.667 1.243-.862 2.75-2.034 2.845-3.635l.024-.357.431-.026c.072.335.192.742.216 1.1h7.008c-.716-1.1-1.482-2.342-2.558-3.227l.213-.357c1.174.12 2.321.335 3.351.811.357.216.884.575.908 1.053.048.694-.216 1.29-.764 1.673l6.505.048 1.03-1.075c.12-.167.405-.12.48-.026.739.718 1.482 1.388 2.102 2.223.048.096.024.263-.072.359M243.54 79.078l.441-.436 72.32 72.251-.44.44z"/>
        <path d="M243.54 79.078l.441-.436 72.32 72.251-.44.44z"/>
        <path fill="#FFF" d="M243.545 150.893l72.322-72.25.433.434-72.319 72.255z"/>
        <path d="M243.545 150.893l72.322-72.25.433.434-72.319 72.255z"/>
    </g>
</svg>
