<?xml version="1.0" encoding="utf-8"?>
<!-- Generator: Adobe Illustrator 23.0.3, SVG Export Plug-In . SVG Version: 6.00 Build 0)  -->
<svg version="1.0" id="圖層_1" xmlns="http://www.w3.org/2000/svg" xmlns:xlink="http://www.w3.org/1999/xlink" x="0px" y="0px"
	 viewBox="0 0 172 19" style="enable-background:new 0 0 172 19;" xml:space="preserve">
<style type="text/css">
	.st0{fill-rule:evenodd;clip-rule:evenodd;}
	.st1{fill-rule:evenodd;clip-rule:evenodd;fill:#DEE100;}
</style>
<g>
	<g>
		<path class="st0" d="M109.3,6c1.3,1.2,2.2,2.7,2.7,4.3c-0.3,0.2-0.7,0.4-1,0.6c-0.5-1.7-1.3-3.2-2.7-4.4L109.3,6L109.3,6L109.3,6z
			 M114.2,15.7c-0.9,0-1.5-0.7-1.5-1.4V3.2h-4.7l0,7.2c0,2.5-1.7,4.6-3.7,6l-0.9-0.8c1.7-1.1,3.4-2.9,3.5-5.1l0-0.9l0-7.5h6.9v11.7
			c0,0.4,0.2,0.7,0.7,0.7l1.4,0c0.6,0,0.7-0.7,0.8-1c0.1-0.6,0.3-1.2,0.3-1.8l1.1,0.3c-0.1,0.9-0.5,3.5-1.7,3.5
			C116.3,15.7,114.2,15.7,114.2,15.7z M135.9,15.3h-14.7l0-1h2.6l0-9.1h1.1v9.1h3.7l0-12.6h1.1v5.1h5v1h-5v6.4l6.2,0L135.9,15.3z
			 M146.7,3.9c-0.6-0.9-1.5-1.8-2.5-2.3L145,1c0.4,0.1,0.7,0.4,1,0.6c0.6,0.4,1.1,1.1,1.6,1.6L146.7,3.9z M143.6,5.1
			c0.1,0.6,0.3,1.3,0.4,1.9c0,0.1,0.1,0.1,0.1,0.2c0.4,1,0.7,1.9,1.3,2.8c0.3,0.5,0.7,1,1.1,1.4c1.6-1.7,2.4-3.9,2.8-6.2
			C149.4,5.1,143.6,5.1,143.6,5.1z M139,15.5c2.4-0.8,4.8-1.6,6.8-3.4c-1.8-1.9-2.8-4.4-3.3-7h-2.8l0-1h13.5v1l-2.8,0
			c-0.5,2.5-1.4,5-3.2,6.9c1.9,1.7,4.3,2.6,6.7,3.3l-0.7,0.9c-2.4-0.8-4.7-1.8-6.7-3.4c-0.4,0.3-0.8,0.7-1.3,1
			c-1.7,1.1-3.6,2-5.5,2.6L139,15.5L139,15.5z M171.4,15.1c-0.1,0.5-0.4,1.1-0.9,1.2c-0.5,0.1-1.2,0-1.7,0l-0.4-1.1
			c0.7,0.1,1.4,0.3,1.8-0.2c0.2-0.3,0.2-0.5,0.2-0.9v-13h1.1L171.4,15.1z M167.8,13.1h1.1v-10h-1.1V13.1z M165.5,13l-4.1,0v1.6h4.1
			C165.5,14.5,165.5,13,165.5,13z M165.5,16.4l0-1h-4.1v1.1h-1.1v-4.5h6.2v4.3H165.5z M165.1,9.2h-4.9v1l4.9,0V9.2z M160.2,7.4v0.9
			l4.9,0V7.4L160.2,7.4z M160.1,11.1c-0.1,1.7-0.7,3.4-1.8,4.7l-0.9-0.6c0.2-0.3,0.7-1.2,0.8-1.4c0.8-1.4,0.8-2.8,0.8-4.3l0-2.9
			c-0.4,0.3-1.2,0.9-1.7,1.1l-0.5-0.9c1.4-0.8,2.6-2.1,3.6-3.4c0.6-0.8,1-1.6,1.4-2.5l0.9,0.4c0,0.1-0.1,0.3-0.2,0.5l0.1,0
			c1.9,0.5,3.4,1.6,4.7,3l-0.8,0.6c-1.9-2-2.4-2-4.4-2.7c-0.1,0-0.1,0.1-0.1,0.1c-0.4,0.5-0.6,1.1-1,1.7h4.1v1h-4.8
			c-0.1,0.2-0.9,0.9-1,0.9l6.8,0l0,4.6L160.1,11.1L160.1,11.1z"/>
	</g>
	<g>
		<path class="st1" d="M0,0.4v18.1h3.8v-7.5h6.6V7.8H3.8v-4h6.6V0.4L0,0.4z M18.7,4.7l-2.2,7.1h4.6L18.7,4.7L18.7,4.7z M27.6,18.6
			h-4L22.3,15h-6.7l-1.1,3.6h-4l6.1-18.1h4.4L27.6,18.6z M44.6,18.6h-3.2L33.1,6.9v11.6h-3.8V0.4h3.4l8,11.1V0.4h3.8V18.6z M63,18.6
			h-3.8v-7.3h-7.5v7.3H48V0.4h3.8v7.3h7.5V0.4H63L63,18.6z M76.5,5.1c-2.2-1.2-3.5-1.6-4.8-1.6c-1.3,0-2.2,0.6-2.2,1.5
			c0,2.7,7.7,2,7.7,8.3c0,3.5-2.4,5.5-5.8,5.5c-2.6,0-3.9-0.8-5.4-1.8v-3.9c2.2,1.7,3.5,2.3,5.1,2.3c1.4,0,2.2-0.6,2.2-1.7
			c0-3-7.7-1.9-7.7-8.4c0-3.1,2.3-5.2,5.8-5.2c1.7,0,3.2,0.4,5.1,1.4L76.5,5.1L76.5,5.1z M94.7,0.4v10.3c0,6-3.4,8.1-7.5,8.1
			c-4.4,0-7.5-2.5-7.5-8.1V0.4h3.8v10.4c0,2.6,1.6,4.2,3.7,4.2c2,0,3.8-1.2,3.8-4.5V0.4L94.7,0.4L94.7,0.4z"/>
	</g>
</g>
</svg>
