<svg xmlns="http://www.w3.org/2000/svg" width="207" height="84" viewBox="0 0 207 84">
    <path fill="#000" fill-rule="evenodd" d="M109.545 75.682v.666c-.2.104-.172.15-.489.193.013-.353.098-.608.191-.86h.298zm.475-.38c-.075.253-.03.21-.29.278.074-.264.022-.21.29-.278zm-5.36 6.124c.124-.594.323-.698.77-.957v-.091a2.5 2.5 0 0 1 .382-.098c.068-.096.12-.191.192-.284.444-.451.978-.806 1.142-1.54h.189c.161-.29.86-.997 1.247-1.047-.037.932-.767.961-.951 1.719h-.199c-.286.257-.572.513-.858.766-.093.216.11.386.098.484h-.098c-.035.118-.064.255-.093.375-.066.03-.128.069-.197.094v.288h-.089c-.126.162-.263.328-.383.486h-.19l-.191.191v.195l-.672.571-.478.669h-1.14v-.1h-.101v-.28c-.094-.058-.187-.127-.297-.195v-.378c-.09-.065-.186-.12-.281-.19v-1.533h-.098v-.193a.678.678 0 0 0-.188-.098v-2.396h.095v-.187h.093v-.288h.098v-2.98c.095-.053.19-.122.281-.188v-.094h.203c.056-.1.125-.193.195-.29h.284c.025.097.054.19.091.29.12.14.164 1.404.096 1.721 0 0-.12 0-.096.198h.096v.475h-.096v.187c-.066.04-.122.068-.186.097v.196h-.098c.03.25.067.51.098.77.004.66-.06 1.507.095 2.014v.573h.091v.193h.096v.564h.097c.172.353.172.45.665.486.116-.168.066-.133.286-.195zm-.093-17.526c.027.449.066.887.093 1.335-.122.091-.253.193-.38.284v.395h-.097v.288a.769.769 0 0 0-.19.094v.38h-.096c-.039.197.208.782.096 1.144h-.096v.299h-.097v.189h-.091c-.03.408-.073.832-.097 1.239h-.096v.19h-.091v.58h-.095c-.031.195-.069.382-.098.575.4.145.554.11.568.67-.257.113-.34.113-.375.47.187.141.178.168.187.492h-.187c-.079.396-.01.527 0 1.048h-.284c-.043-.068-.07-.133-.101-.189-.094-.025-.187-.07-.297-.101v-2.965h.11v-.2h.093v-.477h.094v-1.044h.101c.025-.133.048-.26.091-.396h.098v-1.043c.064-.035.12-.072.186-.103v-.191h.096v-.95a5.82 5.82 0 0 1 .188-.099v-.185h.097v-.683h.096c.029-.12.068-.255.097-.382h.093v-.475l.098-.093a2.31 2.31 0 0 1 .286-.096zm0-.967h.283c-.029.166-.058.334-.09.492h-.29c.037-.158.068-.326.097-.492zm.192-.567V61.31c.243-.128.37-.305.672-.388v.096c.19.17.19.39.19.776-.313.133-.437.26-.578.57h-.284zm2.387-7.474v1.53h-.095v.2c-.154.12-.317.247-.477.38v1.15h-.093v.184c-.066.04-.128.073-.197.1v.484a1.24 1.24 0 0 0-.186.097c-.03.152-.064.308-.094.474h-.097v.29h-.095c-.066.185-.135.372-.19.57h-.287v-.95a2.59 2.59 0 0 1 .286-.195c.031-.189.056-.38.098-.581.064-.03.122-.058.188-.096.025-.153.073-.315.097-.48.065-.03.125-.055.191-.09v-.856h.09v-.195c.068-.04.13-.064.196-.098v-.294c.093-.058.19-.125.282-.183v-1.25c.172-.093.155-.128.383-.19zm1.82-4.88c.072.257.026.205.281.282a6.469 6.469 0 0 1-.093.477 2.558 2.558 0 0 1-.189.1c-.029.251-.066.51-.095.758-.296.062-.4.1-.479.394-.14.166-.025.422 0 .762h-.284v.098h-.09v.566h.09c.025.2.065.387.096.575-.07.042-.125.069-.187.108v.573h-.101v.187c-.504-.023-.363-.15-.864-.187.006-.444.035-.434.192-.68h.092v-.576h.097c.037-.12.064-.255.102-.377h.097c.027-.258.056-.517.095-.762.058-.044.122-.069.189-.096.033-.19.058-.382.101-.585h.091v-.191h.096v-.474h.093v-.382c.066-.029.128-.068.189-.097.188-.235.116-.38.48-.474zm1.435-3.74c.029.162.066.324.095.478h-.288v.09h-.09v.678c-.03.04-.14.01-.202.283l.39-.09v.09h.095v.288c-.095.033-.193.069-.284.098-.164-.03-.323-.065-.474-.098v.098h-.098v.384h.475v.378c-.151.051-.16.076-.377.097-.118-.164-.073-.122-.299-.19-.103.203-.15.17-.19.485h.093v.384c-.17.087-.147.12-.377.193v-1.156h.095v-.191h.091v-.287h.098v-.288c.066-.025.128-.069.19-.094v-.19h.104v-.487c.06-.037.122-.058.195-.097.025-.154.054-.312.087-.476h.09c.181-.234.2-.34.581-.38zm.19-.67v.386c-.095.02-.19.067-.285.09v-.38c.095-.03.19-.067.286-.096zm10.132-4.6h.296c.03.168.056.315.093.477h.102c.325.39.91.338.947 1.06-.247.165-.201.267-.19.661h-.285v-.087h-.097v-.287c-.068-.041-.13-.07-.189-.108v-.178c-.11-.062-.186-.13-.288-.202v-.193h-.093v-.666h-.105c-.114-.18-.145-.18-.191-.477zm30.6.093v.195c-.241.035-.35.081-.678.094-.075.128-.067.116-.183.197.027.087.058.182.087.286.266.027 1.026.127 1.343 0 .027-.066.068-.13.097-.2.284-.024.572-.065.852-.086.029-.168.07-.32.1-.486.35-.03.706-.06 1.056-.093.054-.092.128-.191.19-.285h.666l.188-.286h.384v-.094h.095v-.488c-.408-.213-.587-.201-1.24-.19-.283.462-.23.103-.577.288-.154.187-.315.39-.466.58h-.676c-.06.088-.126.19-.192.284h-.668v.1c-.163.107-.163.13-.379.184zm-56.507-2.194c.017.321.085.433.288.564.14.15.529.251.77.287.169-.332.19-.482.19-1.049-.116-.11-.038 0-.094-.186-.677 0-.663.267-1.154.384zm101.434-.766h.76c.109.149.191.31.287.477h.19v.091c.069.032.13.073.197.096v.575c.056.035.129.064.195.091v.193h.091v1.632c-.215.081-.524.094-.851.094-.133-.2-.375-.474-.583-.573h-.286c-.03-.069-.068-.133-.093-.196h-.195v-.089h-.573l-.102-.095c-.197-.453-.286-.613-.286-1.348.137-.093.26-.182.388-.284v-.096h.38c.164-.186.316-.386.481-.568zm-105.552 0c.532.008 1.015-.013 1.73 0 .058-.158.074-.162.093-.39-.346-.21-.381-.453-.95-.482v.097h-.293c-.031.065-.06.133-.098.19-.192.07-.37.134-.571.194.035.129.068.258.089.39zm68.93-.97c-.426 0-.497.09-.758.195h-.278c-.043.065-.072.133-.101.19-.286.07-.58.134-.866.194-.145.27-.267.337-.288.773.408.21.599.197 1.255.186.156-.186.307-.386.469-.568.352-.2.317.238.478-.3h.09v-.67zm-41.393-.185h.383c.062.158.091.3.091.57h-.284v-.092c-.101-.106-.035 0-.093-.195h-.097v-.283zm21.423-3.064v.287c.294.149.172.176.667.19v-.095h.383v-.095h.09v-.287c-.467-.048-.687-.079-1.14 0zM110.02 32.28v.29h-.104v.094h-.273v-.286h.087v-.098h.29zm95.979-.569c.267.07.22.034.285.293H206v-.293zm-36.714.382c.07.276.174.239.205.285v1.35h.081v.188c.066.03.137.054.197.091v.291h.1v.284h.101c.023.125.052.256.083.38h.101c.027.16.058.322.096.48h.093c.164.2.307.293.383.581.392.094.371.287.57.575h.097c.069.094.13.191.189.285.143.11.064-.07.19.097h1.252v-.097h.188c.027-.07.06-.123.09-.191h.669c.165-.191.323-.382.487-.575h.567v-.094h.19c.03-.062.073-.135.102-.187.16-.041.322-.07.477-.101.226-.254.445-.513.663-.773.155-.022.325-.056.48-.091.034-.064.06-.125.1-.189.259-.224.504-.452.76-.675.03-.062.07-.128.094-.186h.288c.124.178.09.149.38.186-.045.362-.19.461-.38.675-.058.025-.123.064-.185.091-.03.167-.074.316-.103.478-.33.077-.634.276-.854.484-.04.06-.066.122-.1.199h-.184l-.2.183c-.03.1-.059.193-.096.29-.15.03-.315.069-.48.094-.31.353-.635.697-.952 1.048-.255.042-.511.07-.768.1-.027.056-.058.135-.094.187h-.192v.1h-.284c-.162.199-.31.381-.475.58h-.29v.096h-.188c-.037.064-.064.123-.098.187h-1.34c-.315-.53-.392-.056-.858-.282-.257-.285-.512-.582-.768-.868-.152-.03-.313-.058-.477-.1a4.776 4.776 0 0 0-.197-.286h-.087v-.283h-.1v-.19c-.159-.123-.312-.26-.468-.383v-.57h-.103v-.196c-.06-.033-.13-.07-.19-.104v-.47h-.094v-.196c-.068-.033-.137-.064-.189-.098a6.56 6.56 0 0 1-.097-.284h-.387c-.187.417-.158.257-.481.473-.255.196-.087.34-.572.387-.025-.283-.064-.576-.093-.86h.093v-.191h.098v-.57c.068-.042.124-.065.192-.098.096-.133.19-.254.282-.393h.097v-.187c.069-.029.133-.062.191-.101v-.185h.093v-.193l.201-.094c.224-.355-.04-.54.477-.668.36-.349 1.08.2 1.427.284zm-59.265.098v-.575c.097-.038.188-.067.286-.092v-.095h.286c.076.095-.01.008.093.095v.187c-.263.156-.32.382-.665.48zm2.87-1.82h-.289c.017-.231.03-.244.094-.387.097.031.194.07.29.096-.03.1-.069.19-.096.29zm41.482.678v-.205c.197-.025.39-.057.578-.098.03-.06.064-.123.091-.187h.384v-.095h.095v-.578a1.974 1.974 0 0 0-.667-.09c-.218.284-.448.574-.665.859-.098.03-.191.068-.288.091v.303h.097v.093c.128-.041.257-.068.375-.093zm-10.606 1.806h.48v-.091c.109-.067.374-.25.573-.193.188.058.344.459.766.284.035-.052.062-.122.09-.19.285-.15.486-.044.762 0-.031.236-.085.356-.098.674.098.037.195.06.286.095v-.095c.195-.123.168-.102.203-.39h-.097v-.285c.104-.077.01.013.097-.093h1.047c.039-.065.068-.125.097-.193.369-.123.356.299.67.1h.084v-.385a17.875 17.875 0 0 0-.66-.569h-.573v-.095h-.19a2.723 2.723 0 0 0-.095-.191c-.158-.042-.326-.069-.477-.096v-.093c-.06-.044-.135-.066-.197-.104v-.199h-.097v-.187a6.728 6.728 0 0 1-.29-.095c-.093-.125-.187-.256-.28-.384h-.38v-.096c-.136-.098-.291-.158-.38-.282-.1.025-.19.066-.288.093a2.272 2.272 0 0 0-.091.285h-.108c-.02.155-.058.321-.087.48h-.098v.186h-.097v.2h-.091v.483h-.093v.187c-.135.095-.26.193-.388.284-.188.29-.058.67 0 .955zm52.103-4.013c.03.154.064.312.093.474.195.029.195.097.195.097h1.14c.035.069.064.125.09.191.169.02.324.069.492.098.025.066.054.124.091.184h.193v.098h.667c.066.096.122.195.19.287h.577v.1h.194c.031.06.056.128.096.188h.95v.096h.193c.025.068.067.132.093.189h1.438c.027.07.056.139.096.205h.188v.093h1.146l.197.287c.284.133 1.036-.02 1.334.095v.285c-.456.058-.286.178-.665.284V31.9c-.133-.027-.257-.062-.385-.091a2.307 2.307 0 0 0-.18.284c-.075.03-.144.067-.206.098a1.763 1.763 0 0 1-.095.187h-.67c-.103-.15-.412-.44-.76-.285-.041.067-.066.12-.095.187h-.193v.098h-3.157a4.588 4.588 0 0 0-.193-.285h-.667c-.06-.089-.122-.193-.195-.284h-.942l-.203-.285h-1.242c-.035-.068-.064-.137-.09-.193h-.195v-.093c-.191-.042-.388-.069-.576-.096-.1-.16-.191-.323-.293-.487h-.76c-.16.226-.05.068-.286.189v.101h-.277c-.044.06-.07.129-.1.197-.16.027-.325.054-.485.096v.093h-.19c-.03.056-.058.125-.096.193h-.286c-.029.054-.055.12-.095.187h-.19v.098h-.57v.091h-.189c-.041.07-.07.129-.097.193-.133.03-.255.067-.394.098-.027.064-.056.124-.083.187h-.391v.1h-.19c-.028.06-.057.13-.094.186h-.282v.1h-.195c-.029.058-.058.129-.097.185-.162.04-.31.072-.472.101-.04.065-.07.13-.1.187-.153.04-.325.069-.483.102-.027.06-.06.129-.089.197-.161.025-.319.054-.484.094-.03.056-.054.126-.092.19h-.574v.096h-.188c-.04.054-.068.127-.097.193h-.286v.094h-.187c-.041.064-.068.124-.108.19l-.466.096c-.035.062-.066.127-.105.193h-.85v.091h-.197v.098a2.406 2.406 0 0 1-.286.091c-.277-.41-.304-.1-.67-.28-.032-.066-.061-.13-.1-.193-.152-.031-.311-.066-.473-.095-.072-.096-.13-.191-.197-.285a1.666 1.666 0 0 0-.663-.288c-.029-.191-.066-.387-.095-.584a1.615 1.615 0 0 1-.188-.09v-.292h-.098v-.851c-.259-.137-.408-.195-.868-.195-.048.091-.186.162-.186.195-.102.276-.193.567-.286.851-.19.166-.384.324-.57.484-.108.185.056.363-.097.482h-.286c-.324.149-.137.26-.678.288a1.39 1.39 0 0 0 .09-.288h-.09c-.027-.135-.07-.26-.095-.387.278-.157.271-.33.68-.384v.098h.283c.096-.127.193-.255.284-.384h.095c.034-.123.063-.258.096-.386.066-.025.122-.063.186-.098v-.756h.102v-.095h.472c.037-.069.068-.14.097-.191.12-.083.409-.09.483-.189v-.394c.058-.032.127-.06.2-.096v-.189h.088v-.19c.26-.472.42-.489 1.142-.478.199.162.383.313.572.477.039.38.068.766.1 1.152.063.03.132.056.194.098v.187h.085c.04.388.068.762.108 1.148.186.04.38.058.57.091v.094c.219-.03.44-.056.662-.094 0 0 .087.143.292.094v-.094h.473a.744.744 0 0 0 .093-.19h.205v-.094h.473c.029-.065.058-.125.097-.193a5.41 5.41 0 0 0 .381-.098c.066-.09.124-.187.187-.276h.677c.058-.104.122-.195.182-.293h.38c.068-.095.132-.187.203-.282h.764c.023-.069.06-.14.083-.191.126-.042.265-.069.385-.096.069-.093.129-.197.193-.298h.961c.058-.098.125-.19.195-.285h.945c.043-.06.068-.129.1-.189.19-.068.383-.135.582-.19.029-.073.058-.125.09-.196h.67c.029-.06.068-.12.091-.189.168-.027.317-.068.477-.093l.101-.191c.158-.03.32-.065.475-.098.035-.068.062-.135.097-.19.288-.267.377-.366.96-.38zm-96.751 7.092c-.123.675-.37.855-.377 1.715.352.187.557.197 1.145.187.156-.216.054-.065.282-.187v-.1c.189-.083.381.07.485-.091v-.195h.093v-.283c.81.006 1.131-.19 1.525-.573.068-.097.135-.19.19-.29.162-.034.324-.063.485-.094.03-.062.056-.135.094-.187.149-.041.317-.07.476-.101.031-.06.058-.127.096-.198.188-.033.38-.056.571-.095.098-.12.19-.247.286-.376.125-.035.261-.06.381-.104.069-.091.133-.189.193-.28.162-.031.328-.066.483-.1.058-.093.126-.188.193-.284h.188v-.095h.19v-.094h.287v-.102h.288c.062-.157.132-.321.188-.47.133-.04.257-.07.383-.103.034-.058.063-.128.092-.197h.199v-.09h.285c.069-.097.129-.198.197-.292h.187c.323-.178.306-.255.853-.284.116.106 0 .037.191.093v.191h-.093c-.189.233-.381.45-.572.681h-.667c-.13.15-.257.314-.381.471h-.102v.291c-.145.191-.429-.019-.67.096a5.068 5.068 0 0 1-.09.188c-.288.256-.574.507-.86.767-.03.066-.066.132-.093.188h-.384c-.112.113 0 .034-.199.104v.195h-.667c-.062.1-.16.137-.188.187v.193h-.098c-.15.314.143.104-.19.382v.094c-.193.029-.381.068-.568.097-.068.094-.126.191-.193.283h-.192c-.038.066-.065.126-.094.19h-.203v.098c-.254.175-.167-.083-.281.289-.22.054-.23.079-.384.187v.1h-.281c-.06.097-.131.199-.193.296-.211.2-.526.3-.858.38v.187c-.265.073-.215.027-.284.284-.23.058-.24.09-.391.195v.096h-.38a3.278 3.278 0 0 1-.192.284h-.381c-.069.094-.123.191-.191.289h-.282c-.04.06-.068.13-.097.187h-.189v.11h-.582l-.097.093c-.035.12-.046-.035-.091.094v.86h-.098v.093c-.163.029-.313.07-.472.095-.031.07-.07.123-.098.189-.248.235-.447.53-.857.575-.164-.191-.323-.376-.491-.575h-.185c-.033-.066-.062-.118-.095-.189h-.189v-.095h-.19c-.07-.094-.127-.187-.19-.289h-.1v-.758h-.093v-.203c-.067-.025-.119-.056-.193-.094v-.19h-.091v-.192a2.18 2.18 0 0 1-.288-.193v-.091h-1.722c-.32.488-.487.079-.96.284-.06.094-.126.191-.192.289h-2v-.098c-.221-.087-.372-.074-.683-.097.048.255.075.515.104.774-.056.031-.127.058-.189.09V44.162h-.1c-.028.162-.055.326-.097.472h.098v.398h.1c.12.4-.01.934.084 1.24.197-.06.093 0 .197-.098.294-.077.37-.23.576-.38v-.097c.157-.03.319-.067.48-.096.081-.326.458-.64.67-.874.064-.025.122-.056.188-.093.083-.123-.04-.301.096-.378h.379a9.565 9.565 0 0 1-.096.577c-.083.056-.194.129-.283.2-.03.153-.056.306-.096.466-.066.036-.124.073-.188.102v.386c-.098.067-.187.123-.288.187-.257.289-.502.575-.76.855a7.894 7.894 0 0 0-.394.301 5.6 5.6 0 0 1-.094.38c-.271.058-.37.152-.571.285v.093h-.763c-.14-.226-.414-.276-.665-.378v-.872a1.371 1.371 0 0 1-.199-.089v-.193h-.097v-1.24c-.01-.3 0-1.147 0-1.729v-1.72c.068-.032.134-.067.2-.105v-.182h.096v-1.337h.095v-.204c.056-.033.127-.056.191-.093.027-.195.066-.38.095-.573.058-.03.13-.067.19-.096v-1.343h.094v-.19c.07-.04.127-.061.193-.096v-.669c.188-.168.379-.313.57-.48v-.664c.07-.041.132-.07.184-.101v-.198h.104v-1.716c.093-.065.188-.135.283-.191v-.681c.094-.056.2-.127.297-.185v-.76h.089c.035-.13.06-.26.101-.388.154-.127.313-.256.477-.378.027-.069.064-.137.097-.189.187-.066.377-.135.566-.205.072-.098.137-.19.193-.285h.476c.3.496.39.26.39 1.152-.458.308-.09.411-.295.86a.919.919 0 0 1-.192.093v.191c-.056.038-.125.065-.179.094v.199c-.064.031-.132.06-.2.09v.392h-.096v.19c-.066.03-.124.059-.188.096v.955c-.07.035-.125.069-.187.091-.108.185-.093.403-.101.68.155.06.23.072.476.093.096-.127.265-.306.572-.198v.104h.193c.029.06.062.125.103.195h.665v.098c.094.052.191.12.286.183v.193c.067.029.123.054.189.097.066.094.132.191.19.285h.193c.257.288.512.57.758.857h.676c.108-.104 0-.035.193-.091.047-.233.114-.3.192-.478.274 0 .514.013.665-.097.036-.07.065-.123.094-.191h.391c.027-.069.056-.125.097-.191h.094v-.285c.087-.133.236-.02.377-.1.033-.062.062-.13.097-.182h.098v-.293h.093v-.2c.062-.026.126-.055.192-.092v-.576h.098v-.19c.062-.032.12-.071.186-.094v-.482s.058.013.096-.186c.097-.038.19-.065.288-.094.07-.293.172-.239.188-.293v-.77c.197-.158.39-.311.582-.473v-.762h.094v-.191a.835.835 0 0 1 .192-.096v-.772h.096v-.29c.058-.025.122-.065.186-.096v-.38c.19-.26.383-.519.572-.762h.193c.066-.093.13-.195.194-.297h1.339c.076.214.095.524.095.868-.095.069-.193.125-.286.191v.191c-.097.069-.19.129-.288.19v.286a3.912 3.912 0 0 0-.188.1v.188h-.096v.583h-.105v.19c-.058.028-.125.055-.189.097v.187c-.058.029-.126.06-.195.095-.025.162-.062.318-.087.48h-.1v.187c-.057.027-.123.068-.192.1v.67H99.5v.19c-.064.038-.129.061-.189.096v.387h-.097c-.139.305-.18.494-.19.952.316.175.553.385.571.868-.199.119-.207.212-.476.293zm15.872-8.053v.38c-.093.062-.19.135-.284.19v.298h-.101v.185h-.096c-.126.143-.053.124-.281.19v.098h-.295c.094-.562.286-.826.487-1.25.185-.03.38-.064.57-.091zm22.275-1.152c-.023.214-.015.251-.102.384h-.091v.29c-.066.025-.126.059-.195.09v.195h-.095v.284h-.09v.573c-.167.137-.316.256-.482.389-.029.288-.064.577-.091.861-.07.031-.137.069-.197.091a6.064 6.064 0 0 0-.083.484c-.074.031-.134.06-.203.094v.19h-.091v.395h-.095c-.112.1 0 .035-.19.093-.011-.487.026-.747.19-1.062h.095v-.285c.058-.027.122-.068.19-.093v-.191h.104v-.669h.083v-.195h.197c.062-.122.273-.272.278-.293v-.473h.099v-.193h.095v-.284c.13-.301.326-.582.674-.675zm-20.553-.187v.289c-.303.17-.39.465-.769.573v-.1c-.093-.077-.093-.12-.192-.191.058-.189-.005-.087.099-.189.064-.264.027-.22.282-.289v-.093h.58zm-76.868-3.264c-.344.077-.667.37-.86.385-.029-.063-.062-.125-.093-.194-.16-.029-.323-.058-.475-.093-.205.324-.383.272-.669.471-.101.141-.197.262-.29.397h-.67c-.026.048-.06.122-.094.193h-.187v.093h-.86l-.489.573h-.947c-.066.09-.12.187-.192.283h-.663v.097h-.197c-.041.067-.066.119-.102.191H32.2a3.845 3.845 0 0 1-.19.289h-.378c-.041.064-.07.129-.101.189h-.187v.091h-.675v.112a4.946 4.946 0 0 0-.38.09v.097h-.667v.093h-.192c-.03.059-.067.125-.094.196h-.762v.093h-.193c-.037.056-.062.12-.103.189h-.38v.1h-.19c-.033.064-.075.116-.097.19h-.572v.09h-.189c-.037.07-.066.129-.093.195-.365.164-1.013-.087-1.343.095-.126.158-.26.32-.383.478h-.95v.093h-.287v.098h-.197v.093h-.86v.102h-.19c-.03.056-.066.125-.097.195-.162.027-.311.056-.479.092a2.702 2.702 0 0 0-.091.19h-.203v.098h-.477v.094c-.122.029-.244.064-.381.097v.098h-.752c-.033.056-.073.114-.102.19h-.286v.094h-.484a1.334 1.334 0 0 1-.094.19h-.192v.095h-.477c-.027.066-.066.128-.1.19h-.186v.1h-.855v.094c-.135.035-.257.066-.38.095v.096h-.68v.091h-.188c-.09.135-.192.26-.292.396h-.182v.096H14.13c-.062.093-.124.191-.193.286h-.478v.092h-.185c-.029.06-.07.129-.095.193h-.764c-.06.091-.133.195-.187.284h-.68c-.06.098-.122.187-.19.285h-.856v.1h-.184c-.05.06-.075.13-.11.186H8.111v.1h-.188c-.033.058-.067.129-.098.185-.199.04-.39.072-.578.101-.03.065-.058.13-.097.187h-.856v.102h-.192c-.027.06-.063.129-.102.197H4.854c-.056.094-.12.191-.192.285H1.8c-.027-.065-.068-.135-.095-.191H1.51v-.094h-.28a4.037 4.037 0 0 1-.192-.299c-.429-.201-.474.324-.675-.288H.267c-.192-.32.189-1.076.286-1.14h.201v-.098h.477v-.095a2.44 2.44 0 0 1 .28-.092v.092h.099v.095h.385c.13.162.253.318.375.48h.193v.09h2.099v-.09c.136-.031.26-.069.383-.098v-.089H6.87c.062-.104.127-.195.187-.293h1.247v.098c.207.046.28-.098.28-.098H9.74l.083-.187h.2v-.095h1.146c.094-.166.189-.328.286-.484h.189v-.101h1.535v-.098h.193c.025-.06.058-.123.087-.187h.576v-.095h.19c.038-.063.067-.125.094-.193h.872c.023-.063.06-.125.089-.191h.19v-.096h.572c.04-.06.065-.12.096-.189h.19v-.093h.676c.056-.098.124-.191.192-.289.4-.178.58.212.76.289h.376c.062-.098.18-.164.195-.191.082-.154-.038-.297.093-.386h.383a5.21 5.21 0 0 0 .19-.283h.295v-.093h.19c.032-.067.056-.14.098-.204h1.237v-.093h.186c.098-.129.203-.247.299-.382h.178v-.098h.68v-.091h.19c.029-.075.066-.125.093-.193h.957c.065-.096.137-.195.197-.284h.57v-.1h.193c.029-.064.054-.133.093-.191h.572v-.096h.192c.027-.064.065-.135.09-.186h.774v-.102h.284c.027-.062.058-.127.098-.187h1.522v-.098h.2c.03-.157.06-.323.095-.481.288 0 .571 0 .76-.094.029-.064.06-.126.1-.195.265-.116.548.03.758-.095.043-.06.068-.127.097-.193l1.152-.096v-.097h.187c.03-.067.06-.123.101-.187h.189c.03-.065.068-.135.093-.191h.19v-.096c.133.025.257.058.384.096v-.096h.385v-.093a3.27 3.27 0 0 1 .385-.096v-.093h.57c.125-.162.263-.328.383-.496.35-.025.7-.046 1.04-.094.05-.054.071-.118.102-.184h.201v-.094h.661v-.1c.126-.029.257-.058.385-.093v-.098h1.047v-.097h.182c.046-.064.075-.127.106-.187h.194c.03-.068.069-.124.102-.193h.186v-.091h.856v-.1h.193v-.098c.1-.037.188-.07.284-.089a.725.725 0 0 0 .283.287c-.043.195.01.079-.09.195-.032.12-.057.247-.098.373zm109.653-.097c-.05.222-.08.23-.182.388h-.102v.278c-.184.23-.37.445-.572.683-.16.03-.319.054-.478.096-.06.151-.125.315-.191.477h-.29v.09c-.157.128-.325.26-.474.386v.573h-.092v.203c-.126.09-.259.187-.385.28v.196c-.019.03-.164.016-.106.186h.106c.025.096.062.196.097.287h.094c.17.247-.102.18.286.288v.096c.227.13.768-.079.857-.096.239-.058.355.057.477.096-.052.193.006.083-.093.193-.092.36-.286.619-.574.766-.156.077-.305-.044-.382.102v.762c.098.052.16.174.189.19h.29v.094c.162.129.321.26.477.384.033.092.064.191.093.285h.184c.116.13.195.26.303.38h.76v.101c.12.038.259.06.377.104v.093h1.241c.04-.093.066-.197.104-.298.25-.057.686-.314.858-.474.066-.1.132-.19.192-.29.16-.025.309-.065.475-.096a.89.89 0 0 0 .093-.189c.323-.313.402-.39.391-1.046-.132-.102-.256-.204-.391-.297v-.098c-.151-.03-.313-.056-.475-.093-.122-.158-.256-.32-.38-.478h-.285v-.095c-.136-.04-.259-.066-.38-.096-.042-.1-.071-.188-.098-.288-.104-.064-.189-.133-.296-.191v-.282h-.094v-.196c-.05-.033-.126-.064-.192-.093v-1.439c.192-.103.23-.135.286-.384.221-.066.232-.087.393-.189v-.093c.224-.108.856 0 .953.093.96.264.425 1.375 1.339 1.622v.091h.288v.201c.26.069.207.021.28.285.294.102.573.195.865.288v-.093c.228-.143.158-.289.28-.382.118-.085.402-.077.487-.187v-.299c.054-.029.126-.062.19-.093v-.094h.286c.123-.157.26-.32.38-.483.192-.065.38-.12.576-.193 0-.322.053-.424.093-.663h.091v-.093h.294c.129-.162.253-.328.383-.496h.2v-.094h1.035c.069.106.29.285.29.297v.386h.092c.043.123.07.247.097.382h-.097a9.518 9.518 0 0 1-.092.474c-.26.133-.505.26-.758.382v.195h-.1v.28c-.161.044-.312.069-.468.112a.732.732 0 0 0-.101.187h-.58s0 .06-.195.093c-.122.247-.253.503-.38.769-.063.024-.121.058-.188.089-.248.263-.362.347-.383.861.128.098.261.191.383.293v.102c.125.023.257.052.384.093l.184.19v.19c.106.123.354.102.489.191.058.098.122.191.188.289h.477c.21-.345.508-.175.67-.386.034-.162.07-.32.088-.474h.098v-.093h.1v-.102h.184v-.102h.383c.315-.178.041-.421.203-.664.153-.125.313-.26.476-.388v-1.53c-.586-.384-.058-.735-.286-1.244-.097-.066-.19-.135-.288-.189v-.485c-.012 0-.064.016-.105-.198-.174-.074-.245-.126-.475-.184v-.194c-.112-.093-.093-.166-.192-.288h-.098v-.187c-.12-.09-.244-.193-.379-.284-.027-.073-.064-.125-.089-.198h-.29v-.089h-.193a1.315 1.315 0 0 1-.085-.189 3.337 3.337 0 0 0-.387-.1v-.093c-.108-.043-.195-.066-.294-.097-.06-.098-.127-.191-.195-.293-.151-.035-.31-.056-.474-.102-.027-.056-.065-.12-.094-.189h-.857v-.089h-.191a1.902 1.902 0 0 1-.097-.195h-2.3c-.027.066-.056.13-.087.195h-.201v.09h-.38v.097a5.12 5.12 0 0 1-.38.091v.102h-.477v.102h-.189c-.029.058-.07.126-.097.19h-.19c-.02.055-.071.123-.094.192-.161.022-.319.056-.487.1-.029.057-.05.12-.1.188h-.186v.09h-.286c-.06.097-.124.197-.186.288-.224.193-.54.316-.866.38zm-27.05-3.349h.282c-.067.26-.027.218-.282.295v-.295zm-75.337 0c.025.488.132.332.188.77-.215.16-.435.316-.665.474h-.571c-.03.066-.067.13-.096.195h-.192v.09h-.57v.097h-.207a.81.81 0 0 1-.087.193h-1.142c-.108.195-.151.168-.193.484-.188.022-.188.1-.188.1h-.684v.09c-.116.03-.242.06-.375.098v.09h-.76c-.03.072-.067.124-.096.197h-.571v.284h-.38c-.058-.141-.08-.154-.097-.384.151-.098.31-.187.477-.284v-.191H41c.052-.094.122-.191.186-.289h.286c.03-.064.067-.127.096-.195h.188v-.102h.479c.037-.056.066-.12.093-.189h.203v-.089c.53-.201 1.044.33 1.237-.297h.091v-.278h1.138v-.094h.207c.027-.068.056-.139.087-.195h.39c.057-.1.122-.19.188-.28h.667c.037-.075.068-.143.097-.195.16-.04.321-.077.477-.1zm3.543-.569v.277c-.64 0-.831.11-1.152.392-.031.052-.06.12-.1.195h-.76v.09h-.29c-.023.057-.064.122-.09.19h-.768a22.104 22.104 0 0 0-.1-.662c.07-.048.2-.205.2-.205h.857v-.088h.191c.037-.062.072-.13.095-.189h.284v-.107c.185-.084.613-.343.966-.183v.09c.246.176.228.184.667.2zm3.054-1.438c.029.19.066.378.097.57-.315.03-.642.067-.95.094-.138.158-.26.324-.386.484h-.477v.09h-.197c-.03.068-.056.132-.1.2h-.662l-.095.088v-.378h.095c.027-.195.06-.39.093-.577.286 0 .576.008.769-.094.03-.072.064-.124.097-.193.124-.025.25-.07.383-.093v-.098h.195v-.093h1.138zm2.87-1.159v.28h-.287c-.089.19-.136.16-.194.403h-.284v-.1h-.1v-.302c.313-.164.328-.266.864-.28zm1.15-.377v.284c-.283.07-.575.137-.857.193v-.382c.282-.035.574-.069.856-.095zm1.234-.29v.29c-.122.026-.253.06-.38.095v-.095c-.105-.106-.04 0-.095-.194.152-.062.222-.087.475-.095zm.101-.188h.672c-.087.347-.251.301-.672.284v-.284zm21.131-6.423v.29c-.116.056-.288.283-.288.283h-.961v.1h-.186c-.032.06-.07.128-.104.197h-.661v.093h-.19c-.106.125-.191.251-.284.382h-.773v.098c-.284.022-.574.058-.86.097-.035.065-.064.12-.093.185h-.377v.102h-.58l-.1.189c-.186.029-.377.062-.574.091-.062.102-.12.193-.188.284h-.195c-.031.077-.06.133-.085.196-.29.037-.574.064-.862.095v.096h-.199v.093h-.188v.095a9.446 9.446 0 0 1-.574-.095v.095h-.284c-.069.102-.129.204-.19.297-.21.096-.394-.12-.477-.093v.093h-.19a4.64 4.64 0 0 0-.107.187h-.184v.104h-.483c-.029.054-.062.12-.095.19a9.168 9.168 0 0 0-.566.094v.096h-.194c-.032.066-.067.122-.096.193h-.963c-.093.12-.193.255-.282.38-.126.029-.249.062-.383.093v.094h-.759c-.07.097-.134.193-.192.284h-.663v.1c-.137.04-.26.058-.392.095v.094h-.478c-.065.091-.123.201-.191.294h-.951c-.066.1-.137.191-.199.289H62.6c-.027.058-.066.12-.093.187-.164.031-.315.073-.479.1.069-.295.174-.41.479-.476.052-.257.103-.282.284-.394v-.094h.377c.041-.056.07-.128.097-.195.32-.029.647-.056.961-.091h.951v-.096c.204-.133.299-.222.587-.284.033-.23.097-.303.186-.482h.951c.07-.091.129-.187.19-.28h.67c.042-.1.064-.191.09-.295h.099c.182-.2.126-.237.482-.28.092.17.14.145.195.384.443-.035.435-.14.758-.29v-.094h.477c.033-.102.066-.204.095-.3a2.22 2.22 0 0 0 .288-.188v-.095h.297v-.094h.188v-.102h.19v-.091h.856c.104-.05.135-.4.477-.284.041.062.066.124.097.193h.19v.091c.237.07.714-.102.772-.193v-.28h.093v-.102c.325 0 .65.031.86-.091.03-.067.062-.133.095-.191.19-.042.377-.069.576-.098.031-.064.06-.13.085-.197h1.054v-.087h.195c.031-.069.067-.131.098-.191h.864v-.104h.19c.129-.156.247-.318.381-.476.156-.037.317-.064.477-.097.029-.056.066-.125.095-.193h1.82zm.286 0c.027-.092.058-.191.093-.285.25-.01.572-.058.67-.189.089-.137-.027-.286.089-.384h.195v-.097h.772a.859.859 0 0 1 .094-.185h.188v-.102c.095.027.197.056.288.102a26.84 26.84 0 0 1 1.237-.102c.087.108-.008.017.095.102-.047.185.019.077-.095.185v.097h-.661v.098c-.126.029-.263.064-.383.093v.094h-.67v.1c-.132.026-.256.066-.383.087v.101h-.482v.094h-.195c-.025.072-.064.12-.09.19h-.762zm48.376.87c-.135.029-.257.06-.387.093-.243.67-.322 1.428-1.244 1.428-.08-.224-.097-.583-.097-.948.232-.154.068-.069.19-.295h.098v-.278c.064-.036.133-.069.193-.104V9.96h.095v-.283c.257-.222.512-.45.765-.676.029-.187.066-.374.097-.57.054-.034.126-.061.195-.093.116-.205-.01-.409.095-.68h.095c.025-.156.062-.316.094-.478-.143-.05-.164-.064-.382-.09-.325.383-.64.76-.959 1.157-.095.054-.188.123-.288.185v.195c-.097.064-.19.127-.288.187v.187c-.062.035-.122.072-.188.101-.025.125-.07.26-.094.374a1 1 0 0 1-.197.104v.19h-.089v.19l-.19.1v.197h-.098c-.167.257.083.174-.296.278-.103.116 0 .048-.182.108v.187h-.1v.473c-.153.1-.315.191-.478.293v.182h-.096v.575h-.095c-.027.137-.07.26-.093.385-.06.03-.126.064-.19.1v.194c-.067.03-.127.065-.19.1v.28c-.07.031-.126.069-.198.102v.189h-.085v.284c-.102.025-.193.069-.292.094v.097c-.255.25-.17.096-.189.567.118.123.143.179.189.394-.112.069-.522.555-.574.671-.03.156-.058.314-.108.478h-.077v.193h-.103v.377h-.097c-.127.277-.179.36-.189.775.14.052.164.064.39.091.053-.17.126-.322.184-.475.22-.038.443-.063.673-.102v-.102h.091c.027-.147.069-.315.102-.473.064-.03.122-.058.184-.091.03-.256.065-.515.1-.77.16-.125.319-.256.472-.378.03-.285.066-.588.095-.868h.096v-.191a1.19 1.19 0 0 0 .192-.096v-.19c.156-.125.324-.256.483-.38.069-.107.077-.42.187-.476h.67c.078.098-.007.008.098.093-.029.123-.07.256-.097.382-.066.027-.133.065-.189.096v.57c-.163.231-.323.45-.482.675h-.187c-.226.248-.445.507-.675.762h-.096v.384h-.095v.194c-.07.026-.122.06-.19.095v.563a.59.59 0 0 1-.189.1c-.255.302-.377.485-.858.587-.041.243-.066.506-.095.762-.104.066-.201.122-.29.187-.087.145.043.31-.108.39h-.466c.062-.326.164-.366.189-.77-.146-.059-.156-.071-.375-.094-.117.237-.274.467-.39.669v.195h-.091c-.07.09-.122.183-.19.29-.164-.039-.328-.068-.48-.107v.107c-.163.175-.1.715-.09 1.045.157.058.294.091.57.1v-.1h.281c-.035.465-.38.861-.76.963-.065-.137-.143-.125-.201-.195v-.193c-.077-.108-.187-.073-.377-.094-.067.179-.096.372-.096.669.178.124.16.106.201.388h-.393v.098h.393c-.105.29-.2.568-.296.857-.054.03-.12.069-.19.104v.276h-.098v.195c-.062.035-.126.064-.189.093v.1c-.19.13-.38.253-.571.372-.031.203-.069.396-.098.59-.062.028-.13.053-.186.095v.189h-.093v.378c-.07.035-.137.072-.193.097v.384c-.102.069-.201.131-.298.195v.283h-.098v.483c-.054.032-.12.059-.182.094v.195h-.102c-.072.197.048.38.102.48h-.102c-.101.101 0 .035-.19.089-.069.388-.284.517-.38.861h-.19c-.03.166-.064.328-.093.488a1.321 1.321 0 0 0-.189.092v.19h-.097v.48c-.067.02-.13.069-.189.098-.043.124-.068.255-.097.378-.069.027-.122.066-.187.1v.19h-.101v.868c-.006.743-.129 1.017.101 1.617h.284v.094c.226.05.435-.156.759 0 .026.072.066.139.095.199h.576v.09h.182c.046.068.075.138.098.196h.298v.102h1.52v.094h.193v.097h.294v.094h1.807v.095h.195v.091c.862.036 1.72.073 2.58.102h1.054v-.102h.286v-.09c.161-.038.172.082.19.09.342.08.628-.052.856-.09.124-.267.257-.402.388-.68h.097v-.573h.097v-.187c.058-.03.116-.072.193-.1v-.853h.095v-.193a.789.789 0 0 1 .193-.093v-.583h.085v-.191l.193-.094v-.957l.194-.097v-.191h.094v-.478h.093v-.195c.164-.129.327-.247.478-.382.038-.162.069-.314.096-.478.062-.029.137-.06.199-.1v-.568h.095v-.195c.12-.094.242-.187.381-.285.066-.292.127-.575.193-.865.149-.127.315-.258.472-.386.03-.158.069-.322.096-.474.161-.135.32-.26.478-.382.03-.16.062-.322.1-.49.248-.218.51-.436.766-.666a124 124 0 0 1 .091-1.046c.06-.038.127-.069.191-.094.033-.162.056-.322.097-.492.315-.278.64-.575.953-.853.065-.094.14-.195.189-.289h.286c.04-.068.062-.133.093-.19h.108a7.99 7.99 0 0 1 .095-.385.948.948 0 0 1 .19-.087c.268-.293.394-.58.856-.683.07-.255.034-.208.286-.284v-.096h.38v-.1h.192c.037-.064.07-.12.102-.186h1.24c.17.25.537.305.573.382V22.71h-.1v.195a2.42 2.42 0 0 0-.186.09c-.03.157-.067.325-.096.474-.062.032-.128.069-.19.1v.575h-.096v.193c-.064.03-.12.058-.192.1v.282c-.054.31-.162.44-.381.571v.096h-.386c-.087.045.006.126-.288.193-.1-.2-.157-.173-.193-.476h.481c.058-.19-.012-.087.091-.19-.056-.227-.085-.227-.192-.383h-.085v-2.489h.085v-.195h.101c-.058-.297-.126-.575-.186-.872-.13-.068-.114-.06-.193-.185h-.195c-.149.23-.068.067-.286.185v.102h-.286c-.16.195-.323.382-.466.575h-.203c-.226.26-.443.506-.673.772v.378c-.15.125-.317.253-.475.38a4.25 4.25 0 0 1-.095.388c-.097.123-.238.004-.375.094l-.101.184h-.096v.297c-.066.033-.118.067-.19.1v.193c-.096.102-.303.147-.475.189-.079.39-.192.64-.192 1.142h-.388c-.04.089-.186.195-.186.195v.392h-.1v.187h-.097c-.027.289-.06.57-.093.862-.096.058-.191.128-.288.188v.289h-.096v.189c-.066.033-.122.066-.195.09-.02.163-.058.33-.089.487h-.283v.102c-.336.376-.021 1.158-.187 1.715h-.1c-.04.19-.072.38-.097.585a.775.775 0 0 0-.19.093v.19c-.062.028-.137.055-.2.097v.282h-.095c-.029.098-.053.19-.095.293-.056.025-.124.06-.19.09-.201.42.209.57.095.956h-.095c-.085.218-.085.366-.098.677.193.11.363.305.582.382H132.481c.418-.127.71-.326 1.247-.382.056-.218.075-.239.189-.388h.101c.019-.13.062-.251.085-.39.073-.03.133-.056.193-.094.107-.158.124-.577.192-.762.18-.074.251-.139.475-.193v.478c-.058.027-.12.068-.187.1l-.194.956h-.094c-.029.196.044.12.094.196.323.325 1.392.207 2.01.19.285-.037.571-.064.86-.093v-.097h.186v-.094h2.399v-.102h.288c.029-.058.058-.128.095-.197h.574v-.09c.197-.06.325-.032.47-.097.098-.247.195-.512.299-.77h.087c.03-.187.062-.38.103-.569.054-.035.123-.066.19-.095v-.187h.084v-.287c.068-.041.134-.068.197-.093.035-.168.064-.326.097-.49.07-.029.126-.06.19-.095v-.193h.104c.1-.256-.045-.465.091-.667.162-.122.313-.26.475-.382v-2.979a1.24 1.24 0 0 0 .192-.091c.123-.214-.029-.507.092-.766h.101c.1-.15.129-.158.187-.38h.2c.094-.39.036-.123.282-.287.06-.093.127-.189.185-.282h1.054c.172.195.4.27.763.282.234-.26.445-.508.68-.778.053-.025.12-.046.186-.094.025-.147.054-.309.1-.47.308-.287.635-.576.948-.865v-.089h.375c.265-.288.524-.577.77-.874h.579v-.091h.19c.036-.056.069-.127.098-.187h.566v-.102h.192c.133-.15.255-.313.39-.473h.381c.068-.094.126-.195.189-.289h.383c.068-.1.124-.19.19-.28h.286v-.102h.189c.037-.062.066-.133.108-.193h.466v-.087c.128-.048.259-.073.387-.095v-.11h1.523c.037.068.068.132.095.205h.201v.087h.856c.07.1.128.193.19.295h.382c.068.09.126.18.195.28h.673v.094c.122.033.249.068.387.101v.094h.657v.093h.102v.287h.095c.128.162.25.326.38.473h.382c.06.102.127.204.185.297h.393v.098c.189.153.38.315.568.48.027.255.075.502.098.757.157.139.317.26.474.388.041.224.064.446.097.675h.096v.193h.093v.282h.1v.571h.088v.193h.098c.037.353.066.708.095 1.059.069.03.133.06.189.093.047.187-.048.125-.094.196-.132.753-.619.988-1.05 1.43-.116.122-.157.284-.284.386v.478a1.09 1.09 0 0 0-.568.288v.098h-.19c-.249.14-.441.299-.77.375-.03.098-.071.194-.1.293h-.098a1.95 1.95 0 0 1-.089.285c-.06.035-.126.066-.188.095v.583l-.102.096c-.356.004-.493.06-.758.191v.095h-1.057v.092c-.126.029-.257.06-.381.095v.098h-1.237v.091h-.203c-.122.164-.249.314-.38.478h-.471v.1c-.127.028-.266.06-.39.093v.093h-.375c-.259.285-.518.573-.76.872h-.396c-.253.285-.501.573-.76.858h-.189v.095h-.19c-.02.062-.071.127-.094.193-.248.18-.186-.108-.286.28h-.107v.289a2.05 2.05 0 0 0-.666.286c-.06.104-.124.198-.186.3a3.08 3.08 0 0 0-.477.097c-.033.09-.07.183-.097.282l-.195.191h-.186c-.257.285-.524.573-.767.856-.16.041-.319.068-.478.097a1.35 1.35 0 0 1-.098.19h-.19v.099h-.284c-.098.135-.189.255-.288.384h-.095c-.038.158-.065.32-.092.484h-.095a2.53 2.53 0 0 0-.193.282c-.194.106-.352-.015-.489.102-.246.284-.501.564-.754.85-.126.098-.263.196-.39.29v.203h-.088c-.12.187 0 .201-.19.371.12.322.254.646.374.966.259.02.508.062.763.087.039.068.066.133.093.2.26.035.524.06.775.093v.091h.194v.093c.409.042.827.073 1.235.098.104-.191.156-.16.19-.48-.184-.072-.248-.139-.476-.182-.018-.11-.19-.523-.093-.67h.093c.098-.404.69-.914 1.148-.964v-.098c.234.04.719.536 1.25.285.026-.056.057-.127.086-.187h.193v-.098h.58c.03-.052.054-.12.085-.19h.201v-.092h.57c.122-.158.257-.313.383-.484h.189v-.093h.57c.039-.069.068-.118.095-.191.265-.239.381-.226.381-.766-.437-.262-.288-1.32-.276-2.01.363-.2.431-.382 1.049-.382.284.094.572.195.856.293.138.311.401.633.484.949.469.089.864.089 1.333 0 .153-.266.302-.395.383-.766.294 0 .58.014.768-.094.032-.062.06-.135.098-.187h.57v-.101h.188l.102-.198c.157-.033.306-.056.474-.095.031-.056.064-.12.093-.191.23-.03.448-.056.678-.093.025-.069.054-.127.093-.196h.665v-.091h.193c.027-.064.062-.125.091-.189h.673c.216.368.462.33.47.96-.283.199-.047.093-.188.381h-.095v.193c-.344.314-.694.638-1.046.949-.023.166-.07.328-.098.484h-.097c-.328.407-.616.116-.759.77-.343.056-.437.106-.488.482.343.122.955.097 1.442.089.145-.164.38-.276.571-.378h.189c.064-.095.135-.193.188-.295h.193c.04-.058.069-.126.095-.182h.201c.03-.067.052-.133.098-.2h.186v-.1c.152-.026.317-.051.475-.09l.574-.765h.19v-.097c.158-.123.321-.26.473-.382v-.191h.209c.048-.094.116-.193.186-.287h.187c.029-.089.06-.187.097-.288.077-.098.282-.17.38-.293h.38v.675c-.283.193-.571.384-.857.575v.38h-.093v.19c-.065.042-.135.07-.201.098v.19c-.08.07-.18.134-.288.194-.216.258-.435.515-.663.773-.06.027-.125.056-.195.095-.03.064-.066.123-.093.187-.255.143-.33-.175-.469.19-.041.127-.07.265-.1.385-.219.025-.256.012-.378.091v.102h-.205v.091h-.284a.867.867 0 0 1-.098.191h-.188v.098c-.122.037-.245.06-.38.093-.028.069-.063.131-.097.204h-.188c-.066.093-.118.187-.193.282h-.665c-.068.09-.132.191-.19.285h-.87v.1c-.326.259-.03.176-.183.38-.108.144-.431.08-.667.093-.21-.237-.433-.258-.868-.289h-.286c-.06-.093-.122-.185-.19-.284-.22-.102-1.432.033-1.526.1-.093.124-.2.259-.296.38-.15.057-.17-.094-.188-.094-.218-.05-.26.04-.384.093.058.145.077.152.1.378h-.86v.095h-.19c-.04.073-.065.14-.094.198-.201.033-.381.066-.582.091-.056.166-.124.324-.178.488-.31 0-.583-.023-.773.095-.03.058-.066.12-.095.191h-1.047v.09h-.2c-.03.062-.05.13-.1.197h-.187c-.058.087-.122.189-.19.284h-.951v.098c-.122.029-.257.066-.38.093v.098h-.192c-.068.093-.13.195-.201.288h-2.093c-.035-.074-.072-.128-.097-.195h-.197v-.093h-.86c-.054-.098-.124-.191-.186-.289h-.381c-.07-.095-.129-.197-.19-.284h-.19v-.098c-.128-.037-.263-.064-.389-.1v-.089h-.485v-.108c-.263-.201-.166-.342-.659-.38-.167.202-.32.38-.482.578l-.191.1v.184l-.189.197h-.188c-.097.127-.19.26-.294.382h-.19v.102c-.098.06-.196.116-.287.183v.193l-.29.197v.58h-.089v.184a1.95 1.95 0 0 0-.197.1c-.027.151-.062.313-.089.477-.514.1-.516.272-1.25.282-.153-.27-.333-.36-.38-.76.346-.317.03-.525.19-.967h.095v-.187c.137-.1.257-.189.39-.282.085-.13.193-.264.284-.386.068-.044.124-.065.193-.098V43.2l.288-.087c.029-.067.062-.135.097-.197.307-.289.642-.453.758-.955.214-.046.321-.092.477-.198v-.095c.354-.189.445.108.574-.378h.097v-.48h-.097v-.195c-.063-.03-.129-.058-.197-.089-.122-.224.06-.266-.18-.486v-.093h-.485c-.127.216-.15.253-.479.297.025-.247.025-.337.1-.492h.089v-.669h.101v-2.391c.35-.023.371-.058.58-.191v-.094h.862c.052.114.27.272.28.285.124.26-.04.55.1.766.163.133.312.247.47.378v.396h.101v.187h.087c.222.4.05.544.68.57.286-.254.574-.514.858-.757.097-.151-.032-.288.097-.396a3.61 3.61 0 0 0 .379-.092c.253-.286.514-.579.758-.861h.203c.03-.07.054-.123.094-.191h.286v-.094c.064-.03.12-.068.194-.097.091-.146-.045-.305.091-.384h.286v-.094h.193c.037-.062.066-.135.093-.187.166-.041.323-.07.477-.101.035-.06.064-.127.1-.198h.279v-.095h.108c.025-.093.051-.191.093-.284h.091v-.196c.124-.091.253-.189.381-.28v-.1h.292v-.093c.06-.031.12-.066.189-.095v-.191c.102-.123.35-.104.474-.196.067-.09.137-.186.193-.28h.28c.137-.166.267-.328.385-.49h.104v-.288c-.112-.106-.038 0-.104-.185-.153-.054-.222-.087-.478-.1v.1h-.187c-.029.058-.056.129-.097.185h-.38c-.028.072-.07.139-.099.199h-.19v.09h-1.134v.1h-.2c-.036.061-.065.13-.1.198h-1.24v.094h-.186c-.041.056-.066.126-.095.19h-.967v-.386c-.1-.083-.009.013-.094-.095-.46-.02-.46-.07-.853 0-.042.095-.07.197-.1.29.284.07.249.057.284.378-.101.08-.006-.008-.095.102a14.96 14.96 0 0 0-.663.094 1.841 1.841 0 0 0-.098.19h-1.62v.096h-.197c-.027.062-.064.127-.097.193h-3.253v.091c-.124.034-.248.065-.375.098-.04.069-.072.135-.101.195h-.191a1.566 1.566 0 0 0-.095.185h-4.778c-.025.07-.066.135-.097.19-.21.167-.402.184-.769.2v-.2c-.47-.246-1.175-.19-1.9-.19-.443.509-1.233.085-1.633.484-.265.226-.372.585-.474.957v1.443a.673.673 0 0 0-.193.097v.567h-.097v.86c-.068.035-.133.07-.19.093v.195c-.065.037-.131.06-.19.093v.204h-.105v1.337h-.093v.38h-.085v.184h-.108v.287h-.09v3.17h-.096v.193h-.093v.282h-.1v.575c-.097.067-.19.135-.288.187v.191h-.093v.395h-.095v.286h-.094v.378c-.07.033-.126.069-.197.098-.13.166-.252.32-.377.475h-.578c-.13-.212-.248-.253-.574-.282-.039-.393-.176-.544-.379-.766-.066-.036-.126-.069-.188-.096-.035-.164-.07-.33-.1-.488a1.712 1.712 0 0 1-.184-.093 6.2 6.2 0 0 1-.193-.573c-.259-.218-.516-.449-.78-.666V45.5c-.046-.03-.117-.054-.181-.087-.122-.195.023-.438-.097-.685-.156-.118-.315-.239-.48-.378-.034-.15-.061-.311-.09-.469h-.098c-.126-.183-.14-.183-.188-.484.217-.029.445-.068.667-.095v.477c.189.162.39.312.574.478v.284c.186.162.385.328.574.492v.467c.19.131.377.266.576.386v.191c.093.069.188.135.282.196v.38c.145.236.573.199.959.186.029-.089.06-.187.097-.282.315-.382-.114-1.796.085-2.3.064-.027.135-.056.199-.094-.035-.263-.064-.506-.097-.766h.097v-.284h.097v-.968c.058-.024.125-.054.191-.093v-.185h.097v-1.53h.09c.033-.137.07-.26.099-.39h.097v-.957h.094c.026-.118.066-.255.095-.378h.093V36.98c.068-.029.13-.066.19-.097.115-.204-.003-.407.098-.667h.1v-.193h.093c.095-.147.074-.236.095-.486-.126-.074-.11-.066-.188-.188a5.008 5.008 0 0 1-.388.093v.095h-.953c-.035-.056-.064-.122-.097-.188h-1.146v-.098h-5.066c-.041-.056-.07-.129-.095-.185h-.193v-.104h-.574c-.062-.091-.134-.189-.196-.28h-.951c-.087.168-.135.152-.191.384-.193-.035-.38-.06-.568-.104v-.091c-.184-.008-.184.314-.487.195-.056-.104-.124-.195-.192-.293h-.187v-.09h-.48v-.1h-.191v-.094c-.16-.035-.17.093-.189.093h-.474c-.058.142-.077.164-.097.38.182.16.19.322.19.68h-.19c-.036.093-.065.194-.094.292.058.027.123.052.19.09v.477c-.306-.025-.362-.094-.573-.191v.382c.137.162.104.64.097.957-.393.197-.584.361-.677.868-.124.027-.44.107-.477.186v.575h-.095v.187c-.064.027-.12.073-.186.102-.023.052-.09.797-.096.864h-.288v1.15c-.066.02-.134.062-.19.087v.293h-.096v.47c-.066.047-.132.074-.19.109v.178h-.098l-.196.584-.572.193v.386c.49.32.008.507-.1.754v.583c-.064.031-.12.058-.186.1-.151.14-.077.164-.381.182v-.959h.093c.03-.122.068-.247.097-.378h.098v-1.05c.064-.04.12-.067.19-.098.025-.1.064-.189.09-.297h.099c.064-.342.124-.69.19-1.05.067-.025.133-.066.189-.087.037-.197.066-.384.106-.58.058-.033.124-.064.18-.09v-.194h.103v-.473h.098v-.204c.058-.033.124-.056.19-.093v-.289c.056-.027.125-.056.191-.091v-.193h.095v-.575c.056-.023.125-.064.19-.096v-.186h.098v-.681c.067-.027.12-.052.187-.092v-.195h.095v-.76c.095-.068.193-.122.284-.19v-.383c.091-.068.195-.133.288-.193v-.187c.068-.041.135-.07.19-.101v-.198h.094v-.38h.095v-.195c.066-.022.135-.056.201-.091v-.189c.097-.066.186-.13.282-.193-.033-.191-.06-.38-.096-.573-.157-.033-.186-.095-.186-.095h-.58c-.027-.065-.064-.135-.093-.191h-.195v-.094h-.854c-.066-.102-.134-.197-.19-.299h-.58v-.09c-.174-.182-.11-.803-.087-1.143-.272-.166-.334-.4-.674-.48v-.286c.203-.129.203-.22.475-.293v-.101h.286v.487a1.9 1.9 0 0 0 .58.098c.074-.14.068-.118.19-.191v-.394h1.142c.035.161.068.325.093.487h.097v.098h.39c.029.06.06.12.097.187.212.193.3.338.665.388.129-.243.43-.36.666-.48-.06-.164-.085-.307-.092-.579.228-.064.176-.03.284-.199h.093v-.567h.096c.07-.164.05-.253.1-.384.177-.093.15-.135.378-.19.025-.505.141-.833.29-1.25h.1c.155-.484-.069-1.155-.1-1.524h.386c.085-.17.13-.154.186-.387-.331-.174-.456-.19-.472-.676.122-.11.14-.173.19-.382h.193c.15-.266.381-.322.473-.667h.19c.056-.212.087-.236.189-.382h.097c.062-.193.137-.396.195-.581.062-.027.128-.056.182-.093v-.194h.098c.04-.124.062-.25.097-.38h.1v-.666h.1c.03-.13.057-.266.096-.382h.098v-.195c.12-.093.252-.195.377-.297.027-.12.056-.24.095-.38h.095v-.473c.096-.073.19-.127.284-.195.126-.258-.041-.555.097-.756.257-.237.512-.452.773-.683v-.86h.093v-.186c.05-.03.123-.073.179-.098v-.193h.11v-.193l.188-.183v-.201c.097-.058.184-.12.284-.201v-.563c.097-.069.19-.129.288-.193v-.38c.091-.066.188-.127.286-.195v-.378c.195-.162.381-.324.57-.492v-.953c.068-.023.132-.06.2-.09v-.188h.077v-.289c.108-.068.197-.128.294-.193.034-.16.07-.324.104-.475.153-.135.317-.262.474-.392.027-.154.069-.31.102-.478.157-.125.309-.255.472-.384.036-.191.065-.376.094-.57h.097v-.198h.093v-.278h.095v-.58c.067-.037.133-.064.195-.097v-.193c.093-.07.189-.119.294-.191v-.195h.085v-.187c.067-.03.129-.06.197-.094v-.19c.085-.065.187-.133.284-.192a8.74 8.74 0 0 1 .097-.386c.058-.03.125-.062.191-.101v-.194h.097c.03-.155.056-.315.09-.477.167-.118.316-.251.478-.378v-.668c.097-.067.19-.133.288-.191v-.289c.064-.035.133-.064.193-.09v-.2c.294-.248.578-.507.86-.77.029-.12.066-.248.097-.377.054-.024.126-.066.195-.093v-.193c.12-.096.252-.189.383-.286v-.39c.416-.38.823-.763 1.233-1.145v-.195c.062-.023.137-.07.199-.087v-.197c.095-.038.19-.063.288-.092V1.44c.286-.166.474-.202.949-.187.039.058.068.124.097.187.236.162.124-.154.381.193h.1v.861c-.118.106-.1.17-.197.289h-.093v.185c-.096.072-.191.139-.288.203v.573h-.096v.189c-.066.03-.122.07-.195.098-.02.122-.058.255-.089.382-.068.024-.132.064-.188.093v.48c-.095.06-.193.132-.282.188v.681c-.172.247-.33.503-.483.756-.103.073-.199.125-.294.193a5.165 5.165 0 0 1-.095.48h-.095v.282a.691.691 0 0 1-.193.093v.194c-.164.137-.313.257-.473.396-.029.185-.066.38-.101.567h-.085v.288c-.073.032-.13.063-.193.094-.041.355-.07.708-.095 1.06zm-24.386-8.429c-.294 0-.58-.012-.76.087-.03.069-.073.127-.097.195-.266.123-.55-.04-.759.094-.2.253-.391.519-.582.762h-.474v.1h-.288c-.036.064-.067.132-.096.188-.188.038-.379.067-.57.106-.23.247-.445.507-.675.764-.257.069-.505.12-.762.189v.098c-.096.024-.193.064-.288.093-.069.09-.123.191-.191.289h-.38a4.261 4.261 0 0 0-.188.286h-.385c-.062.093-.13.185-.197.284h-.379c-.07.096-.126.202-.193.291h-.379c-.068.098-.134.2-.19.289h-.384c-.07.097-.134.19-.188.284-.19.102-.346-.025-.491.102a6.28 6.28 0 0 1-.185.376h-.192v.097h-.665c-.096.193-.193.378-.284.577h-.585c-.058.094-.124.185-.18.278h-.203a.92.92 0 0 1-.087.194h-.195v.101h-.476v.1c-.371.299-.027.183-.189.477h-.095c-.344.45-.19.086-.574.285-.064.1-.132.187-.188.288h-.39c-.06.094-.124.193-.193.285a2.1 2.1 0 0 1-.379.09c-.124.163-.259.333-.375.483h-.199c-.064.1-.122.193-.186.297-.164.029-.323.06-.477.093-.041.058-.066.125-.101.185-.292.253-.576.513-.858.768a9.695 9.695 0 0 1-.1.475.7.7 0 0 1-.19.102c-.255.272-.294.486-.284 1.061.17.11.214.255.377.38v.091h.966c.395.69 1.13.048 1.612 0h1.442c.066-.091.126-.187.192-.28h1.533c.056-.1.125-.191.185-.295h.385c.062-.1.127-.187.189-.28h.764v-.102h.185a.707.707 0 0 0 .1-.197h.39v-.093h.19c.03-.059.057-.127.095-.191.155-.027.314-.063.478-.094.03-.058.066-.127.095-.193h.951v-.091h.2c.028-.069.055-.131.095-.193h1.046v-.1h.193c.029-.06.066-.125.093-.191h.288c.41-.042.57-.12.675-.47.22-.068.437-.14.665-.194a1.18 1.18 0 0 1 .098-.191h.66v-.104h.193c.033-.058.069-.123.098-.193.163-.031.32-.056.476-.096.035-.054.067-.126.091-.187h1.25v-.097c.168-.03.323-.056.476-.104a.82.82 0 0 0 .098-.18h.283c.04-.07.069-.131.106-.194.437-.029.885-.066 1.328-.101.164-.216.32-.447.479-.663.48-.09.963-.193 1.44-.286.093-.13.188-.255.282-.395h.188l.197-.184h.186V7.38h.191v-.097h.298a.792.792 0 0 1 .098-.191h.178v-.096h.296v-.102c.13-.027.249-.062.38-.09v-.098c.124-.023.256-.06.383-.096.027-.066.064-.118.093-.187h.572c.037-.066.064-.122.093-.195.23-.064.447-.127.677-.187v-.187c.22-.058.226-.089.38-.199v-.09c.16-.034.314-.068.476-.105a.899.899 0 0 0 .095-.195h.384c.066-.092.128-.185.186-.28.276-.127.562.037.769-.1l.385-.473h.381c.03-.065.069-.127.096-.194.163-.116.391-.089.665-.093.335.363.574.093.58.86-.294.25-.58.512-.862.768-.033.06-.058.122-.1.19h-.57v.098h-.19c-.132.154-.255.316-.385.48h-.578c-.031.064-.058.124-.094.185h-.19v.097h-.667c-.067.091-.12.193-.187.289h-.194a1.48 1.48 0 0 0-.094.19h-.19v.098h-.487c-.151.185-.315.382-.475.573h-.667c-.255.295-.514.577-.762.862h-.377c-.073.1-.135.187-.195.288h-.578v.094h-.197c-.025.072-.058.12-.091.19-.19.07-.38.138-.566.194-.101.133-.197.255-.29.38h-.58v.1h-.182c-.038.06-.067.128-.104.197h-.286v.093h-.19c-.031.058-.065.125-.1.185-.155.04-.304.066-.472.108a1.303 1.303 0 0 0-.093.187h-.193v.097h-.284c-.037.065-.066.12-.106.185h-.18v.102h-.296c-.122.157-.253.313-.38.473-.19.066-.383.135-.571.193-.097.13-.193.255-.284.378-.284.07-.572.133-.868.197-.068.314-.199.37-.286.677a8.42 8.42 0 0 0-.572.093v.096c-.103.108-.035 0-.095.193h-.19c-.05.255-.094.494-.094.851.501.27 1.32.204 2.105.195.255-.373.56-.268 1.142-.286h.39l.086-.193c.2-.114.419.02.676-.094.027-.064.064-.124.093-.195h.192v-.09h1.047c.035-.068.066-.126.095-.188h.189v-.102h1.63c.07-.091.135-.187.189-.28h1.53c.07-.1.121-.191.196-.295h.864v-.1c.38-.137.65-.18 1.145-.18.067.093.12.18.187.28h.379v.104c.21.145.249.129.288.471-.172.106-.392.303-.477.482v.284c-.19.131-.377.254-.571.382-.038.23-.065.445-.094.677h-.095c-.39.473-.433.069-.868.287-.122.16-.255.315-.38.475-.103.095-.238.008-.378.095-.027.067-.075.131-.098.194h-.097c-.025.161-.064.32-.093.477h-.096a1.79 1.79 0 0 1-.095.18h-.193c-.09.144-.188.266-.292.403h-.186v.092h-.185v.091h-.489c-.348.386-.694.77-1.04 1.15-.168.035-.33.067-.482.096-.065.095-.129.195-.2.284-.12.04-.248.069-.37.094-.038.068-.067.137-.104.195h-.188c-.031.101-.069.189-.098.299h-.093l-.197.282h-.186c-.03.052-.064.12-.094.195a9.402 9.402 0 0 0-.478.09 1.262 1.262 0 0 0-.095.19h-.189v.094h-.286c-.197.222-.39.45-.582.668h-.19v.102h-.191v.09h-.477a2.529 2.529 0 0 0-.091.188h-.193v.102h-.286c-.132.26-.259.506-.39.772a4.911 4.911 0 0 0-.478.09c-.12.166-.246.317-.379.481-.161.031-.313.06-.474.096-.04.062-.069.128-.098.188h-.19v.098c-.162.035-.323.064-.475.093-.04.069-.064.131-.105.194a3.983 3.983 0 0 1-.384.093c-.087.14-.186.26-.281.388l-.479.1v.093h-.19c-.028.058-.065.123-.096.193h-.282v.096c-.068.027-.136.06-.192.093-.094.143.03.287-.094.384h-.288v.09h-.199a1.393 1.393 0 0 1-.095.193h-.572v.097h-.186c-.031.067-.07.119-.098.191a7.796 7.796 0 0 1-.48.094c-.064.137-.13.26-.189.384-.178.135-.445.01-.68.091v.112h-.184c-.033.052-.062.118-.095.187h-.67l-.092.093c-.085.175-.145.247-.193.478-.16.025-.32.058-.473.1a1.823 1.823 0 0 0-.097.19c-.352.025-.706.059-1.057.09-.19.263-.379.517-.571.768h-.38v.093h-.285c-.038.069-.065.135-.094.191h-.572v.102h-.393c-.027.102-.066.195-.091.287h-.098l-.19.288h-.187a1.37 1.37 0 0 0-.097.191c-.201.125-.412-.008-.667.098v.093c-.13.02-.26.069-.392.098v.093h-.292a2.86 2.86 0 0 1-.184.285h-.191c-.029.066-.07.128-.093.19-.127.032-.257.07-.381.1-.027.06-.07.129-.098.19-.188.034-.379.063-.57.095-.037.068-.066.132-.095.189-.13.037-.253.07-.381.101-.133.156-.255.318-.39.484-.149.027-.315.06-.474.095-.031.054-.068.12-.097.187h-.185v.098h-.671c-.164.195-.325.382-.487.569h-.76v.1h-.191c-.027.06-.07.13-.093.186h-.48v.1h-.19c-.093.156-.19.324-.294.473h-.277v.102h-.201c-.027.06-.06.129-.093.197h-.579v.094h-.184c-.027.056-.064.126-.093.19-.164.03-.328.059-.477.096-.066.25-.103.27-.288.382v.096c-.199.029-.377.064-.57.095-.039.062-.072.127-.103.193-.27.125-.551-.041-.765.091-.215.258-.445.511-.665.764-.352.137-.706.258-1.056.397l-.672.758c-.157.029-.317.068-.472.097-.091.162-.186.308-.284.474-.23.068-.45.135-.675.195-.122.162-.253.326-.38.477a3.365 3.365 0 0 1-.192.098v.2l-.19.186h-.187c-.1.125-.193.257-.29.38-.278.164-.104-.133-.381.19h-.096c-.095.146.019.29-.095.385h-.199c-.027.064-.058.118-.093.193a4.576 4.576 0 0 1-.386.091v.094c-.055.045-.12.066-.186.097v.191a1.034 1.034 0 0 1-.193.094v.203h-.095c-.027.056-.064.12-.093.19h-.29c-.158.215-.313.441-.473.67v.187c-.257.197-.513.38-.77.577-.201.346.07 1.048-.098 1.436-.062.033-.122.054-.188.098v.19h-.096c.036.406.069.83.096 1.244.066.034.126.067.188.104.135.295-.043.615.098.853.163.123.323.26.487.387v.284h.082v.193l.297.28c.315.069.636.137.95.195.098.162.195.32.284.486h.386c.035.058.066.125.093.191h.199v.094h.288c.05.093.124.19.19.288h.664c.163.187.32.378.478.571h.383c.069.094.131.191.185.287h3.162c.026-.06.07-.13.097-.193h.188v-.094h.67c.066-.093.126-.193.199-.284h.285v-.1h.189c.033-.062.058-.118.095-.187h.382c.033-.068.055-.126.103-.195.182-.025.373-.064.557-.093.094.11 0 .01.106.093-.058.195.015.09-.106.195-.116.447-.346.447-.66.665-.067.097-.131.193-.189.292-.135.031-.255.065-.392.1-.124.154-.248.315-.37.475h-.578v.102c-.125.02-.264.05-.384.093v.094h-.381c-.064.095-.133.189-.19.282h-.382v.098c-.135.029-.255.068-.39.097v.098h-.86c-.026-.098-.063-.195-.097-.293-.11-.11-.033 0-.089-.187-.163-.03-.317-.068-.474-.095-.048-.067-.07-.137-.095-.187h-.201v-.102h-.951c-.031-.091-.069-.19-.102-.286h-.66a2.755 2.755 0 0 1-.098-.19c-.16-.034-.32-.068-.477-.099a1.698 1.698 0 0 1-.095-.195c-.199-.033-.387-.056-.58-.097v-.094a32.63 32.63 0 0 1-.572-.093c-.056.15-.085.228-.093.48-.541-.026-.352-.138-.667-.293a4.694 4.694 0 0 1-.481-.094c-.32-.349-.646-.697-.953-1.054h-.288a.89.89 0 0 1-.477-.576c-.772-.195-.263-.519-.476-1.148h-.097v-.19c-.065-.036-.131-.063-.2-.092v-.577h-.099v-.185a1.03 1.03 0 0 0-.186-.104v-1.34c.07-.028.139-.065.186-.094.046-.166.073-.324.1-.48.068-.037.134-.064.199-.1v-.197h.097v-.666c.103-.276.429-.502.76-.573.056-.26.141-.399.29-.569h.09v-.193c.1-.064.192-.133.287-.19v-.283c.096-.135.249-.013.382-.11.103-.187.19-.382.283-.567.133-.03.251-.075.392-.102.095-.12.19-.255.288-.382.16-.025.313-.06.474-.093.065-.09.125-.191.189-.287h.19c.243-.172.363-.56.48-.867.16-.027.329-.052.482-.092v-.195h.19c.23-.452.374-.396.757-.666.033-.07.07-.123.101-.191h.191v-.094c.255-.17.17.094.288-.288h.19v-.193c.222-.058.222-.083.386-.183v-.098h.383v-.101c.193-.06.381-.127.568-.198v-.095h.188c.098-.158.195-.32.293-.48h.283v-.091h.193c.037-.064.064-.125.1-.189l.478-.1c.129-.16.247-.315.381-.473.156-.029.317-.066.477-.102.029-.062.066-.128.095-.186h.195v-.094h.282c.029-.064.066-.137.093-.19h.584v-.103h.178c.137-.157.257-.32.392-.485.292-.03.572-.056.85-.094.035-.052.07-.122.105-.19.12-.024.253-.057.377-.094.069-.094.129-.193.189-.29h.2c.03-.067.059-.121.096-.188.22-.029.437-.064.665-.089.064-.104.126-.195.197-.293h.568v-.095h.184c.041-.067.075-.127.102-.187.159-.042.32-.069.474-.098.133-.162.259-.326.39-.487h.383c.027-.057.056-.12.093-.19h.19v-.095h.287c.161-.189.314-.38.476-.575h.381c.038-.06.065-.12.104-.189h.182v-.093h.392v-.098c.12-.037.246-.066.379-.093.029-.065.056-.131.093-.195h.193c.029-.063.06-.137.095-.191h.284c.04-.067.068-.13.093-.191.168-.036.33-.065.479-.092.04-.07.066-.139.095-.195h.189v-.102h.292c.128-.15.255-.313.385-.475.22-.06.448-.129.667-.189.069-.098.123-.193.189-.289.137-.029.26-.06.393-.1v-.088h.666v-.1h.188c.031-.064.066-.133.097-.191.158-.031.315-.069.477-.096.122-.164.257-.323.38-.475h.575v-.098h.201c.118-.157.24-.323.375-.481h.57v-.094h.193c.066-.101.124-.195.192-.29h.288c.035-.06.064-.127.093-.193h.378v-.096h.391c.124-.164.245-.313.38-.475h.188c.062-.096.126-.19.195-.285.414-.267.685.07.855-.59.315-.045.516-.147.777-.277v-.094h.28c.029-.068.058-.129.097-.193h.19v-.098h.283c.165-.188.317-.373.476-.568h.38c.04-.073.068-.125.097-.198h.19v-.089h.297c.114-.077.103-.382.188-.48.098-.132.228-.012.381-.097.058-.093.123-.195.193-.297h.38c.068-.091.132-.189.186-.278h.385c.261-.297.514-.575.769-.864h.385c.15-.19.313-.382.472-.575h.384c.126-.16.257-.324.379-.481.161-.03.323-.058.476-.088.162-.2.324-.39.485-.58h.383c.065-.1.125-.194.191-.287h.38c.132-.256.258-.52.389-.762h.182c.037-.08.068-.133.097-.193.131-.038.253-.067.388-.092v-.1c.257-.037.501-.062.76-.101.135-.09.027-.226.094-.382h.097v-.193c.091-.058.19-.123.288-.189v-.095h.186c.164-.194.326-.382.49-.578h.275c.04-.064.066-.124.095-.186h.201a.958.958 0 0 1 .091-.191h.193c.162-.194.315-.385.479-.588v-.185c-.058-.037-.195-.195-.195-.195h-1.34c-.152.23-.063.067-.289.195v.094h-.283a2.27 2.27 0 0 1-.1.201h-.188v.093h-1.242v.1c-.126.027-.25.054-.383.091v.098h-.953v.096h-.188c-.042.054-.067.122-.098.19h-.862v.092h-.192c-.03.068-.06.129-.098.195h-.669c-.062.096-.12.189-.188.284h-3.726c-.157-.226-.064-.066-.292-.188v-.096h-.284v-.1c-.097-.064-.192-.124-.288-.186v-.191h-.095v-.285h-.091c-.106-.156-.135-.164-.19-.394h.095v-.19c.058-.032.122-.06.186-.099v-.471h.095v-.191c.22-.19.45-.382.67-.571h.281v-.1c.069-.037.137-.066.195-.091v-.203c.093-.03.189-.069.294-.088v-.093c.152-.135.313-.262.475-.392v-.285c-.152-.058-.162-.075-.38-.102-.258.35-.584.133-.963.291v.096c-.122.041-.255.066-.381.093v.095h-.377v.102c-.135.035-.26.062-.383.102v.093h-.185a.71.71 0 0 0-.101.187h-.193v.104h-.769c-.027.054-.066.12-.093.19h-.19v.094c-.286.104-.545-.029-.763.096a1.192 1.192 0 0 0-.095.193h-.96c-.029.062-.058.12-.093.189-.168.029-.317.066-.48.09-.034.07-.067.13-.096.194h-.188v.094h-.585a1.858 1.858 0 0 1-.09.193h-.179v.091h-1.156c-.062.1-.124.195-.19.289h-.193v.091c-.125.046-.255.07-.38.11v.093H89.94v.1h-.186a5.16 5.16 0 0 0-.098.189h-2.102c-.027-.064-.07-.135-.098-.189h-.188v-.1h-.676s-.016-.064-.182-.093c-.133-.162-.255-.332-.39-.49h-.095c-.031-.118-.054-.255-.097-.378h-.094v-.195h-.093v-.185h-.095c-.172-.326-.19-.641-.19-1.152.196-.11.472-.272.57-.481v-.287c.094-.07.188-.125.285-.193.211-.208.495-.631.58-.96.151-.032.313-.06.477-.086.035-.069.053-.131.095-.191.17-.096.429-.019.572-.198v-.195l.186-.187h.197c.062-.097.133-.2.189-.29.188-.07.377-.119.58-.191.19-.216.38-.442.57-.667h.283v-.097h.2c.024-.062.061-.131.088-.185.123-.046.261-.075.382-.102.136-.193.254-.384.379-.581h.29c.029-.062.062-.12.103-.185h.19v-.097c.254-.102.465.04.666-.102.19-.21.38-.446.57-.66.207-.141.497.023.764-.098.033-.066.062-.122.091-.195.166-.033.328-.064.485-.093.031-.067.06-.133.1-.191.25-.227.501-.447.764-.68h.661V5.08h.098c-.03-.095-.058-.195-.098-.286-.248-.034-.501-.069-.758-.098v.098h-.19c-.07.09-.127.19-.193.286h-.481v.093a8.228 8.228 0 0 1-.388.092v.1h-.855c-.096.132-.19.255-.286.388h-.189v.101c-.085.017-.273-.178-.478-.101v.101c-.16.021-.323.054-.473.09a1.06 1.06 0 0 0-.103.19h-.193v.094h-.67c-.065.102-.12.195-.188.293h-.377v.09h-.195v.095h-.772v.097h-.189c-.056.091-.126.193-.188.289h-.479v.089c-.118.033-.255.073-.38.102v.097h-.857c-.037.065-.064.123-.095.185h-.201c-.085.14-.189.257-.284.388h-1.716v-.295h.098v-.093h.57v-.091h.192c.027-.063.067-.131.094-.191h.571c.135-.152.257-.312.39-.48.153-.027.317-.068.476-.097V6.61h.191c.027-.066.066-.118.095-.187H88.6V6.33c.342-.262.04-.152.19-.386.094-.036.2-.069.297-.09.317-.199.325-.282.853-.288.127.212.147.247.477.288.108-.199.277-.502.476-.59h.49v-.09c.12-.03.246-.057.378-.094v-.095h1.52c.113-.127.202-.26.291-.39.13-.022.257-.061.388-.09v-.093h1.052c.064-.098.118-.194.185-.287h.677c.153-.193.309-.382.475-.573.325-.162.783.075 1.05-.093.19-.23.38-.45.576-.677.215-.14.51.006.767-.102v-.093h.186c.031-.058.068-.129.095-.191.191-.027.384-.065.572-.102a.963.963 0 0 0 .098-.183h1.054v-.1h.19a1.21 1.21 0 0 1 .098-.182c.122-.033.257-.073.38-.093a1.07 1.07 0 0 1 .095-.196c.19-.035.377-.072.57-.101.068-.092.134-.187.192-.279h.286c.13-.168.257-.328.39-.492.093-.027.194-.056.285-.095.03-.054.067-.123.098-.191h.47c.184-.069.458-.237.574-.382.259.035.67.212.762.382v.286h.106c.027.098.056.196.093.289h-.093c-.27.421-.628.226-.773.872z"/>
</svg>
