<svg xmlns="http://www.w3.org/2000/svg" width="172" height="19" viewBox="0 0 172 19">
    <g fill="#FFF" fill-rule="evenodd">
        <path d="M109.33 5.96a10.017 10.017 0 0 1 2.679 4.338c-.34.169-.662.388-1 .556-.474-1.669-1.29-3.223-2.712-4.42l.933-.523.1.05zm4.847 9.706c-.914 0-1.49-.66-1.49-1.35V3.21h-4.745l-.018 7.19c0 2.48-1.695 4.573-3.71 6.04l-.933-.81c1.677-1.146 3.44-2.936 3.526-5.062l.034-.911.016-7.476h6.914v11.73c0 .352.187.742.661.742l1.424-.018c.56 0 .71-.692.762-.962.118-.607.272-1.214.322-1.838l1.067.302c-.066.945-.54 3.529-1.71 3.529h-2.12zM135.875 15.343h-14.66l-.016-1.011h2.643l.019-9.146h1.082v9.146h3.68l-.018-12.573h1.067v5.147h4.984V7.92h-4.984v6.413l6.187-.018zM146.675 3.92c-.608-.946-1.474-1.772-2.457-2.262L144.98 1c.373.119.696.388 1.017.625.594.42 1.137 1.095 1.576 1.637l-.898.658zm-3.067 1.213c.068.574.255 1.267.424 1.857.017.052.068.118.05.169.357.979.748 1.942 1.339 2.802.34.471.696.995 1.135 1.35 1.595-1.705 2.443-3.916 2.848-6.178h-5.796zM139.03 15.53c2.39-.793 4.797-1.637 6.763-3.426-1.83-1.89-2.779-4.421-3.271-6.987h-2.814l.019-1.011h13.54v1.011l-2.763.016c-.458 2.532-1.406 5.03-3.151 6.937 1.932 1.67 4.288 2.582 6.677 3.325l-.746.876c-2.39-.759-4.71-1.754-6.694-3.426-.44.254-.847.675-1.272.963-1.711 1.13-3.558 1.974-5.49 2.616l-.798-.894zM171.39 15.107c-.068.524-.39 1.08-.948 1.2-.544.1-1.153.032-1.713.05l-.371-1.113c.728.1 1.354.252 1.829-.17.17-.253.22-.505.17-.894V1.185h1.05l-.017 13.922zm-3.541-2.024h1.05V3.126h-1.05v9.957zm-2.307-.119l-4.067-.017v1.57h4.067v-1.553zm0 3.444l.018-.996h-4.085v1.147h-1.051V12.07h6.17v4.338h-1.052zm-.456-7.207h-4.932v1.013l4.932-.018v-.995zm-4.932-1.805v.929l4.932.016v-.928l-4.932-.017zm-.035 3.73c-.1 1.737-.678 3.357-1.78 4.706l-.88-.556c.236-.286.745-1.181.83-1.366.848-1.4.779-2.751.798-4.338l.015-2.852c-.406.338-1.237.862-1.71 1.063l-.459-.894c1.407-.759 2.643-2.058 3.56-3.374.559-.794.966-1.638 1.356-2.515l.914.406c-.016.15-.101.303-.17.455l.069.05c1.864.523 3.372 1.57 4.693 2.97l-.762.642c-1.915-1.976-2.423-1.976-4.372-2.717-.052 0-.136.051-.084.066-.357.524-.61 1.065-1.035 1.655h4.069v.996h-4.831c-.118.168-.95.927-1.017.927l6.813.034.018 4.641h-6.035z"/>
        <g>
            <path d="M0 .401v18.15h3.76V11.1h6.63V7.772H3.76V3.729h6.63V.4zM18.727 4.739l-2.211 7.053h4.644L18.727 4.74zm8.824 13.813h-4.047l-1.24-3.593H15.52l-1.124 3.593h-3.98l6.08-18.15h4.355l6.7 18.15zM44.573 18.553h-3.16L33.073 6.92v11.633h-3.757V.4h3.449l8.048 11.1V.4h3.76zM63.011 18.553h-3.76v-7.346h-7.517v7.346h-3.76V.4h3.76v7.293h7.517V.4h3.76zM76.492 5.112C74.304 3.942 73 3.487 71.72 3.487c-1.35 0-2.211.586-2.211 1.491 0 2.741 7.671 1.97 7.671 8.304 0 3.488-2.434 5.51-5.791 5.51-2.632 0-3.94-.825-5.44-1.757v-3.913c2.164 1.733 3.491 2.344 5.149 2.344 1.438 0 2.211-.61 2.211-1.678 0-2.98-7.671-1.89-7.671-8.41 0-3.141 2.254-5.218 5.75-5.218 1.677 0 3.206.428 5.105 1.413v3.539zM94.667.4v10.302c0 6.013-3.405 8.09-7.54 8.09-4.377 0-7.54-2.45-7.54-8.066V.401h3.76v10.432c0 2.608 1.567 4.179 3.736 4.179 1.987 0 3.824-1.25 3.824-4.498V.401h3.76z"/>
        </g>
    </g>
</svg>
